<svg width="19" height="19" viewBox="0 0 19 19" fill="none" xmlns="http://www.w3.org/2000/svg">
<g id="Icon">
<path id="Vector" d="M12.01 17H10.51V15.5C10.51 15.09 10.41 14.7125 10.21 14.3675C10.01 14.0225 9.7375 13.75 9.3925 13.55C9.0475 13.35 8.67 13.25 8.26 13.25H3.76C3.35 13.25 2.9725 13.35 2.6275 13.55C2.2825 13.75 2.01 14.0225 1.81 14.3675C1.61 14.7125 1.51 15.09 1.51 15.5V17H0.00999832V15.5C0.00999832 14.82 0.177498 14.1925 0.512498 13.6175C0.847498 13.0425 1.3025 12.5875 1.8775 12.2525C2.4525 11.9175 3.08 11.75 3.76 11.75H8.26C8.94 11.75 9.5675 11.9175 10.1425 12.2525C10.7175 12.5875 11.1725 13.0425 11.5075 13.6175C11.8425 14.1925 12.01 14.82 12.01 15.5V17ZM6.01 10.25C5.2 10.25 4.445 10.045 3.745 9.635C3.065 9.235 2.525 8.695 2.125 8.015C1.715 7.315 1.51 6.56 1.51 5.75C1.51 4.94 1.715 4.185 2.125 3.485C2.525 2.805 3.065 2.265 3.745 1.865C4.445 1.455 5.2 1.25 6.01 1.25C6.82 1.25 7.575 1.455 8.275 1.865C8.955 2.265 9.495 2.805 9.895 3.485C10.305 4.185 10.51 4.94 10.51 5.75C10.51 6.56 10.305 7.315 9.895 8.015C9.495 8.695 8.955 9.235 8.275 9.635C7.575 10.045 6.82 10.25 6.01 10.25ZM6.01 8.75C6.55 8.75 7.05 8.615 7.51 8.345C7.97 8.075 8.335 7.71 8.605 7.25C8.875 6.79 9.01 6.29 9.01 5.75C9.01 5.21 8.875 4.71 8.605 4.25C8.335 3.79 7.97 3.425 7.51 3.155C7.05 2.885 6.55 2.75 6.01 2.75C5.47 2.75 4.97 2.885 4.51 3.155C4.05 3.425 3.685 3.79 3.415 4.25C3.145 4.71 3.01 5.21 3.01 5.75C3.01 6.29 3.145 6.79 3.415 7.25C3.685 7.71 4.05 8.075 4.51 8.345C4.97 8.615 5.47 8.75 6.01 8.75Z" fill="#656567"/>
</g>
</svg>
