<svg width="19" height="19" viewBox="0 0 19 19" fill="none" xmlns="http://www.w3.org/2000/svg">
<g id="Icon">
<path id="Vector" d="M0.759998 2.75H14.26C14.47 2.75 14.6475 2.8225 14.7925 2.9675C14.9375 3.1125 15.01 3.29 15.01 3.5V15.5C15.01 15.71 14.9375 15.8875 14.7925 16.0325C14.6475 16.1775 14.47 16.25 14.26 16.25H0.759998C0.549998 16.25 0.372498 16.1775 0.227498 16.0325C0.0824983 15.8875 0.00999832 15.71 0.00999832 15.5V3.5C0.00999832 3.29 0.0824983 3.1125 0.227498 2.9675C0.372498 2.8225 0.549998 2.75 0.759998 2.75ZM13.51 5.93L7.57 11.255L1.51 5.915V14.75H13.51V5.93ZM1.9 4.25L7.555 9.245L13.135 4.25H1.9Z" fill="#656567"/>
</g>
</svg>
