<svg width="19" height="19" viewBox="0 0 19 19" fill="none" xmlns="http://www.w3.org/2000/svg">
<g id="Icon">
<path id="Vector" d="M13.51 12.815V15.47C13.51 15.66 13.4425 15.8275 13.3075 15.9725C13.1725 16.1175 13.01 16.2 12.82 16.22C12.48 16.24 12.21 16.25 12.01 16.25C10.38 16.25 8.825 15.935 7.345 15.305C5.905 14.695 4.6325 13.8375 3.5275 12.7325C2.4225 11.6275 1.565 10.355 0.954998 8.915C0.324998 7.435 0.00999832 5.88 0.00999832 4.25C0.00999832 4.04 0.0199983 3.775 0.0399983 3.455C0.0599983 3.255 0.142498 3.0875 0.287498 2.9525C0.432498 2.8175 0.599998 2.75 0.789998 2.75H3.445C3.545 2.75 3.63 2.7825 3.7 2.8475C3.77 2.9125 3.81 2.995 3.82 3.095L3.865 3.5C4.015 4.55 4.315 5.55 4.765 6.5C4.805 6.58 4.815 6.66 4.795 6.74C4.775 6.82 4.73 6.885 4.66 6.935L3.04 8.09C3.54 9.24 4.2325 10.2575 5.1175 11.1425C6.0025 12.0275 7.02 12.72 8.17 13.22L9.325 11.6C9.375 11.53 9.4425 11.485 9.5275 11.465C9.6125 11.445 9.69 11.455 9.76 11.495C10.72 11.945 11.72 12.245 12.76 12.395C12.88 12.415 13.02 12.43 13.18 12.44C13.27 12.45 13.3475 12.49 13.4125 12.56C13.4775 12.63 13.51 12.715 13.51 12.815Z" fill="#656567"/>
</g>
</svg>
