<svg width="105" height="105" viewBox="0 0 105 105" fill="none" xmlns="http://www.w3.org/2000/svg">
<g id="Group 6 1" clip-path="url(#clip0_138_1611)">
<path id="Vector" d="M87.42 52.5C87.42 33.17 71.75 17.5 52.42 17.5C33.09 17.5 17.42 33.17 17.42 52.5C17.42 71.83 33.09 87.5 52.42 87.5C71.75 87.5 87.42 71.83 87.42 52.5Z" fill="white"/>
<path id="Vector_2" opacity="0.0208829" d="M104.56 52.5051C104.56 23.7118 81.2184 0.370117 52.425 0.370117C23.6316 0.370117 0.290009 23.7118 0.290009 52.5051C0.290009 81.2985 23.6316 104.64 52.425 104.64C81.2184 104.64 104.56 81.2985 104.56 52.5051Z" fill="white"/>
<g id="Clip path group">
<mask id="mask0_138_1611" style="mask-type:luminance" maskUnits="userSpaceOnUse" x="43" y="45" width="18" height="18">
<g id="clip0_138_1578">
<path id="Vector_3" d="M60.92 45.5293H43.92V62.5293H60.92V45.5293Z" fill="white"/>
</g>
</mask>
<g mask="url(#mask0_138_1611)">
<g id="Group">
<path id="Vector_4" d="M50.0321 52.8212C50.874 54.3002 52.0989 55.5251 53.5779 56.367L54.3711 55.2562C54.4986 55.0776 54.6872 54.952 54.9012 54.903C55.1151 54.8541 55.3396 54.8853 55.5321 54.9907C56.801 55.6841 58.2024 56.1012 59.644 56.2145C59.8691 56.2323 60.0791 56.3343 60.2322 56.5001C60.3854 56.6659 60.4704 56.8833 60.4704 57.109V61.1124C60.4704 61.3345 60.3881 61.5488 60.2392 61.7137C60.0904 61.8786 59.8857 61.9825 59.6647 62.0051C59.1892 62.0545 58.71 62.0787 58.2273 62.0787C50.5471 62.0787 44.3204 55.852 44.3204 48.1718C44.3204 47.6891 44.3446 47.2099 44.394 46.7344C44.4166 46.5134 44.5205 46.3087 44.6854 46.1599C44.8503 46.011 45.0646 45.9287 45.2867 45.9287H49.2901C49.5158 45.9287 49.7333 46.0137 49.899 46.1669C50.0648 46.32 50.1668 46.53 50.1847 46.755C50.2979 48.1967 50.715 49.5981 51.4085 50.867C51.5139 51.0595 51.545 51.284 51.4961 51.4979C51.4471 51.7119 51.3215 51.9005 51.1429 52.028L50.0321 52.8212ZM47.7693 52.2317L49.4741 51.0142C48.9903 49.9699 48.6588 48.8616 48.4898 47.7232H46.1238C46.1184 47.8721 46.1157 48.0219 46.1157 48.1718C46.1148 54.8615 51.5377 60.2843 58.2273 60.2843C58.3772 60.2843 58.527 60.2816 58.6759 60.2753V57.9093C57.5375 57.7403 56.4292 57.4089 55.3849 56.9251L54.1674 58.6298C53.6772 58.4393 53.2011 58.2144 52.7426 57.9569L52.6906 57.9273C50.9308 56.9257 49.4734 55.4684 48.4719 53.7085L48.4422 53.6565C48.1847 53.198 47.9598 52.7219 47.7693 52.2317Z" fill="#4169E1"/>
</g>
</g>
</g>
</g>
<defs>
<clipPath id="clip0_138_1611">
<rect width="105" height="105" fill="white"/>
</clipPath>
</defs>
</svg>
