<svg width="41" height="41" viewBox="0 0 41 41" fill="none" xmlns="http://www.w3.org/2000/svg">
<path d="M37.23 7.50985H4.73001H4.63001C4.54291 7.49802 4.45461 7.49802 4.36751 7.50985L4.15501 7.59735C4.08701 7.63011 4.0239 7.67218 3.96751 7.72235C3.8964 7.77071 3.83316 7.82974 3.78001 7.89735L3.70501 7.97235C3.70031 8.0097 3.70031 8.0475 3.70501 8.08485C3.66418 8.16065 3.63069 8.24018 3.60501 8.32235C3.55256 8.42187 3.51066 8.52661 3.48001 8.63485V8.75985V31.2598C3.48001 31.5914 3.61171 31.9093 3.84613 32.1437C4.08055 32.3782 4.39849 32.5098 4.73001 32.5098H37.23C37.5615 32.5098 37.8795 32.3782 38.1139 32.1437C38.3483 31.9093 38.48 31.5914 38.48 31.2598V8.75985C38.48 8.42833 38.3483 8.11039 38.1139 7.87597C37.8795 7.64155 37.5615 7.50985 37.23 7.50985ZM20.98 18.5224L8.73001 10.0099H34.8425L20.98 18.5224ZM5.98001 30.0098V11.1474L20.2675 21.0349C20.3399 21.0773 20.4151 21.1149 20.4925 21.1474H20.5925C20.7154 21.2039 20.846 21.2418 20.98 21.2599C21.1578 21.2551 21.3325 21.2125 21.4925 21.1348H21.58L35.98 12.2474V30.0098H5.98001Z" fill="white"/>
</svg>
