<svg width="41" height="41" viewBox="0 0 41 41" fill="none" xmlns="http://www.w3.org/2000/svg">
<g clip-path="url(#clip0_49_855)">
<path d="M4.31334 8.34277L15.98 3.34277L25.98 8.34277L36.485 3.84111C36.6118 3.78675 36.7501 3.76472 36.8876 3.77701C37.025 3.7893 37.1572 3.83552 37.2724 3.91151C37.3875 3.98751 37.482 4.09091 37.5473 4.21244C37.6127 4.33396 37.6468 4.4698 37.6467 4.60777V31.6761L25.98 36.6761L15.98 31.6761L5.47501 36.1778C5.3482 36.2321 5.20987 36.2542 5.07245 36.2419C4.93503 36.2296 4.8028 36.1834 4.68765 36.1074C4.5725 36.0314 4.47802 35.928 4.41268 35.8064C4.34735 35.6849 4.31322 35.5491 4.31334 35.4111V8.34277ZM27.6467 32.3344L34.3133 29.4778V8.39777L27.6467 11.2544V32.3344ZM24.3133 32.1161V11.2361L17.6467 7.90277V28.7828L24.3133 32.1161ZM14.3133 28.7644V7.68444L7.64667 10.5411V31.6211L14.3133 28.7644Z" fill="white"/>
</g>
<defs>
<clipPath id="clip0_49_855">
<rect width="40" height="40" fill="white" transform="translate(0.980011 0.00976562)"/>
</clipPath>
</defs>
</svg>
