<svg width="41" height="41" viewBox="0 0 41 41" fill="none" xmlns="http://www.w3.org/2000/svg">
<g clip-path="url(#clip0_49_864)">
<path d="M16.59 17.8131C18.1539 20.5606 20.4292 22.8359 23.1767 24.3998L24.65 22.3364C24.8869 22.0047 25.2373 21.7712 25.6347 21.6803C26.0321 21.5894 26.4491 21.6473 26.8067 21.8431C29.1639 23.1313 31.767 23.9061 34.445 24.1164C34.863 24.1496 35.2531 24.339 35.5376 24.647C35.8221 24.9549 35.9801 25.3588 35.98 25.7781V33.2148C35.9801 33.6274 35.8271 34.0254 35.5506 34.3318C35.2741 34.6381 34.8938 34.831 34.4833 34.8731C33.6 34.9648 32.71 35.0098 31.8133 35.0098C17.5467 35.0098 5.98001 23.4431 5.98001 9.17643C5.98001 8.27977 6.02501 7.38977 6.11668 6.50643C6.15877 6.09593 6.35165 5.71563 6.65799 5.43916C6.96434 5.16268 7.36235 5.00968 7.77501 5.00977H15.2117C15.6309 5.00971 16.0348 5.16768 16.3428 5.45218C16.6508 5.73668 16.8402 6.1268 16.8733 6.54477C17.0837 9.22275 17.8585 11.8259 19.1467 14.1831C19.3425 14.5407 19.4004 14.9577 19.3095 15.3551C19.2185 15.7525 18.9851 16.1028 18.6533 16.3398L16.59 17.8131ZM12.3867 16.7181L15.5533 14.4564C14.6546 12.5166 14.0389 10.4578 13.725 8.3431H9.33001C9.32001 8.61977 9.31501 8.8981 9.31501 9.17643C9.31334 21.6031 19.3867 31.6764 31.8133 31.6764C32.0917 31.6764 32.37 31.6714 32.6467 31.6598V27.2648C30.5319 26.9508 28.4732 26.3351 26.5333 25.4364L24.2717 28.6031C23.3611 28.2493 22.4767 27.8316 21.625 27.3531L21.5283 27.2981C18.2593 25.4376 15.5521 22.7305 13.6917 19.4614L13.6367 19.3648C13.1582 18.5131 12.7405 17.6287 12.3867 16.7181Z" fill="white"/>
</g>
<defs>
<clipPath id="clip0_49_864">
<rect width="40" height="40" fill="white" transform="translate(0.980011 0.00976562)"/>
</clipPath>
</defs>
</svg>
