<svg width="41" height="41" viewBox="0 0 41 41" fill="none" xmlns="http://www.w3.org/2000/svg">
<g id="blueprint 1" clip-path="url(#clip0_53_3486)">
<g id="Group">
<path id="Vector" d="M37.0391 0.648436C36.9141 0.726561 34.1094 3.5 30.8203 6.79687L24.8281 12.8047L24.4688 13.8984C24.2734 14.5 24.1094 15.0859 24.1094 15.1953C24.1094 15.3125 24.1875 15.5 24.2734 15.6172L24.4453 15.8281L23.6875 16.5859L22.9375 17.3359L23.4219 17.8281L23.9141 18.3125L24.6641 17.5625L25.4219 16.8047L25.6328 16.9766C25.75 17.0625 25.9375 17.1406 26.0547 17.1406C26.1641 17.1406 26.75 16.9766 27.3516 16.7812L28.4453 16.4219L34.5156 10.3594C37.8594 7.02344 40.625 4.19531 40.6797 4.07812C40.7266 3.96094 40.75 3.78125 40.7266 3.6875C40.6953 3.58594 40 2.82812 39.1641 2C37.5469 0.390623 37.4922 0.359373 37.0391 0.648436ZM38.2891 3L39.1484 3.85937L35.6328 7.375L32.1172 10.8906L31.2422 10.0156L30.3594 9.13281L33.8516 5.64062C35.7812 3.71094 37.3672 2.14062 37.3906 2.14062C37.4141 2.14062 37.8203 2.53125 38.2891 3ZM29.7969 13.2109L28.4453 14.5625L27.5703 13.6875L26.6875 12.8047L28.0312 11.4609L29.3828 10.1094L30.2578 10.9844L31.1406 11.8672L29.7969 13.2109ZM26.6484 14.6406C27.0312 15.0234 27.3281 15.3516 27.3047 15.3672C27.2891 15.3828 27.0469 15.4766 26.7656 15.5703L26.2578 15.7344L25.8906 15.3672L25.5156 14.9922L25.6875 14.4609C25.7812 14.1719 25.8828 13.9375 25.9062 13.9375C25.9297 13.9375 26.2656 14.25 26.6484 14.6406Z" fill="#656567"/>
<path id="Vector_2" d="M2.8125 1.89827C2.07031 2.07796 1.28906 2.73421 0.960938 3.45296L0.789062 3.82015V18.4686V33.117L1.00781 33.5858C1.39844 34.4139 2.02344 34.9061 2.9375 35.1014C3.25781 35.1717 5.71094 35.1873 12.3906 35.1717L21.4141 35.1483L21.4375 34.4998L21.4609 33.8592H12.375C2.74219 33.8514 2.9375 33.8592 2.53125 33.492C2.3125 33.3045 2.07812 32.7811 2.07812 32.492C2.07812 32.1405 2.34375 31.6405 2.63281 31.4295C2.88281 31.2498 2.97656 31.242 4.28125 31.203C5.59375 31.1639 5.67969 31.1561 5.84375 30.9842L6.02344 30.8045L6.0625 18.992L6.10156 7.17952L17.7578 7.15608L29.4219 7.14046V6.4764V5.81233H17.7422H6.0625V4.06233C6.0625 3.10139 6.03906 2.24984 6.01562 2.17952C5.90625 1.89046 5.57031 1.82796 4.28906 1.83577C3.60938 1.84359 2.94531 1.86702 2.8125 1.89827ZM4.73438 16.4608V29.7733L3.8125 29.8201C3.17188 29.8514 2.75781 29.9139 2.48438 30.0155L2.07812 30.1717V17.2108C2.07812 3.07796 2.04688 3.96858 2.52344 3.52327C2.83594 3.2264 3.07812 3.17171 3.97656 3.1639L4.73438 3.15609V16.4608Z" fill="#656567"/>
<path id="Vector_3" d="M7.8125 8.57813C7.45312 8.73438 7.38281 9 7.40625 10.1484L7.42969 11.1641L8.07031 11.1875L8.71094 11.2109L8.73437 10.5234L8.75781 9.83594L9.40625 9.8125L10.0469 9.78906V9.13281V8.46875H9.05469C8.39844 8.47656 7.96875 8.50781 7.8125 8.57813Z" fill="#656567"/>
<path id="Vector_4" d="M35.4375 15.1484V19.7969H36.1016H36.7656V15.1484V10.5H36.1016H35.4375V15.1484Z" fill="#656567"/>
<path id="Vector_5" d="M15.7656 12.5859C15.6172 12.6406 10.3516 19.2344 10.1797 19.5703C10.0547 19.8359 10.0469 20.1328 10.0625 23.9609L10.0859 28.0625L10.2734 28.2656L10.4609 28.4688H19.2813H28.0938V27.8047V27.1406H25.0859H22.0781V23.8203V20.5H26.7656H31.4531V22.4922V24.4844H32.125H32.7891L32.7656 22.0391L32.7422 19.5938L31.7031 18.2891C31.125 17.5703 30.625 16.9844 30.5781 16.9844C30.5156 16.9844 30.1328 17.2734 29.625 17.6953C29.5859 17.7266 29.7812 18.0312 30.0547 18.3672C30.3203 18.7031 30.5781 19.0234 30.6172 19.0703C30.6797 19.1484 29.7812 19.1719 26.2109 19.1719H21.7266L19.6563 16.5781C18.5156 15.1562 17.5781 13.9609 17.5625 13.9219C17.5469 13.8906 18.8516 13.8594 20.4688 13.8594H23.4063V13.1953V12.5312L19.6406 12.5391C17.5625 12.5391 15.8203 12.5625 15.7656 12.5859ZM18.0859 16.7344C19.1328 18.0391 19.9688 19.125 19.9453 19.1406C19.9297 19.1562 18.1719 19.1641 16.0391 19.1562L12.1641 19.1328L14.1172 16.6797C15.1953 15.3359 16.1016 14.2656 16.1328 14.2969C16.1719 14.3359 17.0469 15.4297 18.0859 16.7344ZM20.75 23.8203V27.1406H19.7344H18.7188V24.6875C18.7188 22.3906 18.7109 22.2266 18.5703 22.0547L18.4219 21.8672L16.1484 21.8438L13.8672 21.8203L13.6406 22.0547L13.4063 22.2812V24.7109V27.1406H12.4297H11.4531V23.8203V20.5H16.1016H20.75V23.8203ZM17.3906 25.1484V27.1406H16.0625H14.7344V25.1484V23.1562H16.0625H17.3906V25.1484Z" fill="#656567"/>
<path id="Vector_6" d="M39.8516 18.5469C39.7656 18.5781 34.9844 23.3281 29.2344 29.0859C19.125 39.1953 18.7656 39.5625 18.7656 39.8438C18.7656 40.0625 18.8203 40.1719 18.9844 40.3125L19.1953 40.5H29.7422H40.2969L40.5234 40.2734L40.75 40.0469V29.4922V18.9453L40.5781 18.75C40.375 18.5234 40.0781 18.4453 39.8516 18.5469ZM39.4219 29.9922V39.1719H30.2266H21.0234L30.2031 29.9922C35.25 24.9453 39.3906 20.8125 39.3984 20.8125C39.4141 20.8125 39.4219 24.9453 39.4219 29.9922Z" fill="#656567"/>
<path id="Vector_7" d="M35.9063 28.5236C35.7188 28.5861 28.875 35.4376 28.7891 35.6408C28.6875 35.8986 28.8906 36.3361 29.1563 36.4376C29.2891 36.4923 30.6172 36.5158 32.8672 36.5001L36.3672 36.4767L36.5469 36.297L36.7266 36.1173L36.75 32.7033C36.7656 30.8283 36.75 29.172 36.7266 29.0314C36.6641 28.6954 36.2109 28.4142 35.9063 28.5236ZM35.4375 33.0001V35.1876H33.2344H31.0234L33.2109 33.0001C34.4141 31.797 35.4063 30.8126 35.4141 30.8126C35.4297 30.8126 35.4375 31.797 35.4375 33.0001Z" fill="#656567"/>
<path id="Vector_8" d="M24.9688 22.0546L24.7344 22.2811V23.7811C24.7344 25.289 24.7656 25.4999 25.0391 25.7108C25.125 25.7811 25.625 25.8046 26.75 25.8124C28.875 25.8124 28.7188 25.9686 28.7188 23.8358C28.7188 21.6952 28.8906 21.8749 26.8125 21.8436L25.2031 21.8202L24.9688 22.0546ZM27.3906 23.8202V24.4843H26.7266H26.0625V23.8202V23.1561H26.7266H27.3906V23.8202Z" fill="#656567"/>
<path id="Vector_9" d="M7.44531 28.5234C7.41406 28.5469 7.39062 29.0234 7.39062 29.5781C7.39062 31.125 7.46875 31.2031 9.13281 31.2031H10.0469V30.5V29.7969H9.38281H8.71875V29.1328V28.4688H8.10938C7.77344 28.4688 7.46875 28.4922 7.44531 28.5234Z" fill="#656567"/>
</g>
</g>
<defs>
<clipPath id="clip0_53_3486">
<rect width="40" height="40" fill="white" transform="translate(0.75 0.5)"/>
</clipPath>
</defs>
</svg>
