<svg width="41" height="41" viewBox="0 0 41 41" fill="none" xmlns="http://www.w3.org/2000/svg">
<g id="brand-identity 1">
<g id="Group">
<path id="Vector" d="M11.5 3.10156C11.1172 3.22656 10.4609 3.89844 10.3438 4.29688C10.2734 4.53906 10.25 6.01562 10.25 10.0625V15.5H10.875H11.5V10.0703V4.63281L11.6953 4.44531L11.8828 4.25H22.125H32.3672L32.5547 4.44531L32.75 4.63281V16.9453V29.25H33.375H34V16.9375C34 7.64844 33.9766 4.54688 33.9062 4.3125C33.8594 4.14062 33.6641 3.82812 33.4766 3.625C32.8672 2.95312 33.7656 3 22.0938 3.00781C14.8047 3.01562 11.6953 3.03906 11.5 3.10156Z" fill="#656567"/>
<path id="Vector_2" d="M27.7891 5.86721C26.6328 6.36721 25.6719 6.78128 25.6641 6.78909C25.6328 6.81253 26.0391 7.7969 26.1016 7.86721C26.1484 7.91409 30.3281 6.21096 30.4688 6.08596C30.5078 6.05471 30.0391 5.00003 29.9688 4.9844C29.9297 4.96878 28.9531 5.37503 27.7891 5.86721Z" fill="#656567"/>
<path id="Vector_3" d="M21.3437 6.43733L19.5078 7.36702H17.5703L15.6328 7.37483L15.4453 7.57014C15.3359 7.6717 15.25 7.81233 15.25 7.88264C15.25 7.97639 15.1562 7.99983 14.8125 7.99983C14.1328 7.99983 13.7734 8.14045 13.3359 8.58577C12.5391 9.37483 12.5391 10.3748 13.3359 11.1639C13.7734 11.6092 14.1328 11.7498 14.8125 11.7498H15.25V12.8123C15.25 14.1405 15.3203 14.4061 15.8359 14.9139C16.6328 15.7186 17.7344 15.703 18.4766 14.8748C18.8984 14.4061 19 14.0701 19 13.1248V12.3748H19.2344C19.3828 12.3748 20.1953 12.7342 21.3437 13.3123C22.375 13.828 23.3047 14.2498 23.4141 14.2498C23.5234 14.2498 23.7031 14.1639 23.8047 14.0545L24 13.867V9.87483V5.88264L23.8047 5.69514C23.6953 5.57795 23.5312 5.49983 23.3984 5.50764C23.2812 5.50764 22.3516 5.92952 21.3437 6.43733ZM22.75 9.87483V12.6092L21.5 11.9842L20.25 11.3592V9.87483V8.39045L21.4844 7.77327C22.1562 7.42952 22.7187 7.14827 22.7344 7.14827C22.7422 7.14045 22.75 8.37483 22.75 9.87483ZM19 9.87483V11.1248H17.75H16.5V9.87483V8.62483H17.75H19V9.87483ZM15.25 9.87483V10.4998H14.8203C14.2969 10.4998 14 10.2733 14 9.87483C14 9.47639 14.2969 9.24983 14.8203 9.24983H15.25V9.87483ZM17.75 13.117C17.75 13.8045 17.7344 13.8826 17.5547 14.0545C17.4375 14.1795 17.2734 14.2498 17.125 14.2498C16.9766 14.2498 16.8125 14.1795 16.6953 14.0545C16.5156 13.8826 16.5 13.8045 16.5 13.117V12.3748H17.125H17.75V13.117Z" fill="#656567"/>
<path id="Vector_4" d="M26.5 9.875V10.5H29H31.5V9.875V9.25H29H26.5V9.875Z" fill="#656567"/>
<path id="Vector_5" d="M25.9844 12.1014C25.9297 12.2498 25.8203 12.4998 25.7578 12.6639C25.6953 12.8201 25.6484 12.9529 25.6562 12.9608C25.8828 13.1092 29.9766 14.7811 30.0234 14.742C30.0859 14.6717 30.4922 13.6873 30.4609 13.6639C30.4219 13.6248 26.1875 11.8279 26.1484 11.8279C26.125 11.8279 26.0469 11.9529 25.9844 12.1014Z" fill="#656567"/>
<path id="Vector_6" d="M4 16.8513C3.61719 16.9763 2.96094 17.6482 2.84375 18.0466C2.71094 18.5076 2.71094 27.492 2.84375 27.9529C2.96875 28.3826 3.61719 29.031 4.04687 29.156C4.28906 29.2263 6 29.2498 10.8906 29.2498C18.2969 29.2498 17.8828 29.281 18.4766 28.6248C18.6641 28.4216 18.8594 28.1091 18.9062 27.9373C19.0391 27.4998 19.0391 18.4998 18.9062 18.0623C18.8594 17.8904 18.6641 17.5779 18.4766 17.3748C17.8828 16.7107 18.3125 16.7498 10.8437 16.7576C6.28906 16.7654 4.1875 16.7888 4 16.8513ZM17.5547 18.1951L17.75 18.3826V22.9998V27.617L17.5547 27.8045L17.3672 27.9998H10.875H4.38281L4.19531 27.8045L4 27.617V22.9998V18.3826L4.19531 18.1951L4.38281 17.9998H10.875H17.3672L17.5547 18.1951Z" fill="#656567"/>
<path id="Vector_7" d="M8.57031 19.4453L8.375 19.6328V21.75V23.8672L8.57031 24.0547C8.67969 24.1719 8.84375 24.25 8.97656 24.25C9.09375 24.2422 10.1094 23.7812 11.2266 23.2109C13.4219 22.1016 13.5 22.0312 13.3281 21.5312C13.2656 21.3516 12.9531 21.1641 11.2266 20.2891C10.1094 19.7188 9.09375 19.2578 8.97656 19.25C8.84375 19.25 8.67969 19.3281 8.57031 19.4453ZM11.2656 21.75C11.2656 21.7734 10.8984 21.9766 10.4453 22.2031L9.625 22.6094V21.75V20.8906L10.4453 21.2969C10.8984 21.5234 11.2656 21.7266 11.2656 21.75Z" fill="#656567"/>
<path id="Vector_8" d="M5.25 26.125V26.75H9.625H14V26.125V25.5H9.625H5.25V26.125Z" fill="#656567"/>
<path id="Vector_9" d="M15.25 26.125V26.75H15.875H16.5V26.125V25.5H15.875H15.25V26.125Z" fill="#656567"/>
<path id="Vector_10" d="M20.4453 17.5703C20.25 17.7578 20.25 17.7734 20.25 19.25C20.25 20.7266 20.25 20.7422 20.4453 20.9297L20.6328 21.125H25.875H31.1172L31.3047 20.9297C31.5 20.7422 31.5 20.7266 31.5 19.25C31.5 17.7734 31.5 17.7578 31.3047 17.5703L31.1172 17.375H25.875H20.6328L20.4453 17.5703ZM30.25 19.25V19.875H25.875H21.5V19.25V18.625H25.875H30.25V19.25Z" fill="#656567"/>
<path id="Vector_11" d="M20.25 23V23.625H25.875H31.5V23V22.375H25.875H20.25V23Z" fill="#656567"/>
<path id="Vector_12" d="M20.25 25.5V26.125H25.875H31.5V25.5V24.875H25.875H20.25V25.5Z" fill="#656567"/>
<path id="Vector_13" d="M20.25 28V28.625H20.875H21.5V28V27.375H20.875H20.25V28Z" fill="#656567"/>
<path id="Vector_14" d="M22.75 28V28.625H23.375H24V28V27.375H23.375H22.75V28Z" fill="#656567"/>
<path id="Vector_15" d="M25.25 28V28.625H25.875H26.5V28V27.375H25.875H25.25V28Z" fill="#656567"/>
<path id="Vector_16" d="M27.75 28V28.625H28.375H29V28V27.375H28.375H27.75V28Z" fill="#656567"/>
<path id="Vector_17" d="M30.25 28V28.625H30.875H31.5V28V27.375H30.875H30.25V28Z" fill="#656567"/>
<path id="Vector_18" d="M8.00005 31.5623C7.03911 32.281 6.56255 32.6873 6.5313 32.8123C6.42973 33.2185 6.54692 33.3513 8.00005 34.4373C9.4063 35.492 9.42192 35.4998 9.83598 35.4998H10.25V35.9373C10.25 36.1795 10.2891 36.5232 10.3438 36.7029C10.4688 37.1326 11.1172 37.781 11.5469 37.906C11.7969 37.9763 14.3047 37.9998 22.1407 37.9998C33.7579 37.9998 32.8751 38.0467 33.4766 37.3748C33.8594 36.9451 34.0001 36.5701 34.0001 35.9373V35.4998H35.6797C37.3672 35.4998 37.3672 35.4998 37.5547 35.3045L37.7501 35.117V32.9998V30.8826L37.5547 30.6951L37.3672 30.4998H23.3907H9.41411L8.00005 31.5623ZM34.0001 32.9998V34.2498H21.9219H9.83598L9.0313 33.6482C8.58598 33.3123 8.22661 33.0154 8.23442 32.9842C8.25005 32.9529 8.60942 32.6638 9.03911 32.3435L9.82036 31.7576L21.9141 31.7498H34.0001V32.9998ZM36.5001 32.9998V34.2498H35.8751H35.2501V32.9998V31.7498H35.8751H36.5001V32.9998ZM32.7501 35.9295C32.7501 36.2888 32.7188 36.3982 32.5547 36.5545L32.3672 36.7498H22.125H11.8829L11.6954 36.5545C11.5313 36.3982 11.5 36.2888 11.5 35.9295V35.4998H22.125H32.7501V35.9295Z" fill="#656567"/>
</g>
</g>
</svg>
