<svg width="41" height="41" viewBox="0 0 41 41" fill="none" xmlns="http://www.w3.org/2000/svg">
<g id="coding 1">
<g id="Group">
<path id="Vector" d="M8.25 1.85156C7.86719 1.97656 7.21094 2.64844 7.09375 3.04688C7.02344 3.29688 7 5.79688 7 13.6172V23.8672L7.19531 24.0547C7.44531 24.3125 7.80469 24.3125 8.05469 24.0547L8.25 23.8672V15.9297V8H20.75H33.25V15.9297V23.8672L33.4453 24.0547C33.6953 24.3125 34.0547 24.3125 34.3047 24.0547L34.5 23.8672V13.6172C34.5 5.79688 34.4766 3.29688 34.4062 3.04688C34.2812 2.61719 33.6328 1.96875 33.2031 1.84375C32.7656 1.71875 8.66406 1.71875 8.25 1.85156ZM33.0547 3.19531C33.25 3.38281 33.25 3.38281 33.25 5.07031V6.75H20.75H8.25V5.07031C8.25 3.38281 8.25 3.38281 8.44531 3.19531L8.63281 3H20.75H32.8672L33.0547 3.19531Z" fill="#656567"/>
<path id="Vector_2" d="M9.69532 4.44531C9.30469 4.82812 9.57813 5.5 10.125 5.5C10.4453 5.5 10.75 5.19531 10.75 4.875C10.75 4.55469 10.4453 4.25 10.125 4.25C9.97657 4.25 9.81251 4.32031 9.69532 4.44531Z" fill="#656567"/>
<path id="Vector_3" d="M12.1953 4.44531C11.8047 4.82812 12.0781 5.5 12.625 5.5C12.9453 5.5 13.25 5.19531 13.25 4.875C13.25 4.55469 12.9453 4.25 12.625 4.25C12.4766 4.25 12.3125 4.32031 12.1953 4.44531Z" fill="#656567"/>
<path id="Vector_4" d="M14.6953 4.44531C14.3047 4.82812 14.5781 5.5 15.125 5.5C15.4453 5.5 15.75 5.19531 15.75 4.875C15.75 4.55469 15.4453 4.25 15.125 4.25C14.9766 4.25 14.8125 4.32031 14.6953 4.44531Z" fill="#656567"/>
<path id="Vector_5" d="M23.4453 4.44531C23.3203 4.5625 23.25 4.72656 23.25 4.875C23.25 5.02344 23.3203 5.1875 23.4453 5.30469L23.6328 5.5H27.6094C31.3984 5.5 31.6016 5.49219 31.7734 5.35156C32.0312 5.14062 32.0312 4.60938 31.7734 4.39844C31.6016 4.25781 31.3984 4.25 27.6094 4.25H23.6328L23.4453 4.44531Z" fill="#656567"/>
<path id="Vector_6" d="M3.25002 5.60156C2.86721 5.72656 2.21096 6.39844 2.09377 6.79688C1.96096 7.25 1.95315 29.9844 2.09377 30.4297C2.21877 30.8594 2.66408 31.3516 3.12502 31.5625L3.52346 31.75H20.75H37.9766L38.375 31.5625C38.836 31.3516 39.2813 30.8594 39.4063 30.4297C39.5469 29.9844 39.5391 7.25 39.4063 6.79688C39.2813 6.36719 38.6328 5.71875 38.2031 5.59375C38.0235 5.53906 37.4844 5.5 37.0078 5.5C36.1875 5.5 36.125 5.50781 35.9453 5.69531C35.6875 5.94531 35.6875 6.30469 35.9453 6.55469C36.125 6.74219 36.1875 6.75 37 6.75C37.8125 6.75 37.875 6.75781 38.0547 6.94531L38.25 7.13281V16.3203V25.5H20.75H3.25002V16.3203V7.13281L3.44533 6.94531C3.62502 6.75781 3.68752 6.75 4.50002 6.75C5.31252 6.75 5.37502 6.74219 5.55471 6.55469C5.81252 6.30469 5.81252 5.94531 5.55471 5.69531C5.37502 5.50781 5.32815 5.5 4.44533 5.50781C3.93752 5.51562 3.39846 5.55469 3.25002 5.60156ZM38.25 28.4297C38.25 30.1172 38.25 30.1172 38.0547 30.3047L37.8672 30.5H20.75H3.63283L3.44533 30.3047C3.25002 30.1172 3.25002 30.1172 3.25002 28.4297V26.75H20.75H38.25V28.4297Z" fill="#656567"/>
<path id="Vector_7" d="M19.2109 28.0937C19.1172 28.1406 19 28.2734 18.9453 28.3984C18.8281 28.6875 18.9766 29.0781 19.2422 29.1797C19.5 29.2734 22.2031 29.2734 22.3906 29.1718C22.5859 29.0703 22.7109 28.664 22.625 28.4375C22.4766 28.039 22.3125 28 20.7891 28.0078C19.9766 28.0078 19.3125 28.0468 19.2109 28.0937Z" fill="#656567"/>
<path id="Vector_8" d="M22.2422 10.6327C22.1172 10.7343 21.5703 12.3046 20.1641 16.5155C19.1094 19.6718 18.25 22.3359 18.25 22.4374C18.25 22.8827 18.8984 23.1562 19.2578 22.8593C19.3828 22.7655 19.9297 21.1952 21.3359 16.9843C22.3906 13.828 23.25 11.164 23.25 11.0624C23.25 10.6171 22.6016 10.3437 22.2422 10.6327Z" fill="#656567"/>
<path id="Vector_9" d="M13.5078 14.6797C12.3828 15.625 11.4609 16.4453 11.4219 16.5547C11.375 16.6797 11.375 16.8203 11.4219 16.9453C11.4609 17.0547 12.3672 17.8672 13.5078 18.8203C15.2266 20.2422 15.5703 20.5 15.7812 20.5C16.125 20.5 16.375 20.2266 16.375 19.8594C16.375 19.5859 16.3125 19.5234 14.7187 18.1953C13.8047 17.4297 13.0547 16.7812 13.0547 16.75C13.0547 16.7188 13.7422 16.125 14.5781 15.4297C15.4141 14.7344 16.1641 14.0938 16.2422 14C16.4375 13.7734 16.4141 13.4219 16.1797 13.1953C15.7891 12.7969 15.6953 12.8516 13.5078 14.6797Z" fill="#656567"/>
<path id="Vector_10" d="M25.3203 13.1951C25.1094 13.3982 25.0625 13.7498 25.2266 13.9529C25.2735 14.0232 26.0235 14.6639 26.8828 15.3826C27.7422 16.0935 28.4453 16.7107 28.4453 16.7498C28.4453 16.7889 27.7422 17.406 26.8828 18.117C26.0235 18.8357 25.2735 19.4764 25.2266 19.5467C25.0625 19.7498 25.1094 20.1014 25.3203 20.3045C25.7031 20.6951 25.7969 20.6482 28.0156 18.8123C29.3125 17.7342 30.0703 17.0467 30.0938 16.9373C30.125 16.8357 30.125 16.6639 30.0938 16.5701C30.0703 16.4529 29.3047 15.7654 28.0156 14.6951C25.7969 12.8514 25.711 12.7967 25.3203 13.1951Z" fill="#656567"/>
<path id="Vector_11" d="M16.9141 33.0703C16.8047 33.1562 16.5781 33.4609 16.4062 33.75C16.2422 34.0391 15.8438 34.5547 15.5234 34.8906L14.9531 35.5H14.2891C13.9219 35.5 13.4844 35.5391 13.3203 35.5938C12.8906 35.7188 12.3984 36.1641 12.1875 36.625C12.0234 36.9688 12 37.1406 12 37.9453C12 38.8203 12.0078 38.875 12.1953 39.0547L12.3828 39.25H20.75H29.1172L29.3047 39.0547C29.4922 38.875 29.5 38.8125 29.5 37.9922C29.5 36.8672 29.4141 36.5781 28.9141 36.0859C28.4453 35.6094 28.125 35.5 27.2422 35.5H26.6016L26.2031 35.125C25.7344 34.6953 25.2109 34.0234 24.9844 33.5859C24.7734 33.1641 24.5469 32.9766 24.25 32.9766C23.9766 32.9766 23.6406 33.2891 23.6406 33.5547C23.6406 33.7812 23.9766 34.4062 24.4141 34.9844L24.8047 35.5H20.75H16.6953L17.0859 34.9844C17.5234 34.4062 17.8594 33.7812 17.8594 33.5547C17.8594 33.3438 17.5547 33.0156 17.3125 32.9609C17.1719 32.9297 17.0469 32.9609 16.9141 33.0703ZM28.0547 36.9453C28.2188 37.1016 28.25 37.2109 28.25 37.5703V38H20.75H13.25V37.5703C13.25 37.2109 13.2812 37.1016 13.4453 36.9453L13.6328 36.75H20.75H27.8672L28.0547 36.9453Z" fill="#656567"/>
</g>
</g>
</svg>
