<svg width="41" height="41" viewBox="0 0 41 41" fill="none" xmlns="http://www.w3.org/2000/svg">
<g id="interior-design 1" clip-path="url(#clip0_237_948)">
<g id="Group">
<path id="Vector" d="M27.0156 3.92969C26.9375 4.01562 26.8594 4.26562 26.8359 4.51562L26.7891 4.95312H26.3828C25.8984 4.95312 25.7188 5.10156 25.7188 5.51562C25.7188 5.875 25.9141 6.03906 26.3984 6.10156L26.7969 6.14062L26.8359 6.53906C26.8984 7.03125 27.0625 7.21875 27.4375 7.21875C27.8125 7.21875 27.9766 7.03125 28.0391 6.53906L28.0781 6.14062L28.4766 6.10156C28.9688 6.03906 29.1562 5.875 29.1562 5.5C29.1562 5.10156 28.9688 4.95312 28.4766 4.95312H28.0859L28.0391 4.51562C27.9844 3.97656 27.8281 3.78125 27.4375 3.78125C27.25 3.78125 27.1016 3.83594 27.0156 3.92969Z" fill="#656567"/>
<path id="Vector_2" d="M8.48438 6.67969C8.34375 6.83594 8.33594 7.01562 8.33594 10.6641V14.4766L8.51562 14.6562L8.69531 14.8359H15.5625H22.4297L22.6094 14.6562L22.7891 14.4766V10.6641C22.7891 7.01562 22.7812 6.83594 22.6406 6.67969C22.4922 6.51562 22.4766 6.51562 17.5 6.51562C12.6172 6.51562 12.5156 6.51562 12.3594 6.67188C12.1875 6.84375 12.1562 7.14062 12.2812 7.375C12.4375 7.67188 12.7188 7.6875 17.2109 7.6875H21.5781V10.6953V13.7031H15.5625H9.54688V10.7031V7.71094L10.0234 7.66406C10.6016 7.61719 10.7969 7.46094 10.7969 7.0625C10.7969 6.57812 10.6562 6.51562 9.57031 6.51562C8.71875 6.51562 8.61719 6.53125 8.48438 6.67969Z" fill="#656567"/>
<path id="Vector_3" d="M31.0469 8.60938C30.8594 8.79688 29.2656 16.7031 29.3437 17.0234C29.4375 17.3984 29.7422 17.4531 31.6172 17.4531H33.2969V24.4375V31.4219L32.2265 31.4531C31.2422 31.4766 31.125 31.4922 30.8906 31.6563C30.5 31.9375 30.375 32.25 30.3281 33.0391L30.289 33.7422L28.5547 33.7656L26.8125 33.7813V33.2109V32.6328L27.4687 32.5938C28.1484 32.5469 28.3594 32.4609 28.5937 32.125C28.7109 31.9688 28.7265 31.5703 28.75 28.6641C28.7656 26.8594 28.75 25.1953 28.7265 24.9766C28.6875 24.6641 28.6172 24.5078 28.4453 24.3281C28.2187 24.1094 28.1719 24.0938 27.5859 24.0938H26.9687V22.5859C26.9609 20.2656 26.8515 19.7656 26.1719 19.125C25.4687 18.4453 26.5156 18.5078 15.6406 18.5078H5.99218L5.67968 18.6797C5.31249 18.875 4.77343 19.4219 4.59374 19.7734C4.39843 20.1563 4.30468 21.0078 4.41405 21.3438C4.52343 21.6797 4.81249 21.8203 5.15624 21.7031C5.39843 21.6172 5.55468 21.2656 5.55468 20.7734C5.56249 20.3906 5.78905 20 6.12499 19.7969C6.37499 19.6406 6.53905 19.6406 15.6406 19.6406C24.7422 19.6406 24.9062 19.6406 25.1562 19.7969C25.2969 19.8828 25.4765 20.0625 25.5625 20.2031C25.7031 20.4375 25.7187 20.6016 25.7187 22.2734V24.0938H25.3359C25.0156 24.0938 24.914 24.1328 24.7187 24.3203C24.4297 24.6172 24.3906 24.8438 24.3906 26.4922V27.8438H23.4297C22.3359 27.8438 22.2031 27.9063 22.2031 28.4063C22.2031 28.8828 22.3906 28.9688 23.4609 29.0078L24.3906 29.0313V30.2344V31.4375H15.6406H6.89061V30.2266V29.0156L13.6797 29C20.2266 28.9766 20.4766 28.9688 20.6328 28.8281C20.8437 28.6328 20.8594 28.1563 20.6562 27.9766C20.5234 27.8516 19.9297 27.8438 13.7031 27.8438H6.89061V26.4922C6.89061 24.8438 6.85155 24.6172 6.56249 24.3203C6.37499 24.1328 6.26561 24.0938 5.96093 24.0938H5.58593L5.53124 23.7656C5.46093 23.3281 5.29687 23.1563 4.93749 23.1563C4.57812 23.1563 4.41405 23.3281 4.34374 23.7656L4.28905 24.0938H3.67968C3.10937 24.0938 3.06249 24.1094 2.83593 24.3281C2.66405 24.5078 2.59374 24.6641 2.55468 24.9766C2.53124 25.1953 2.51562 26.8594 2.53124 28.6641C2.55468 31.5703 2.5703 31.9688 2.68749 32.125C2.92187 32.4609 3.1328 32.5469 3.81249 32.5938L4.46874 32.6328V33.2031V33.7813H2.51562C0.031241 33.7813 0.249991 33.6172 0.249991 35.4922C0.257804 36.9688 0.281241 37.0625 0.671866 37.2188C0.968741 37.3281 39.5312 37.3281 39.8281 37.2188C40.2187 37.0625 40.2422 36.9688 40.25 35.4922C40.25 33.6719 40.3516 33.7813 38.6953 33.7813H37.4531L37.4219 33.0469C37.3984 32.4297 37.3594 32.2734 37.2031 32.0391C36.875 31.5547 36.6562 31.4844 35.5234 31.4375L34.5078 31.3984L34.4844 24.4219L34.4687 17.4531L36.0469 17.4453C36.9219 17.4375 37.7187 17.4141 37.8203 17.3828C37.9219 17.3594 38.0781 17.2422 38.1562 17.1328L38.3125 16.9297L37.4922 12.8516C36.8984 9.89063 36.6406 8.73438 36.5391 8.625C36.4062 8.47656 36.2969 8.46875 33.7891 8.46875C31.375 8.46875 31.1797 8.47656 31.0469 8.60938ZM36.3203 12.8828C36.6719 14.6406 36.9609 16.1328 36.9687 16.1797C36.9687 16.2578 36.2891 16.2813 33.8047 16.2813C30.8437 16.2813 30.6406 16.2734 30.6406 16.1406C30.6406 16.0703 30.9297 14.5781 31.2812 12.8203L31.914 9.64063L33.7969 9.65625L35.6719 9.67969L36.3203 12.8828ZM5.64062 28.3516V31.4375H4.70312H3.76562V28.3516V25.2656H4.70312H5.64062V28.3516ZM27.5156 28.3516V31.4375H26.5781H25.6406V28.3516V25.2656H26.5781H27.5156V28.3516ZM25.5625 33.1953V33.7813H15.6406H5.71874V33.1953V32.6094H15.6406H25.5625V33.1953ZM36.2266 33.1953V33.7422L33.8672 33.7656L31.5 33.7813V33.1953V32.6094L33.8672 32.625L36.2266 32.6484V33.1953ZM39.0781 35.5391V36.125H20.25H1.42187V35.5391V34.9531H20.25H39.0781V35.5391Z" fill="#656567"/>
<path id="Vector_4" d="M3.63281 13.5469C3.39844 13.6406 3.29688 13.8672 3.29688 14.2734V14.625L2.85156 14.6563C2.35938 14.7031 2.125 14.8906 2.125 15.2578C2.125 15.625 2.29688 15.7656 2.80469 15.8125L3.25781 15.8516L3.29688 16.3047C3.34375 16.8281 3.48438 16.9844 3.89062 16.9844C4.25 16.9844 4.46875 16.6875 4.46875 16.1953V15.8125H4.89062C5.25781 15.8125 5.33594 15.7813 5.47656 15.6094C5.69531 15.3281 5.67969 15.1406 5.41406 14.8672C5.22656 14.6797 5.11719 14.6406 4.82812 14.6406H4.46875V14.2813C4.46875 13.9922 4.42969 13.8828 4.24219 13.6953C4 13.4531 3.91406 13.4375 3.63281 13.5469Z" fill="#656567"/>
<path id="Vector_5" d="M36.7422 21.4061C36.625 21.5546 36.5781 21.7265 36.5781 21.9921V22.3749H36.1562C35.7891 22.3749 35.7109 22.4061 35.5703 22.578C35.3594 22.8436 35.3672 23.0233 35.5859 23.2811C35.7266 23.4452 35.8594 23.4999 36.1719 23.5311L36.5781 23.5702V23.9061C36.5781 24.5546 37.1797 24.8983 37.5937 24.4843C37.7109 24.3671 37.75 24.2265 37.75 23.9374V23.5468H38.0156C38.5859 23.5468 38.9219 23.3124 38.9219 22.9061C38.9219 22.5624 38.7422 22.4218 38.2422 22.3749L37.7891 22.3358L37.75 21.8827C37.7031 21.3593 37.5625 21.203 37.1562 21.203C36.9766 21.203 36.8516 21.2655 36.7422 21.4061Z" fill="#656567"/>
<path id="Vector_6" d="M9.75781 22.2188C9.63281 22.3203 9.53906 22.4922 9.50781 22.6875C9.46094 22.9609 9.42969 23 9.23438 23C8.89844 23 8.60938 23.2734 8.60938 23.5938C8.60938 23.9453 8.83594 24.1719 9.1875 24.1719C9.4375 24.1719 9.46094 24.1875 9.50781 24.4922C9.57812 24.8906 9.78906 25.1094 10.0938 25.1094C10.3984 25.1094 10.6094 24.8906 10.6797 24.4922C10.7266 24.1875 10.75 24.1719 11 24.1719C11.3516 24.1719 11.5781 23.9453 11.5781 23.5938C11.5781 23.2734 11.2891 23 10.9531 23C10.7578 23 10.7266 22.9609 10.6797 22.6875C10.625 22.3594 10.3438 22.0625 10.0938 22.0625C10.0156 22.0625 9.86719 22.1328 9.75781 22.2188Z" fill="#656567"/>
<path id="Vector_7" d="M15.3047 22.2188C15.1797 22.3203 15.0859 22.4922 15.0547 22.6875C15.0078 22.9609 14.9766 23 14.7812 23C14.4453 23 14.1562 23.2734 14.1562 23.5938C14.1562 23.9453 14.3828 24.1719 14.7344 24.1719C14.9844 24.1719 15.0078 24.1875 15.0547 24.4922C15.125 24.8906 15.3359 25.1094 15.6406 25.1094C15.9453 25.1094 16.1562 24.8906 16.2266 24.4922C16.2734 24.1875 16.2969 24.1719 16.5469 24.1719C16.8984 24.1719 17.125 23.9453 17.125 23.5938C17.125 23.2734 16.8359 23 16.5 23C16.3047 23 16.2734 22.9609 16.2266 22.6875C16.1719 22.3594 15.8906 22.0625 15.6406 22.0625C15.5625 22.0625 15.4141 22.1328 15.3047 22.2188Z" fill="#656567"/>
<path id="Vector_8" d="M20.8516 22.2188C20.7266 22.3203 20.6328 22.4922 20.6016 22.6875C20.5547 22.9609 20.5234 23 20.3281 23C19.9922 23 19.7031 23.2734 19.7031 23.5938C19.7031 23.9453 19.9297 24.1719 20.2812 24.1719C20.5312 24.1719 20.5547 24.1875 20.6016 24.4922C20.6719 24.8906 20.8828 25.1094 21.1875 25.1094C21.4922 25.1094 21.7031 24.8906 21.7734 24.4922C21.8203 24.1875 21.8438 24.1719 22.0938 24.1719C22.4453 24.1719 22.6719 23.9453 22.6719 23.5938C22.6719 23.2734 22.3828 23 22.0469 23C21.8516 23 21.8203 22.9609 21.7734 22.6875C21.7188 22.3594 21.4375 22.0625 21.1875 22.0625C21.1094 22.0625 20.9609 22.1328 20.8516 22.2188Z" fill="#656567"/>
</g>
</g>
<defs>
<clipPath id="clip0_237_948">
<rect width="40" height="40" fill="white" transform="translate(0.25 0.5)"/>
</clipPath>
</defs>
</svg>
