<svg width="41" height="41" viewBox="0 0 41 41" fill="none" xmlns="http://www.w3.org/2000/svg">
<g id="3d-model 1" clip-path="url(#clip0_98_1640)">
<g id="Group">
<path id="Vector" d="M20.3515 0.882629C20.2031 0.999817 20.164 1.117 20.1406 1.53888C20.1094 2.00763 20.125 2.07013 20.3047 2.24982C20.5625 2.50763 20.8984 2.51544 21.125 2.27325C21.2656 2.12482 21.2969 1.99982 21.2969 1.57794C21.2969 1.10919 21.2734 1.03888 21.0937 0.898254C20.8359 0.695129 20.5859 0.687317 20.3515 0.882629Z" fill="#656567"/>
<path id="Vector_2" d="M20.4687 3.32815C20.2578 3.4219 20.125 3.70315 20.125 4.03909C20.1172 4.28909 20.0937 4.30471 12.6484 8.58596C8.53906 10.9453 5.11718 12.9532 5.03124 13.0313C4.89843 13.1797 4.89062 13.5469 4.89062 21.9844C4.89062 30.6875 4.89062 30.7891 4.73437 30.9297C4.52343 31.1172 4.53124 31.5469 4.74218 31.7578C4.87499 31.8907 4.96874 31.9141 5.18749 31.875C5.35156 31.8516 5.51562 31.8203 5.56249 31.8125C5.60937 31.8047 9.00781 33.7422 13.1094 36.1094C17.2187 38.4844 20.6328 40.4219 20.7031 40.4219C20.8906 40.4219 20.5625 40.6016 28.5156 36.0157L35.75 31.836L36.0391 31.9532C36.375 32.0938 36.6094 32.0235 36.8047 31.7266C36.9453 31.5157 36.8984 31.1953 36.7187 31.0391C36.625 30.961 36.6094 29.6016 36.6094 22.1875C36.6016 15.3594 36.5781 13.3828 36.5078 13.2032C36.4219 13.0078 35.2344 12.2969 28.875 8.61721L21.3359 4.27346L21.3125 3.91409C21.2734 3.37503 20.8984 3.11721 20.4687 3.32815ZM28.1562 9.56253C31.7734 11.6485 34.7187 13.375 34.7109 13.4063C34.6953 13.4766 27.5547 17.6094 27.4609 17.6094C27.4141 17.6094 25.5312 16.5313 21.9453 14.4532C21.3984 14.1407 21.2969 14.0469 21.2969 13.875C21.2969 13.7657 21.2187 13.5938 21.125 13.4922C20.7969 13.1407 20.2422 13.3438 20.1328 13.8594C20.0859 14.1172 19.9687 14.1953 16.8125 16.0157C15.0156 17.0469 13.5156 17.9453 13.4766 18.0078C13.4375 18.0703 13.4062 19.8438 13.4062 21.961V25.8047L13.1328 25.9375C12.8203 26.086 12.5469 26.3907 12.5469 26.5938C12.5469 26.6719 12.6172 26.8203 12.7109 26.9375C12.9141 27.1875 13.2344 27.2032 13.6406 26.9766L13.9297 26.8125L17.0312 28.5938L20.125 30.3828V34.586V38.7891L19.6719 38.5313C19.4219 38.3907 16.2578 36.5703 12.6406 34.4844L6.07031 30.6953L6.06249 22.5782C6.06249 15.7813 6.07812 14.4766 6.17187 14.5078C6.22656 14.5313 7.28906 15.1407 8.53124 15.8594C11.5078 17.5782 11.3281 17.4922 11.6016 17.375C12.0781 17.1797 12.1094 16.6641 11.6641 16.336C11.5312 16.2266 10.3516 15.5313 9.05468 14.7891C7.74999 14.0469 6.71874 13.4063 6.74999 13.375C6.78906 13.336 9.93749 11.5078 13.7656 9.2969L20.7109 5.28909L21.1484 5.53128C21.3906 5.66409 24.5391 7.47659 28.1562 9.56253ZM35.3594 22.5938V30.6953L28.3984 34.7188C24.5703 36.9297 21.4062 38.7578 21.3672 38.7657C21.3281 38.7813 21.3047 37.0391 21.3125 34.586L21.3359 30.3828L24.4062 28.6094L27.4766 26.836L27.7266 26.9844C28.0859 27.211 28.4375 27.1875 28.6328 26.9375C28.7266 26.8203 28.7969 26.6641 28.7969 26.586C28.7969 26.4141 28.4453 25.9922 28.25 25.9297C28.1016 25.8828 28.0937 25.7813 28.0937 22.2578V18.6407L28.8594 18.2032C29.2734 17.961 30.8828 17.0235 32.4297 16.125C33.9766 15.2344 35.2656 14.4922 35.3047 14.4922C35.3359 14.4844 35.3594 18.1328 35.3594 22.5938ZM20.125 17.4922V19.4922L20.3203 19.6797C20.5547 19.9141 20.8203 19.9297 21.0937 19.711L21.2969 19.5547V17.5235C21.2969 16.4141 21.3203 15.5 21.3594 15.5C21.3906 15.5078 22.6484 16.2188 24.1484 17.086L26.8828 18.6719L26.9062 22.2344L26.9219 25.7969L23.8984 27.5391C22.2344 28.5 20.8281 29.2969 20.7734 29.3125C20.6719 29.3438 15.2031 26.2188 15.2031 26.1328C15.2031 26.0938 20.4609 23.0235 20.6797 22.9375C20.7187 22.9219 21.6016 23.4063 22.6484 24.0078C23.9766 24.7735 24.625 25.1094 24.7969 25.1094C25.2187 25.1094 25.5078 24.5547 25.2656 24.2266C25.1016 24.0078 20.9687 21.6641 20.7422 21.6563C20.6016 21.6485 19.5391 22.2188 17.6016 23.3438C15.9922 24.2735 14.6562 25.0313 14.625 25.0313C14.6016 25.0313 14.5781 23.6016 14.5781 21.8438V18.6641L17.2969 17.086C18.7891 16.2266 20.0312 15.5078 20.0703 15.5078C20.1016 15.5 20.125 16.3985 20.125 17.4922Z" fill="#656567"/>
<path id="Vector_3" d="M20.4687 5.82035C20.1015 6.00785 19.9922 6.86722 20.289 7.25004C20.4922 7.50785 20.9062 7.53129 21.1406 7.29691C21.3515 7.08597 21.3672 6.2266 21.164 5.98441C20.9922 5.78129 20.6875 5.71097 20.4687 5.82035Z" fill="#656567"/>
<path id="Vector_4" d="M20.2891 8.51542C20.0469 8.82011 20.0625 9.47636 20.3047 9.76542C20.5469 10.0389 20.9453 10.0623 21.1562 9.80449C21.3672 9.53886 21.3594 8.6873 21.1406 8.46855C20.9062 8.23417 20.4922 8.25761 20.2891 8.51542Z" fill="#656567"/>
<path id="Vector_5" d="M20.2891 11.0154C20.1719 11.1639 20.125 11.3357 20.125 11.6014C20.125 12.0623 20.2422 12.3279 20.4922 12.4451C20.7578 12.5701 20.8594 12.5545 21.0938 12.367C21.2812 12.2185 21.2969 12.156 21.2969 11.6639C21.2969 11.2264 21.2656 11.0935 21.1406 10.9685C20.9062 10.7342 20.4922 10.7576 20.2891 11.0154Z" fill="#656567"/>
<path id="Vector_6" d="M11.1406 27.1014C10.7031 27.3514 10.5937 27.492 10.5937 27.8045C10.5937 28.2732 11.0469 28.4842 11.5312 28.2342C11.9687 28.0076 12.1562 27.8045 12.1562 27.5389C12.1562 27.0076 11.6797 26.7967 11.1406 27.1014Z" fill="#656567"/>
<path id="Vector_7" d="M8.99218 28.3749C8.60156 28.6483 8.48437 28.9452 8.64843 29.2342C8.83593 29.5702 9.13281 29.6327 9.53906 29.4139C9.98437 29.1795 10.1484 28.9842 10.1484 28.703C10.1484 28.1483 9.5625 27.9842 8.99218 28.3749Z" fill="#656567"/>
<path id="Vector_8" d="M7.04687 29.5236C6.51562 29.8439 6.40624 30.3439 6.78906 30.6174C7.03124 30.7893 7.28124 30.758 7.67187 30.5314C8.20312 30.2189 8.30468 29.9143 8.00781 29.5314C7.80468 29.2736 7.46093 29.2658 7.04687 29.5236Z" fill="#656567"/>
<path id="Vector_9" d="M29.3594 27.1638C29.0078 27.5388 29.2109 27.9685 29.8906 28.2732C30.2812 28.4529 30.5859 28.3748 30.7344 28.0623C30.8906 27.7342 30.7734 27.4685 30.375 27.2107C29.9375 26.9295 29.5859 26.9138 29.3594 27.1638Z" fill="#656567"/>
<path id="Vector_10" d="M31.414 28.3518C31.0469 28.7111 31.2265 29.1486 31.875 29.469C32.1875 29.633 32.2578 29.6408 32.4453 29.5471C32.7578 29.3986 32.914 29.0861 32.7969 28.8283C32.6875 28.5861 32.0469 28.1565 31.789 28.1565C31.6875 28.1565 31.5156 28.2424 31.414 28.3518Z" fill="#656567"/>
<path id="Vector_11" d="M33.4219 29.586C33.1016 29.9298 33.2187 30.297 33.75 30.6095C34.2734 30.9141 34.6641 30.8516 34.8203 30.4454C34.9375 30.1407 34.7734 29.836 34.3828 29.6016C33.9531 29.3595 33.6406 29.3516 33.4219 29.586Z" fill="#656567"/>
<path id="Vector_12" d="M3.08593 31.8748C2.55468 32.1717 2.42187 32.5076 2.71093 32.8748C2.92968 33.1483 3.27343 33.1405 3.73437 32.8514C4.14843 32.5936 4.25 32.328 4.07812 31.992C3.875 31.6092 3.61718 31.578 3.08593 31.8748Z" fill="#656567"/>
<path id="Vector_13" d="M37.4844 32.0078C37.1641 32.3516 37.2812 32.7266 37.8125 33.0391C38.3281 33.3359 38.7266 33.2734 38.8828 32.8672C39 32.5625 38.8516 32.2891 38.4375 32.0391C38.0078 31.7813 37.7109 31.7656 37.4844 32.0078Z" fill="#656567"/>
<path id="Vector_14" d="M1.20312 32.9998C0.718742 33.2654 0.609367 33.6482 0.945304 33.9764C1.16405 34.2029 1.45312 34.2264 1.74999 34.0389C2.17968 33.7654 2.28124 33.3982 2.02343 33.0935C1.8203 32.8514 1.53905 32.8201 1.20312 32.9998Z" fill="#656567"/>
<path id="Vector_15" d="M39.6797 33.078C39.2578 33.2498 39.2344 33.7576 39.6328 34.0858C39.9922 34.3826 40.2969 34.3983 40.5547 34.1326C40.8984 33.7967 40.7656 33.367 40.25 33.1248C39.9531 32.9842 39.9219 32.9842 39.6797 33.078Z" fill="#656567"/>
</g>
</g>
<defs>
<clipPath id="clip0_98_1640">
<rect width="40" height="40" fill="white" transform="translate(0.75 0.5)"/>
</clipPath>
</defs>
</svg>
