<svg width="41" height="41" viewBox="0 0 41 41" fill="none" xmlns="http://www.w3.org/2000/svg">
<g id="research-and-development 1" clip-path="url(#clip0_98_1667)">
<g id="Group">
<path id="Vector" d="M27.9453 0.695312C27.7578 0.875 27.75 0.9375 27.75 1.75C27.75 2.5625 27.7578 2.625 27.9453 2.80469C28.0625 2.92969 28.2266 3 28.375 3C28.5234 3 28.6875 2.92969 28.8047 2.80469C28.9922 2.625 29 2.5625 29 1.75C29 0.9375 28.9922 0.875 28.8047 0.695312C28.6875 0.570312 28.5234 0.5 28.375 0.5C28.2266 0.5 28.0625 0.570312 27.9453 0.695312Z" fill="#656567"/>
<path id="Vector_2" d="M24.1953 1.32051C24.0859 1.42207 24 1.60176 24 1.71114C24 1.98457 24.7422 3.44551 24.9297 3.54707C25.3281 3.75801 25.875 3.46114 25.875 3.03926C25.875 2.76582 25.1328 1.30489 24.9453 1.20332C24.6875 1.07051 24.3906 1.11739 24.1953 1.32051Z" fill="#656567"/>
<path id="Vector_3" d="M31.7891 1.21114C31.6094 1.3127 30.875 2.78145 30.875 3.03926C30.875 3.46114 31.4219 3.75801 31.8203 3.54707C32.0078 3.44551 32.75 1.98457 32.75 1.71114C32.75 1.28145 32.1797 0.984574 31.7891 1.21114Z" fill="#656567"/>
<path id="Vector_4" d="M21.6953 3.82031C21.4922 4.01562 21.4453 4.3125 21.5781 4.57031C21.6797 4.75781 23.1406 5.5 23.4141 5.5C23.8359 5.5 24.1328 4.95312 23.9219 4.55469C23.8203 4.36719 22.3594 3.625 22.0859 3.625C21.9766 3.625 21.7969 3.71094 21.6953 3.82031Z" fill="#656567"/>
<path id="Vector_5" d="M33.6719 4.01562C32.8984 4.41406 32.75 4.55469 32.75 4.91406C32.75 5.17188 33.0781 5.5 33.3359 5.5C33.6094 5.5 35.0703 4.75781 35.1719 4.57031C35.3828 4.16406 35.0859 3.61719 34.6484 3.63281C34.5312 3.63281 34.0859 3.80469 33.6719 4.01562Z" fill="#656567"/>
<path id="Vector_6" d="M27.1875 4.36719C25.9766 4.61719 24.9766 5.35938 24.4844 6.35938C24.2031 6.92969 23.9688 8.03125 24.0234 8.50781C24.0391 8.67969 24.4688 9.92969 24.9688 11.2812C25.7734 13.4687 25.875 13.8047 25.875 14.2422C25.875 14.7187 25.8672 14.7344 25.7031 14.6875C24.5781 14.3594 24.1719 14.3125 22.1484 14.2734L20.1094 14.2344L20.0547 13.9531C19.9922 13.6094 19.5234 12.4219 19.3203 12.1016L19.1719 11.8672L20.0234 11C21.1875 9.82031 21.1953 9.92969 19.7578 8.49219C18.3203 7.05469 18.4297 7.0625 17.2656 8.21875L16.4141 9.05469L15.7422 8.72656C15.3672 8.54687 14.8203 8.33594 14.5312 8.25781L14 8.125V7C14 5.92188 13.9922 5.875 13.8047 5.69531C13.6172 5.5 13.6016 5.5 12.125 5.5C10.6484 5.5 10.6328 5.5 10.4453 5.69531C10.2578 5.875 10.25 5.92188 10.25 7.00781V8.14062L9.96094 8.19531C9.60938 8.25781 8.42188 8.72656 8.10156 8.92969L7.86719 9.07812L7 8.22656C5.82031 7.0625 5.92969 7.05469 4.49219 8.49219C3.05469 9.92969 3.0625 9.82031 4.22656 11L5.07812 11.8672L4.92969 12.1016C4.72656 12.4219 4.25781 13.6094 4.19531 13.9609L4.14062 14.25H3.32031C2.5625 14.25 2.49219 14.2656 2.32031 14.4453C2.125 14.6328 2.125 14.6484 2.125 16.125C2.125 17.6016 2.125 17.6172 2.32031 17.8047C2.49219 17.9844 2.5625 18 3.32031 18H4.14062L4.19531 18.2891C4.25781 18.6406 4.72656 19.8281 4.92969 20.1484L5.07812 20.3828L4.22656 21.25C3.0625 22.4297 3.05469 22.3203 4.49219 23.7578C5.92969 25.1953 5.82031 25.1875 7 24.0234L7.86719 23.1719L8.10156 23.3203C8.42188 23.5234 9.60938 23.9922 9.96094 24.0547L10.25 24.1094V25.2422C10.25 26.3281 10.2578 26.375 10.4453 26.5547C10.625 26.7422 10.6641 26.75 11.8359 26.75H13.0391L13.2969 27.4687C14.5469 31.0469 17.5781 33.5781 21.2891 34.125C23.5859 34.4687 25.9453 34 27.9141 32.7969L28.3906 32.5078L31.6797 35.7891C35.1719 39.2656 35.1562 39.25 35.875 39.25C36.8438 39.25 37.75 38.3437 37.75 37.375C37.75 36.6562 37.7656 36.6719 34.2891 33.1797L31.0078 29.8906L31.2969 29.4141C33.625 25.5781 33.0859 20.625 29.9922 17.3984L29.3672 16.75H29.9297C30.4219 16.75 30.5156 16.7266 30.6797 16.5547C30.875 16.3672 30.875 16.3437 30.875 15.0469C30.875 13.8047 30.8906 13.6875 31.0781 13.1875C32.1484 10.375 32.75 8.64062 32.75 8.39062C32.75 7.86719 32.5312 6.91406 32.2891 6.41406C31.8438 5.47656 31.0469 4.79688 30.0234 4.47656C29.3516 4.26562 27.9219 4.21094 27.1875 4.36719ZM29.8203 5.73438C30.7266 6.07812 31.3203 6.89844 31.4609 8.02344C31.5156 8.46094 31.4922 8.53125 30.6719 10.7344L29.8203 13H28.375H26.9297L26.0781 10.7344C25.2578 8.53125 25.2344 8.46094 25.2891 8.02344C25.4531 6.6875 26.2031 5.84375 27.4609 5.57812C28.0312 5.45312 29.2969 5.53906 29.8203 5.73438ZM12.75 7.79687C12.75 9.10156 12.75 9.10156 13.7656 9.35937C14.5625 9.55469 15.375 9.89844 15.9609 10.2656C16.5469 10.6484 16.6484 10.6094 17.5703 9.70312L18.3828 8.90625L18.8594 9.39062L19.3438 9.86719L18.5469 10.6797C17.9297 11.3047 17.75 11.5391 17.75 11.7031C17.75 11.8203 17.8906 12.1484 18.0625 12.4297C18.2344 12.7187 18.4766 13.2187 18.6016 13.5391C18.8203 14.125 19.0469 14.9453 18.9922 14.9766C18.9766 14.9844 18.7031 15.1172 18.3828 15.2656C18.0625 15.4141 17.5156 15.7344 17.1641 15.9766L16.5234 16.4141L16.4766 15.8125C16.3516 14.25 15.4297 12.8828 14.0469 12.2266C13.3281 11.875 12.7969 11.75 12.1016 11.75C9.75 11.7578 7.75781 13.75 7.75 16.1016C7.75 16.7969 7.875 17.3281 8.22656 18.0547C8.73438 19.125 9.64062 19.8984 10.875 20.3125C11.375 20.4844 12.875 20.5078 13.25 20.3516C13.375 20.3047 13.4922 20.2734 13.5078 20.2969C13.5234 20.3125 13.4375 20.625 13.3125 20.9766C12.9062 22.1172 12.7969 22.8281 12.7891 24.2266V25.5H12.1484H11.5V24.4531C11.5 23.1484 11.5 23.1484 10.4844 22.8906C9.6875 22.6953 8.875 22.3516 8.28906 21.9844C7.70312 21.6016 7.60156 21.6406 6.67969 22.5469L5.86719 23.3437L5.39062 22.8594L4.90625 22.3828L5.70312 21.5703C6.60938 20.6484 6.64844 20.5469 6.26562 19.9609C5.89844 19.375 5.55469 18.5625 5.35938 17.7656C5.10938 16.7891 5.0625 16.75 4.10938 16.75H3.375V16.125V15.5H4.10938C5.0625 15.5 5.10938 15.4609 5.35938 14.4844C5.55469 13.6875 5.89844 12.875 6.26562 12.2891C6.64844 11.7031 6.60938 11.6016 5.70312 10.6797L4.90625 9.86719L5.39062 9.39062L5.86719 8.90625L6.67969 9.70312C7.60156 10.6094 7.70312 10.6484 8.28906 10.2656C8.875 9.89844 9.6875 9.55469 10.4844 9.35937C11.5 9.10156 11.5 9.10156 11.5 7.79687V6.75H12.125H12.75V7.79687ZM13.4062 13.2969C14.1172 13.625 14.5703 14.0781 14.9219 14.7812C15.1953 15.3437 15.2109 15.4141 15.2109 16.125C15.2109 16.8359 15.1953 16.9062 14.9219 17.4687C14.5703 18.1797 14.1172 18.6172 13.3906 18.9609C12.9141 19.1875 12.7969 19.2109 12.125 19.2109C11.4531 19.2109 11.3359 19.1875 10.8594 18.9609C10.1328 18.6172 9.67969 18.1797 9.32812 17.4687C9.05469 16.9062 9.03906 16.8359 9.03906 16.1328C9.03906 15.4531 9.0625 15.3359 9.28906 14.8594C9.60156 14.1953 10.0469 13.7109 10.6328 13.4062C11.2422 13.0781 11.5859 13 12.2969 13.0312C12.7734 13.0547 13.0156 13.1172 13.4062 13.2969ZM29.625 14.875V15.5H28.6094C27.8438 15.5 27.5312 15.4687 27.3594 15.3828C27.1328 15.2656 27.125 15.2344 27.125 14.7578V14.25H28.375H29.625V14.875ZM23.8828 15.5781C25.8359 15.8594 27.5469 16.7109 28.9219 18.0781C32.2188 21.375 32.3594 26.5234 29.2578 30.0859C28.3516 31.1328 26.6719 32.2109 25.3594 32.6016C22.375 33.4844 19.3281 32.8359 16.9922 30.8281C14.4062 28.6016 13.3594 24.8281 14.4297 21.5703C14.7109 20.7109 15.2422 19.6875 15.7969 18.9453C17.6406 16.5 20.875 15.1562 23.8828 15.5781ZM33.3984 34C36.2109 36.8203 36.5 37.1328 36.5 37.3594C36.5 37.7031 36.2031 38 35.8594 38C35.6328 38 35.3203 37.7109 32.4766 34.875L29.3516 31.75L29.7812 31.3203C30.0156 31.0859 30.2266 30.8906 30.25 30.8906C30.2734 30.8906 31.6875 32.2891 33.3984 34Z" fill="#656567"/>
<path id="Vector_7" d="M21.4453 16.8594C19.8438 17.1641 18.5859 17.8359 17.4375 19.0078C16.4297 20.0234 15.7813 21.1797 15.4297 22.5781C15.2188 23.4141 15.2422 25.1875 15.4766 26.0469C15.8672 27.5078 16.4141 28.4609 17.4766 29.5234C18.5313 30.5703 19.5078 31.1406 20.9531 31.5312C21.875 31.7812 23.5781 31.7812 24.5234 31.5312C25.9297 31.1641 27.0234 30.5469 28.0313 29.5312C29.0313 28.5312 29.6719 27.4141 30.0313 26.0312C30.2813 25.0781 30.2813 23.375 30.0313 22.4531C29.6328 20.9844 29.0859 20.0391 28.0234 18.9766C26.9531 17.9141 25.8438 17.2812 24.4609 16.9453C23.75 16.7734 22.1406 16.7266 21.4453 16.8594ZM24.2344 18.1875C25.8594 18.625 27.1016 19.5156 27.9922 20.875C29.8594 23.7188 29.0234 27.6016 26.1328 29.4844C25.0703 30.1797 24.1094 30.4609 22.75 30.4609C20.9844 30.4609 19.5625 29.875 18.3438 28.6562C17.125 27.4375 16.5391 26.0156 16.5391 24.25C16.5391 22.8906 16.8203 21.9297 17.5156 20.8672C18.4531 19.4219 19.9141 18.4453 21.6172 18.1094C22.2813 17.9844 23.625 18.0156 24.2344 18.1875Z" fill="#656567"/>
<path id="Vector_8" d="M17.9453 23.8204C17.7109 24.0469 17.6875 24.461 17.8672 25.3047C18.3047 27.4063 20.2031 29.0547 22.375 29.2266C22.9375 29.2735 22.9766 29.2657 23.1719 29.0704C23.5781 28.6641 23.3047 28.0001 22.7266 28.0001C20.7891 28.0001 19 26.2422 19 24.3438C19 23.9219 18.7422 23.6251 18.375 23.6251C18.2265 23.6251 18.0625 23.6954 17.9453 23.8204Z" fill="#656567"/>
</g>
</g>
<defs>
<clipPath id="clip0_98_1667">
<rect width="40" height="40" fill="white" transform="translate(0.25 0.5)"/>
</clipPath>
</defs>
</svg>
