<svg width="41" height="41" viewBox="0 0 41 41" fill="none" xmlns="http://www.w3.org/2000/svg">
<g id="selection_1 1" clip-path="url(#clip0_138_1555)">
<g id="Group">
<path id="Vector" d="M2.58594 0.570309C1.94531 0.734371 1.32031 1.25 0.976562 1.90625L0.789062 2.25781V18.3516V34.4453L1.00781 34.8906C1.26562 35.4141 1.63281 35.7578 2.23438 36.0391L2.66406 36.2422L9.19531 36.2812L15.7266 36.3203L14.8672 37.8203L14.0078 39.3281H12.6953C11.4766 39.3281 11.3594 39.3437 11.2188 39.4844C11 39.7031 11.0156 40.0703 11.2578 40.3047L11.4453 40.5H20.75H30.0547L30.2422 40.3047C30.4766 40.0703 30.4922 39.8047 30.2734 39.5312L30.1172 39.3281H28.8047H27.4922L26.6328 37.8203L25.7734 36.3203L32.3047 36.2812C38.375 36.2422 38.8594 36.2344 39.2031 36.1016C39.7188 35.8984 40.2344 35.4141 40.4922 34.8906L40.7109 34.4453V18.4297C40.7109 2.86718 40.7031 2.40625 40.5625 2.03125C40.375 1.53906 39.8906 1.01562 39.3828 0.749996L38.9922 0.539059L20.9062 0.523434C10.9609 0.523434 2.71875 0.539059 2.58594 0.570309ZM39.1641 2.08593L39.4609 2.375L39.4844 16.2812L39.5 30.1875H20.75H2V16.375C2 2.73437 2 2.57031 2.15625 2.3125C2.24219 2.17187 2.42188 1.99218 2.5625 1.90625C2.82031 1.75 2.96875 1.75 20.8438 1.77343L38.875 1.78906L39.1641 2.08593ZM39.5 32.8359C39.5 34.1484 39.4922 34.2422 39.3203 34.4922C39.2266 34.6406 39.0234 34.8203 38.875 34.8906C38.6172 35.0234 37.5859 35.0312 20.7109 35.0312C3 35.0312 2.82031 35.0312 2.5625 34.875C2.05469 34.5625 2 34.375 2 32.8203V31.4375H20.75H39.5V32.8359ZM25.2188 37.7969C25.6797 38.6016 26.0625 39.2812 26.0625 39.2969C26.0625 39.3125 23.6719 39.3281 20.75 39.3281C17.8281 39.3281 15.4375 39.3125 15.4375 39.2969C15.4375 39.2656 16.8594 36.7578 17.0469 36.4531L17.1641 36.2812L20.7656 36.2969L24.375 36.3203L25.2188 37.7969Z" fill="#656567"/>
<path id="Vector_2" d="M10.1172 8.17969C9.8125 8.41406 9.8125 8.39062 9.8125 16.0078V23.4062L10.0391 23.6328L10.2734 23.8594L15.2812 23.8438L20.2969 23.8203L20.4453 23.6328C20.6641 23.3594 20.6406 22.9688 20.3906 22.7734C20.1875 22.6094 20.1172 22.6094 15.625 22.6094H11.0625V15.9688V9.32812H20.75H30.4375V12.4453V15.5703L30.6172 15.7812C30.8516 16.0547 31.2344 16.0703 31.4766 15.8203C31.6484 15.6562 31.6484 15.6328 31.6719 12.2734C31.6875 10.4219 31.6719 8.78125 31.6484 8.64062C31.625 8.50781 31.5234 8.32031 31.4375 8.23438C31.2656 8.07812 31.1562 8.07812 20.7578 8.07812C12.6172 8.08594 10.2109 8.10156 10.1172 8.17969Z" fill="#656567"/>
<path id="Vector_3" d="M34.4453 11.789C34.1953 11.8984 34.1094 12.039 34.1094 12.3437C34.1094 12.4531 34.5625 13.2187 35.25 14.2422L36.3906 15.9531L35.25 17.6562C34.0234 19.5 33.9453 19.6875 34.2891 20.0156C34.5 20.2109 34.7891 20.2344 35.0156 20.0781C35.2891 19.8828 37.7031 16.1797 37.7031 15.9531C37.7031 15.8125 37.2734 15.0937 36.4062 13.789C35.0078 11.6875 34.9141 11.5937 34.4453 11.789Z" fill="#656567"/>
<path id="Vector_4" d="M6.4375 11.8436C6.36719 11.8982 5.75 12.7967 5.05469 13.8436C4.21094 15.1092 3.79688 15.8123 3.79688 15.9529C3.79688 16.1795 6.21094 19.8826 6.48438 20.0779C6.71094 20.2342 6.94531 20.2107 7.1875 20.0232C7.57812 19.7186 7.5 19.5311 6.25 17.6561L5.10938 15.9529L6.25 14.242C7.46094 12.4295 7.54688 12.2186 7.23438 11.9061C7.05469 11.7264 6.625 11.6951 6.4375 11.8436Z" fill="#656567"/>
<path id="Vector_5" d="M19.6953 14.2891C19.5859 14.3906 19.5 14.5469 19.5 14.6328C19.5 14.9297 23.3203 25.9141 23.4766 26.0781C23.6719 26.2734 24.0703 26.2734 24.2656 26.0781C24.3437 26 24.875 24.875 25.4453 23.5859C26.0156 22.2969 26.5156 21.2031 26.5625 21.1563C26.6094 21.1094 27.6719 20.625 28.9141 20.0703C30.1641 19.5234 31.2578 19.0234 31.3594 18.9609C31.7344 18.7266 31.7344 18.2109 31.3594 17.9688C31.125 17.8125 20.2656 14.0938 20.0547 14.0938C19.9609 14.0938 19.7969 14.1797 19.6953 14.2891ZM25.2969 17.1172C27.5234 17.875 29.3125 18.5234 29.2812 18.5547C29.25 18.5859 28.4531 18.9531 27.5078 19.3672C26.5625 19.7891 25.7344 20.1875 25.6641 20.2578C25.5937 20.3281 25.1953 21.1563 24.7734 22.1016C24.3594 23.0469 23.9922 23.8438 23.9687 23.875C23.9219 23.9141 21.2578 16.3047 21.1562 15.8438C21.1406 15.7813 21.1562 15.7344 21.1953 15.7344C21.2266 15.7344 23.0781 16.3516 25.2969 17.1172Z" fill="#656567"/>
<path id="Vector_6" d="M30.6328 21.0859C30.4531 21.2578 30.4375 21.3359 30.4375 21.9453V22.6094H29.1719C27.7891 22.6094 27.5625 22.6641 27.4375 23.0078C27.336 23.3125 27.4375 23.6094 27.7031 23.7422C27.8828 23.8359 28.2578 23.8594 29.5781 23.8594H31.2344L31.461 23.6328C31.6875 23.4062 31.6875 23.3984 31.6875 22.4141C31.6875 21.1484 31.5703 20.8906 31.0156 20.8906C30.9063 20.8906 30.7344 20.9766 30.6328 21.0859Z" fill="#656567"/>
</g>
</g>
<defs>
<clipPath id="clip0_138_1555">
<rect width="40" height="40" fill="white" transform="translate(0.75 0.5)"/>
</clipPath>
</defs>
</svg>
