<svg width="41" height="41" viewBox="0 0 41 41" fill="none" xmlns="http://www.w3.org/2000/svg">
<g id="technology 1">
<g id="Group">
<path id="Vector" d="M4.625 1.46078C4.21875 1.64047 3.83594 1.82016 3.78125 1.85141C3.65625 1.93735 3.66406 2.29672 3.80469 2.63266C3.86719 2.78891 3.92188 3.0936 3.92188 3.30453C3.92188 3.61703 3.89062 3.7186 3.75 3.81235C3.51562 3.97641 3.14844 3.9686 2.625 3.78891C1.96875 3.55453 1.89062 3.60922 1.5 4.60922C1.07031 5.72641 1.08594 5.85922 1.69531 6.17954C2.22656 6.46079 2.51562 6.75766 2.51562 7.01547C2.51562 7.23422 2.11719 7.61704 1.65625 7.8436C1.25781 8.04672 1.1875 8.11704 1.1875 8.37485C1.1875 8.5936 1.77344 10.0155 1.94531 10.203C2.10156 10.3748 2.21094 10.3748 2.75 10.1873C3.32812 9.98422 3.57812 9.99204 3.80469 10.2264C4.04688 10.4608 4.05469 10.7811 3.84375 11.4061C3.6875 11.8436 3.6875 11.867 3.82031 12.0467C3.90625 12.1561 4.30469 12.3748 4.8125 12.5858C5.83594 13.0077 5.91406 12.992 6.25781 12.3045C6.49219 11.8514 6.8125 11.5155 7.01562 11.5155C7.21094 11.5155 7.60938 11.9373 7.83594 12.3827C7.98438 12.6873 8.125 12.8592 8.24219 12.8827C8.41406 12.9295 9.98438 12.328 10.2188 12.1327C10.3672 12.0077 10.3516 11.828 10.1641 11.2655C9.99219 10.7498 10.0078 10.3514 10.2188 10.1795C10.3828 10.0389 10.9219 10.0623 11.4141 10.2186C12.0312 10.4295 12.1094 10.367 12.5469 9.33579C12.7422 8.85922 12.9062 8.4061 12.9062 8.32797C12.9062 8.14047 12.7656 8.02329 12.2578 7.76547C11.9062 7.5936 11.5 7.16391 11.5 6.97641C11.5 6.81235 12.0703 6.29672 12.4375 6.12485C12.9922 5.86704 13 5.75766 12.5547 4.68735C12.1172 3.62485 12.0156 3.54672 11.4219 3.7811C10.875 3.99985 10.375 3.99203 10.2188 3.76547C10.0625 3.53891 10.0625 3.04672 10.2188 2.58578C10.4297 1.9686 10.3672 1.89047 9.39844 1.48422C8.92969 1.28891 8.46094 1.12485 8.35938 1.12485C8.13281 1.12485 7.97656 1.28891 7.82031 1.67172C7.76562 1.82016 7.59375 2.07797 7.45312 2.23422C7 2.73422 6.69531 2.60141 6.21094 1.71078C5.92969 1.20297 5.89062 1.16391 5.64062 1.14828C5.46875 1.14047 5.09375 1.25766 4.625 1.46078ZM5.51562 2.42953C5.67188 2.73422 6.15625 3.20297 6.46094 3.3436C7.14062 3.66391 7.94531 3.29672 8.53125 2.38266C8.64844 2.21078 8.67188 2.20297 8.9375 2.29672L9.21875 2.39828L9.17969 2.99985C9.10938 3.92953 9.35156 4.44516 9.96875 4.72641C10.3125 4.88266 10.9219 4.91391 11.3203 4.80453C11.5547 4.73422 11.5703 4.74203 11.6953 5.05454C11.8125 5.35141 11.8125 5.37485 11.6875 5.44516C11.4297 5.5936 10.8672 6.1561 10.7422 6.39047C10.5547 6.74985 10.5781 7.28891 10.8047 7.68735C10.9766 7.99985 11.4922 8.47641 11.75 8.56235C11.8281 8.5936 11.8125 8.67172 11.7031 8.92954C11.5625 9.23422 11.5391 9.24985 11.3125 9.20297C9.875 8.88266 8.88281 9.74985 9.15625 11.0858C9.20312 11.328 9.23438 11.5389 9.21875 11.5545C9.20312 11.578 9.0625 11.6405 8.90625 11.7108L8.61719 11.828L8.45312 11.5623C7.90625 10.6639 6.96875 10.3592 6.25781 10.8358C6.01562 10.9998 5.53906 11.5545 5.46875 11.7498C5.45312 11.8045 5.32812 11.7889 5.10938 11.6952C4.85938 11.6014 4.78906 11.5389 4.82031 11.4452C4.85156 11.3748 4.89062 11.1405 4.91406 10.9295C5.03906 9.74204 4.20312 8.95297 3.02344 9.1561C2.61719 9.2186 2.53906 9.21079 2.45312 9.10141C2.26562 8.86704 2.25 8.60922 2.40625 8.52329C2.6875 8.36704 3.20312 7.83579 3.32812 7.57797C3.5 7.2186 3.48438 6.72641 3.30469 6.36704C3.14062 6.05454 2.69531 5.62485 2.39844 5.48422C2.22656 5.4061 2.21875 5.39829 2.33594 5.05454C2.42969 4.78891 2.48438 4.7186 2.58594 4.75766C2.85156 4.86703 3.50781 4.89047 3.82812 4.80453C4.25 4.68735 4.66406 4.32016 4.78906 3.96078C4.84375 3.7811 4.86719 3.44516 4.83594 3.03891C4.78906 2.4061 4.78906 2.39828 5 2.32016C5.32812 2.18735 5.39062 2.20297 5.51562 2.42953Z" fill="#656567"/>
<path id="Vector_2" d="M6.42188 5.10154C5.51563 5.3906 4.99219 6.10935 4.99219 7.03123C5 8.46091 6.47656 9.36716 7.79688 8.74998C9.26563 8.07029 9.24219 5.92966 7.75781 5.21873C7.44531 5.06248 6.71875 4.99998 6.42188 5.10154ZM7.40625 6.09373C7.6875 6.22654 7.98438 6.68748 7.98438 6.98435C7.98438 7.74216 7.10938 8.23435 6.41406 7.87498C6.0625 7.69529 5.84375 7.16404 5.94531 6.7656C6.02344 6.47654 6.33594 6.10935 6.57813 6.02341C6.80469 5.93748 7.14063 5.96873 7.40625 6.09373Z" fill="#656567"/>
<path id="Vector_3" d="M24.3906 1.20321C23.4453 1.35165 22.4531 1.90633 21.9062 2.58602C21.5703 3.0079 21.2109 3.79696 21.1094 4.3204C21.0703 4.55477 21.0312 5.74227 21.0312 6.96102C21.0312 9.48446 21.0938 9.95321 21.5469 10.711C22.0938 11.6173 23.1328 12.422 23.9688 12.5782C24.2969 12.6407 24.3516 12.7501 24.4297 13.547C24.5 14.336 24.5938 14.7266 24.7188 14.8048C24.9922 14.9845 25.2188 14.8595 26.5469 13.7813L27.8984 12.6876H32.0312C35.5781 12.6876 36.2188 12.672 36.5859 12.5626C37.9219 12.172 39.0234 10.9923 39.3047 9.65633C39.4453 8.98446 39.4219 4.70321 39.2734 4.1329C39.1016 3.47665 38.7266 2.8204 38.2422 2.33602C37.75 1.85165 37.3516 1.60165 36.6562 1.34383L36.1484 1.16415L30.4844 1.14852C27.3672 1.14852 24.625 1.17196 24.3906 1.20321ZM35.875 2.14071C36.8906 2.30477 37.75 2.93758 38.1953 3.83602L38.4141 4.28915V6.9454V9.60165L38.1875 10.0704C37.8906 10.6641 37.3281 11.2345 36.75 11.5001L36.3047 11.711L32.0469 11.7266C29.7031 11.7423 27.7188 11.7657 27.625 11.7891C27.5391 11.8048 27.0078 12.1954 26.4609 12.6485C25.9062 13.1016 25.4297 13.4688 25.3984 13.4688C25.3672 13.4688 25.3203 13.1641 25.2891 12.7891C25.2188 11.961 25.0938 11.797 24.4922 11.7266C23.6094 11.6251 22.6406 10.8829 22.2188 9.96883L22.0078 9.52352L21.9844 7.11727C21.9609 5.0704 21.9766 4.64852 22.0859 4.26571C22.4062 3.15633 23.3203 2.33602 24.4609 2.14071C25.0156 2.04696 35.2812 2.04696 35.875 2.14071Z" fill="#656567"/>
<path id="Vector_4" d="M29.6797 3.6248C29.3594 3.88262 29.2969 4.21074 29.3516 5.40605C29.4219 7.03887 29.4531 7.26543 29.6719 7.52324C29.8906 7.78105 30.1641 7.85918 30.5313 7.7498C30.9844 7.6248 31.0391 7.46074 31.125 5.83574C31.2109 4.21074 31.1641 3.89824 30.8203 3.63262C30.5469 3.41387 29.9531 3.40605 29.6797 3.6248Z" fill="#656567"/>
<path id="Vector_5" d="M29.7812 8.68745C29.4375 8.87495 29.2969 9.13276 29.3359 9.49214C29.4219 10.1718 29.9844 10.4843 30.6328 10.2109C30.8359 10.1328 31.0312 9.97651 31.0937 9.87495C31.2422 9.58589 31.1641 9.03901 30.9453 8.81245C30.6797 8.54683 30.1406 8.49214 29.7812 8.68745Z" fill="#656567"/>
<path id="Vector_6" d="M12.5625 12.7344C12.4922 12.7969 12.4375 12.875 12.4297 12.9063C12.4297 12.9375 12.3516 13.5078 12.2578 14.1719L12.0859 15.3828L11.2422 15.6641C10.7734 15.8203 10.0547 16.125 9.63281 16.3438L8.86719 16.7266L7.89844 16.0078C7.36719 15.6094 6.84375 15.2578 6.74219 15.2266C6.57812 15.1797 6.39062 15.3438 5.11719 16.6172C3.84375 17.8906 3.67969 18.0781 3.72656 18.2422C3.75781 18.3438 4.10938 18.8672 4.50781 19.4063L5.24219 20.3828L4.82031 21.2266C4.58594 21.6875 4.28125 22.4141 4.14844 22.8438C3.95312 23.4688 3.86719 23.6328 3.73438 23.6641C3.64844 23.6875 3.13281 23.7578 2.59375 23.8203C1.36719 23.9766 1.30469 23.9922 1.15625 24.1406C1.04688 24.2422 1.03125 24.5469 1.03125 26.211C1.03125 28.0547 1.03906 28.1641 1.1875 28.3125C1.27344 28.3985 1.39062 28.4688 1.44531 28.4688C1.67188 28.4766 3.71875 28.7813 3.75781 28.8203C3.77344 28.8438 3.91406 29.2266 4.05469 29.6641C4.20312 30.1016 4.5 30.8203 4.71875 31.2578L5.10938 32.0625L4.35938 33.0625C3.90625 33.6797 3.60938 34.1406 3.60938 34.2578C3.60938 34.5078 6.29688 37.2188 6.54688 37.2188C6.64062 37.2188 7.13281 36.9063 7.64062 36.5313C8.15625 36.1563 8.60938 35.8203 8.66406 35.7891C8.71094 35.7578 9.09375 35.9063 9.51562 36.125C10.2188 36.4844 11.5703 36.9844 11.8516 36.9844C11.9141 36.9844 11.9688 37.0235 11.9688 37.0625C11.9688 37.2031 12.2891 39.4453 12.3281 39.5703C12.4062 39.8281 12.7188 39.875 14.5547 39.875C16.7969 39.875 16.6484 39.961 16.8438 38.5078C17.0547 36.875 17 37.0078 17.4609 36.8985C18 36.7735 19.0703 36.336 19.7109 35.9844L20.2266 35.7031L21.2656 36.461C21.8359 36.875 22.375 37.2188 22.4688 37.2188C22.6875 37.2188 25.4062 34.5 25.4062 34.2735C25.4062 34.1875 25.0781 33.6485 24.6797 33.086L23.9453 32.0547L24.3594 31.25C24.5859 30.8047 24.8828 30.0781 25.0234 29.6328C25.1641 29.1875 25.2812 28.8125 25.2812 28.8047C25.2891 28.8047 25.8516 28.7188 26.5391 28.625C27.3516 28.5156 27.8359 28.4063 27.9297 28.3281C28.0469 28.2188 28.0625 28.0156 28.0625 26.2031C28.0625 24.5078 28.0469 24.1719 27.9453 24.0938C27.8828 24.0391 27.3438 23.9297 26.7578 23.8516C26.1641 23.7656 25.6016 23.6797 25.5156 23.6641C25.375 23.6328 25.2969 23.4766 25.0938 22.8438C24.9531 22.4141 24.6562 21.6875 24.4297 21.2266L24.0156 20.3828L24.7422 19.4063C25.1406 18.8672 25.4922 18.3438 25.5234 18.2422C25.5703 18.0781 25.4062 17.8906 24.1328 16.6172C22.8594 15.3438 22.6719 15.1797 22.5078 15.2266C22.4062 15.2578 21.8828 15.6094 21.3516 16.0078L20.3828 16.7266L19.7109 16.3672C19.3438 16.1719 18.6172 15.8672 18.1016 15.6953L17.1641 15.375L16.9922 14.1641C16.8984 13.5 16.8203 12.9375 16.8203 12.9063C16.8125 12.875 16.7578 12.7969 16.6875 12.7344C16.5859 12.625 16.2891 12.6094 14.625 12.6094C12.9609 12.6094 12.6641 12.625 12.5625 12.7344ZM15.9844 13.7188C16.0078 13.8203 16.0781 14.336 16.1484 14.875C16.3047 16.1172 16.3359 16.1719 16.75 16.2813C18.0078 16.5938 19.2422 17.1016 19.9766 17.6016C20.1094 17.6953 20.2891 17.7656 20.3828 17.7656C20.4766 17.7656 20.9766 17.4453 21.4922 17.0625C22.0156 16.6719 22.4609 16.3594 22.4922 16.3594C22.5703 16.3594 24.3906 18.1797 24.3906 18.25C24.3906 18.2813 24.0781 18.7344 23.6875 19.2578C23.3047 19.7735 22.9844 20.2578 22.9844 20.336C22.9844 20.4141 23.2109 20.9141 23.4844 21.4453C23.9297 22.3203 24.2188 23.086 24.4688 24.0625C24.5156 24.2656 24.6094 24.4063 24.7188 24.461C24.8203 24.5078 25.3984 24.6016 26.0156 24.6797L27.125 24.8281V26.2188C27.125 26.9844 27.1016 27.6094 27.0703 27.6094C27.0391 27.6094 26.4844 27.6797 25.8359 27.7735C24.5234 27.9531 24.4453 27.9922 24.3516 28.5703C24.25 29.1485 23.8438 30.1953 23.3672 31.1016C23.1172 31.586 22.9062 32.0313 22.9062 32.0938C22.9062 32.1563 23.2266 32.6485 23.6172 33.2031L24.3281 34.1953L23.3594 35.1641L22.3984 36.125L21.3906 35.3828C20.8359 34.9766 20.3359 34.6406 20.2812 34.6406C20.2188 34.6406 19.8672 34.8203 19.4922 35.0313C18.7188 35.4766 17.9062 35.8047 16.9922 36.0547C16.6562 36.1406 16.3359 36.2578 16.2812 36.3125C16.2344 36.3594 16.1094 36.9688 16.0078 37.6485L15.8359 38.8985L14.5547 38.9219C13.8438 38.9297 13.2422 38.9141 13.2109 38.8828C13.1797 38.8438 13.0781 38.2969 12.9844 37.6641C12.8984 37.0235 12.7891 36.4375 12.75 36.3594C12.7031 36.2735 12.4688 36.1719 12.1094 36.086C11.1562 35.8516 10.2812 35.5078 9.54688 35.0625C9.16406 34.8281 8.79688 34.6406 8.73438 34.6406C8.67188 34.6406 8.17188 34.9766 7.61719 35.3828L6.61719 36.125L5.64844 35.1563L4.67969 34.1875L5.28125 33.3985C5.60938 32.9688 5.95312 32.4844 6.03906 32.336L6.20312 32.0625L6 31.6875C5.38281 30.586 5.00781 29.6797 4.67188 28.461C4.59375 28.1875 4.49219 28 4.41406 27.961C4.28125 27.9141 2.28125 27.6094 2.0625 27.6094C1.98438 27.6094 1.96875 27.3047 1.98438 26.2266L2.00781 24.8438L3.21875 24.6719C3.88281 24.586 4.49219 24.4844 4.5625 24.4531C4.64062 24.4141 4.73438 24.2422 4.78125 24.0625C5 23.1563 5.3125 22.3203 5.76562 21.4453C6.03906 20.9141 6.26562 20.4219 6.26562 20.3438C6.26562 20.2578 5.95312 19.7735 5.5625 19.2578C5.17188 18.7344 4.85938 18.2891 4.85938 18.2578C4.85938 18.1797 6.67969 16.3594 6.75 16.3594C6.78125 16.3594 7.23438 16.6719 7.75781 17.0625C8.27344 17.4453 8.77344 17.7656 8.85938 17.7656C8.95312 17.7656 9.29688 17.6094 9.61719 17.4141C10.375 16.9766 11.1953 16.6328 12.0859 16.3906C12.4766 16.2891 12.8281 16.1563 12.875 16.0938C12.9141 16.0313 13.0156 15.4922 13.0938 14.8985C13.1719 14.3047 13.25 13.7578 13.2734 13.6797C13.3047 13.5625 13.4375 13.5469 14.625 13.5469C15.9375 13.5469 15.9531 13.5469 15.9844 13.7188Z" fill="#656567"/>
<path id="Vector_7" d="M14.2422 21.1876C13.625 21.8361 13.0625 22.5158 12.7188 23.0314C12.375 23.5548 11.9375 24.547 11.8359 25.0392C11.7813 25.3048 11.7734 25.3126 11.3203 25.1173C10.5938 24.8048 9.78907 24.633 8.49219 24.5158C7.07813 24.3908 6.85938 24.4064 6.74219 24.6251C6.59375 24.8986 6.48438 26.922 6.57032 27.6486C6.98438 31.0705 9.21094 33.6642 12.4219 34.4923C12.7813 34.5861 13.5234 34.6798 14.25 34.7189C17.1719 34.8986 19.1328 34.2111 20.7422 32.4455C21.5781 31.5314 22.1641 30.3517 22.4063 29.1095C22.5156 28.5236 22.5547 26.6486 22.4609 26.1017C22.3828 25.6017 22.25 25.5626 20.9063 25.6564C19.8516 25.7267 19.0156 25.883 18.4375 26.1173C18.25 26.1876 18.2188 26.1798 18.2188 26.0705C18.2188 25.5236 17.625 23.9923 17.1328 23.2814C16.5625 22.4533 14.9688 20.8908 14.6875 20.8908C14.6016 20.8908 14.3984 21.0236 14.2422 21.1876ZM15.8906 23.1955C16.6406 24.0392 17.1094 25.0705 17.3203 26.3751C17.3594 26.6408 17.3438 26.672 17.1172 26.7892C16.8047 26.9533 15.6094 28.1017 15.3984 28.4455L15.2344 28.7111L14.7813 28.0236C14.3672 27.3986 13.3125 26.2736 12.8281 25.9455C12.6484 25.8205 12.6406 25.797 12.7266 25.4064C12.9375 24.422 13.4766 23.4298 14.3125 22.508L14.7188 22.0626L15.1641 22.4689C15.4063 22.6955 15.7344 23.0236 15.8906 23.1955ZM9.92188 25.6564C12.1719 26.1955 13.9609 27.883 14.7422 30.2111C15.0156 31.0158 15.0469 31.172 15.0781 32.1955C15.0938 32.8048 15.0938 33.422 15.0625 33.5626L15.0156 33.8205L14.1016 33.7658C13.0859 33.7111 12.6953 33.6408 11.9531 33.3673C10.3203 32.7736 8.96875 31.5392 8.17969 29.9142C7.61719 28.758 7.39844 27.5939 7.48438 26.2111L7.53907 25.3986L8.41407 25.4533C8.89063 25.4845 9.57032 25.5705 9.92188 25.6564ZM21.5781 27.547C21.5703 29.508 21.0703 30.7736 19.7813 32.0626C19.2813 32.5626 18.9609 32.8126 18.4922 33.0548C17.8047 33.4064 17.0703 33.6564 16.4609 33.7345L16.0703 33.7892L16.0625 32.4767C16.0547 31.3986 16.0234 31.0548 15.8828 30.547C15.7969 30.2033 15.7188 29.8751 15.7188 29.8205C15.7188 29.6095 16.2969 28.8205 16.8516 28.2736C17.6719 27.4611 18.8125 26.8595 19.8984 26.6798C20.1172 26.6408 20.5781 26.6095 20.9375 26.6017L21.5781 26.5939V27.547Z" fill="#656567"/>
<path id="Vector_8" d="M30.2891 14.875C29.4141 15.2422 29.3125 15.375 29.4922 15.875C29.7891 16.6953 29.5859 17.0234 28.9062 16.8281C28.2344 16.6406 28.0859 16.6406 27.9609 16.8438C27.7422 17.1797 27.3516 18.2578 27.375 18.4609C27.3906 18.6094 27.4922 18.7188 27.7734 18.8672C28.6016 19.3125 28.6562 19.6328 27.9609 20.0234C27.2344 20.4375 27.2266 20.4766 27.6406 21.4766C27.9922 22.3047 28.1328 22.4219 28.6094 22.2578C29.0078 22.1172 29.4062 22.1094 29.5312 22.2344C29.6641 22.3672 29.6484 22.7422 29.5 23.1328C29.3828 23.4297 29.3828 23.4844 29.4922 23.6484C29.6094 23.8281 30.8516 24.4062 31.1172 24.4062C31.2734 24.4062 31.3984 24.2656 31.6562 23.7969C31.7656 23.6016 31.9141 23.4062 31.9844 23.3594C32.2031 23.2266 32.4687 23.4219 32.7187 23.8906C32.8672 24.1797 33.0078 24.3516 33.125 24.3828C33.3672 24.4375 34.6797 23.8906 34.8281 23.6641C34.9219 23.5156 34.9219 23.4453 34.8125 23.1406C34.75 22.9375 34.7031 22.6406 34.7187 22.4766C34.7422 22.1953 34.7578 22.1797 35.0391 22.1562C35.2031 22.1406 35.5 22.1875 35.7031 22.25C36.0156 22.3594 36.0781 22.3594 36.2266 22.2656C36.4297 22.1328 36.9922 20.8047 36.9531 20.5469C36.9297 20.3984 36.8359 20.3203 36.1719 19.9141C35.6875 19.6172 35.8203 19.2422 36.5156 18.8906C37.0312 18.625 37.0469 18.4844 36.6875 17.5625C36.3203 16.6406 36.2344 16.5859 35.5625 16.7891C34.9297 16.9766 34.7031 16.8906 34.7031 16.4453C34.7031 16.2812 34.7578 16.0234 34.8125 15.875C35.0312 15.3594 34.8984 15.2266 33.7422 14.7656C33.1094 14.5156 32.9922 14.5547 32.7187 15.0938C32.3125 15.8984 31.9609 15.9141 31.6016 15.1406C31.4766 14.8594 31.3359 14.6797 31.2109 14.6328C31.1094 14.5938 31.0156 14.5625 31.0078 14.5703C31 14.5703 30.6797 14.7109 30.2891 14.875ZM33.7891 16.4141C33.8047 16.9219 33.8359 17.0938 33.9687 17.2734C34.2656 17.6641 34.6016 17.8047 35.2266 17.7969C35.7266 17.7891 35.7891 17.8047 35.8281 17.9453C35.8594 18.0625 35.7734 18.1875 35.5156 18.4141C35.0859 18.7891 34.9375 19.0703 34.9375 19.4844C34.9375 20.0156 35.25 20.5078 35.7812 20.8047C35.875 20.8594 35.8906 20.9141 35.8281 21.0547C35.7578 21.2109 35.7031 21.2266 35.2344 21.2109C34.2266 21.1719 33.7344 21.6641 33.7734 22.6641C33.7891 23.0312 33.7656 23.1875 33.6797 23.2422C33.5156 23.3438 33.4922 23.3359 33.2656 23.0156C32.875 22.4531 32.1172 22.2109 31.5859 22.4844C31.375 22.6016 30.9219 23.0625 30.8672 23.2266C30.8516 23.2734 30.7578 23.2891 30.6719 23.2656C30.5156 23.2266 30.5078 23.1797 30.5469 22.7266C30.5937 22.0781 30.3906 21.625 29.9297 21.3672C29.6641 21.2188 29.5234 21.1875 29.0781 21.2188C28.5547 21.2422 28.5391 21.2422 28.4922 21.0547C28.4531 20.9141 28.4844 20.8281 28.5859 20.7578C29.3047 20.2344 29.5469 19.625 29.2812 18.9922C29.2266 18.8516 29.0078 18.5859 28.8125 18.4141C28.5312 18.1719 28.4531 18.0469 28.4844 17.9375C28.5312 17.8047 28.6094 17.7891 29.1016 17.7969C30.1094 17.8125 30.5859 17.3281 30.5469 16.3203C30.5234 15.8203 30.5391 15.7734 30.6797 15.75C30.7891 15.7344 30.8828 15.8047 30.9766 15.9688C31.3125 16.5234 32.0469 16.7812 32.6016 16.5391C32.9219 16.3906 33.4531 15.8984 33.4531 15.7344C33.4531 15.6953 33.5234 15.6875 33.6172 15.7188C33.7578 15.7734 33.7812 15.8516 33.7891 16.4141Z" fill="#656567"/>
<path id="Vector_9" d="M31.6719 17.8674C30.9844 18.1252 30.5625 18.758 30.5625 19.5158C30.5625 21.2815 32.8281 21.844 33.6328 20.2737C33.9453 19.6487 33.8984 19.0627 33.4922 18.469C33.1172 17.9299 32.2578 17.6408 31.6719 17.8674ZM32.5078 18.8205C33.1719 19.1643 32.9141 20.2658 32.1641 20.2658C31.4453 20.2658 31.25 19.0471 31.9219 18.7815C32.1641 18.6799 32.2656 18.6877 32.5078 18.8205Z" fill="#656567"/>
<path id="Vector_10" d="M30.7969 27.4533C30.2578 27.6799 29.8437 27.9064 29.7578 28.0158C29.6172 28.2033 29.6172 28.2189 29.7656 28.5939C30.0156 29.2189 30.0234 29.7892 29.7812 30.0314C29.5781 30.2346 29.0625 30.2346 28.4844 30.0392C27.8516 29.8127 27.7734 29.8674 27.25 30.9767C26.7422 32.0705 26.7422 32.2033 27.3203 32.4533C28.1328 32.8049 28.4844 33.2736 28.2578 33.7033C28.1094 33.9846 27.7344 34.2736 27.2969 34.4533C26.7578 34.6642 26.75 34.8049 27.1953 35.8752C27.4297 36.4299 27.6562 36.8439 27.7656 36.9299C27.9531 37.0705 27.9687 37.0705 28.3828 36.9064C28.9219 36.6877 29.4844 36.6721 29.7031 36.8674C29.8984 37.0392 29.9141 37.7111 29.7422 38.1955C29.5781 38.6564 29.5937 38.9142 29.8047 39.0471C29.8984 39.1174 30.3594 39.3283 30.8203 39.5158C31.4453 39.7814 31.7031 39.8517 31.8359 39.8049C31.9375 39.7658 32.1094 39.5392 32.2812 39.2033C32.4531 38.8674 32.6562 38.6017 32.8203 38.4924C33.1484 38.2736 33.1328 38.2736 33.4609 38.4924C33.6328 38.6096 33.8125 38.8517 33.9844 39.1955C34.3516 39.9533 34.3672 39.9533 35.5391 39.4689C36.3828 39.1174 36.5469 39.0236 36.6094 38.8439C36.6641 38.6799 36.6484 38.5549 36.5469 38.3361C36.4687 38.1721 36.3906 37.8439 36.3672 37.6096C36.3359 37.2502 36.3516 37.1486 36.5 36.9611C36.6406 36.7814 36.7266 36.7502 37.0547 36.7502C37.2656 36.7502 37.6172 36.8205 37.8437 36.9064C38.4531 37.133 38.5547 37.0549 39.0078 35.9689C39.2187 35.4767 39.3906 35.0002 39.3906 34.9064C39.3906 34.7033 39.2266 34.5627 38.75 34.3361C38.3125 34.1252 37.9062 33.6955 37.9062 33.4299C37.9062 33.1486 38.3125 32.7424 38.8437 32.4846C39.4687 32.1877 39.4922 32.0861 39.125 31.1721C38.6016 29.8986 38.6094 29.9142 38.2578 29.9221C38.0859 29.9299 37.7344 30.0002 37.4687 30.0783C36.8984 30.2424 36.5703 30.1564 36.4219 29.7892C36.3125 29.5392 36.375 28.9767 36.5469 28.5549C36.6875 28.2189 36.6875 28.0392 36.5469 27.8986C36.4844 27.8361 36.0234 27.6252 35.5312 27.4221C34.4531 26.9924 34.3672 27.008 34.0547 27.6721C33.5078 28.8752 32.8281 28.8596 32.2734 27.6252C32.1562 27.3596 32.0234 27.1408 31.9766 27.1408C31.9375 27.1408 31.8594 27.1252 31.7969 27.1017C31.7422 27.0861 31.2891 27.2424 30.7969 27.4533ZM32.0547 29.0158C32.9141 29.8283 34.0156 29.6174 34.6719 28.508L34.8672 28.1642L35.2187 28.2971C35.5703 28.4299 35.5703 28.4299 35.5078 28.7033C35.4766 28.8517 35.4453 29.2033 35.4453 29.4846C35.4531 30.6799 36.3516 31.2892 37.7109 31.0236L38.0234 30.9611L38.1719 31.3283C38.2969 31.633 38.3047 31.6955 38.2109 31.758C38.1484 31.7971 38.0781 31.8283 38.0391 31.8283C38.0078 31.8283 37.8203 31.9767 37.6172 32.1564C37 32.7346 36.8203 33.4064 37.1172 34.0549C37.2656 34.383 37.7812 34.8986 38.1094 35.0471C38.3359 35.1486 38.3359 35.1642 38.1484 35.6096L37.9922 35.9611L37.6953 35.8752C37.5312 35.8283 37.1562 35.8127 36.8672 35.8361C36.2344 35.8752 35.8672 36.1174 35.5781 36.6799C35.4219 36.9767 35.3984 37.1017 35.4297 37.6096C35.4531 37.9299 35.4922 38.2502 35.5234 38.3205C35.5625 38.4221 35.4922 38.4846 35.2109 38.5939C34.875 38.7189 34.8359 38.7189 34.7734 38.6017C33.9766 37.1877 32.6172 37.0392 31.7578 38.2736C31.5937 38.508 31.4219 38.6955 31.3672 38.7033C31.3125 38.7033 31.1484 38.6486 31 38.5783L30.7266 38.4455L30.7734 37.7658C30.8359 36.758 30.6328 36.2814 29.9922 35.9533C29.6328 35.7736 28.8203 35.7346 28.4453 35.8752C28.2578 35.9533 28.2344 35.9377 28.0781 35.5705L27.9219 35.1877L28.1484 35.0705C28.7109 34.7736 29.1484 34.2189 29.2578 33.6564C29.3672 33.0861 29.0078 32.4064 28.3672 31.9689C28.1562 31.8283 27.9844 31.6799 27.9844 31.6486C27.9844 31.6174 28.0547 31.4455 28.1406 31.2736C28.2891 31.0002 28.3203 30.9689 28.5156 31.0236C28.6328 31.0627 28.9922 31.0861 29.3203 31.0861C29.8281 31.0861 29.9531 31.0549 30.2266 30.8752C30.6641 30.5861 30.8906 30.0939 30.8828 29.4611C30.8828 29.1955 30.8516 28.8674 30.8125 28.7424C30.7422 28.5158 30.7578 28.5002 31.1016 28.3439L31.4609 28.1877L31.6641 28.508C31.7812 28.6877 31.9531 28.9142 32.0547 29.0158Z" fill="#656567"/>
<path id="Vector_11" d="M32.5938 31.4297C32.0547 31.5938 31.5625 32.0157 31.3047 32.5313C31.0938 32.9375 31.0625 33.7032 31.2266 34.1485C31.875 35.8438 34.2813 35.9688 35.0625 34.3438C35.2656 33.9219 35.2969 33.1563 35.1328 32.711C34.8281 31.9141 34.0313 31.3594 33.2188 31.3672C32.9844 31.3672 32.7031 31.3985 32.5938 31.4297ZM33.6719 32.4063C34.0781 32.6172 34.2578 32.8907 34.2969 33.3438C34.3594 34.125 33.8516 34.6172 33.0703 34.5469C31.9766 34.4375 31.6641 33.0313 32.6094 32.4532C32.9141 32.2735 33.375 32.25 33.6719 32.4063Z" fill="#656567"/>
</g>
</g>
</svg>
