<svg width="25" height="24" viewBox="0 0 25 24" fill="none" xmlns="http://www.w3.org/2000/svg">
<g clip-path="url(#clip0_311_124)">
<path d="M12.1641 23.25C9.93909 23.25 7.76402 22.5902 5.91396 21.354C4.06391 20.1179 2.62197 18.3609 1.77048 16.3052C0.918998 14.2495 0.69621 11.9875 1.13029 9.80524C1.56438 7.62295 2.63584 5.61839 4.20918 4.04505C5.78252 2.47171 7.78708 1.40025 9.96936 0.966171C12.1516 0.532087 14.4136 0.754875 16.4693 1.60636C18.525 2.45785 20.282 3.89979 21.5182 5.74984C22.7543 7.59989 23.4141 9.77496 23.4141 12C23.4141 14.9837 22.2289 17.8452 20.1191 19.955C18.0093 22.0647 15.1478 23.25 12.1641 23.25ZM12.1641 2.25C10.2358 2.25 8.3507 2.82183 6.74732 3.89318C5.14394 4.96452 3.89426 6.48726 3.1563 8.26884C2.41835 10.0504 2.22527 12.0108 2.60147 13.9021C2.97768 15.7935 3.90628 17.5307 5.26984 18.8943C6.6334 20.2579 8.37068 21.1865 10.262 21.5627C12.1533 21.9389 14.1137 21.7458 15.8953 21.0078C17.6769 20.2699 19.1996 19.0202 20.271 17.4168C21.3423 15.8134 21.9141 13.9284 21.9141 12C21.9141 9.41414 20.8869 6.93419 19.0584 5.10571C17.2299 3.27723 14.75 2.25 12.1641 2.25Z" fill="#101820"/>
<path d="M15.3441 16.245L11.6316 12.5325C11.5621 12.4624 11.5071 12.3793 11.4698 12.2879C11.4325 12.1966 11.4136 12.0987 11.4141 12V6H12.9141V11.6925L16.4091 15.18L15.3441 16.245Z" fill="#101820"/>
</g>
<defs>
<clipPath id="clip0_311_124">
<rect width="24" height="24" fill="white" transform="translate(0.164124)"/>
</clipPath>
</defs>
</svg>
