<svg width="25" height="24" viewBox="0 0 25 24" fill="none" xmlns="http://www.w3.org/2000/svg">
<g clip-path="url(#clip0_311_118)">
<path d="M12.1641 23.625C18.5766 23.625 23.7891 18.4125 23.7891 12C23.7891 5.5875 18.5766 0.375 12.1641 0.375C5.75162 0.375 0.539124 5.5875 0.539124 12C0.539124 18.4125 5.75162 23.625 12.1641 23.625ZM3.16412 16.6312L7.88912 16.5938C8.41412 18.4875 9.29537 20.325 10.4954 21.975C7.28912 21.45 4.60787 19.4062 3.16412 16.6312ZM9.08912 8.8125H14.9766C15.4079 10.875 15.4079 12.9938 15.0141 15.0563L9.08912 15.0938C8.65787 13.0125 8.65787 10.875 9.08912 8.8125ZM12.0329 21.5438C10.8516 20.025 9.98912 18.3563 9.46412 16.5938L14.6204 16.5563C14.0766 18.3188 13.2141 20.0063 12.0329 21.5438ZM13.5329 22.0312C14.7704 20.3438 15.6516 18.4875 16.1766 16.5375L21.2204 16.5C19.7579 19.4438 16.9079 21.5625 13.5329 22.0312ZM22.2891 12C22.2891 13.05 22.1204 14.0625 21.8391 15L16.5329 15.0375C16.9079 12.975 16.8891 10.875 16.4954 8.8125H21.7641C22.1016 9.80625 22.2891 10.8938 22.2891 12ZM21.1266 7.3125H16.1391C15.5954 5.4375 14.7329 3.61875 13.5329 1.96875C16.8516 2.41875 19.6454 4.4625 21.1266 7.3125ZM14.5829 7.3125H9.48287C10.0266 5.5875 10.8704 3.95625 12.0329 2.45625C13.1954 3.95625 14.0391 5.5875 14.5829 7.3125ZM10.4954 2.025C9.31412 3.65625 8.45162 5.4375 7.92662 7.3125H3.20162C4.64537 4.55625 7.30787 2.55 10.4954 2.025ZM7.57037 8.8125C7.17662 10.8938 7.17662 13.0125 7.55162 15.0938L2.54537 15.1312C2.20787 14.1375 2.03912 13.0875 2.03912 12C2.03912 10.8938 2.22662 9.80625 2.56412 8.8125H7.57037Z" fill="black"/>
</g>
<defs>
<clipPath id="clip0_311_118">
<rect width="24" height="24" fill="white" transform="translate(0.164124)"/>
</clipPath>
</defs>
</svg>
