<svg width="31" height="30" viewBox="0 0 31 30" fill="none" xmlns="http://www.w3.org/2000/svg">
<g clip-path="url(#clip0_311_143)">
<path d="M15.8282 16.875C18.4171 16.875 20.5157 14.7763 20.5157 12.1875C20.5157 9.59867 18.4171 7.5 15.8282 7.5C13.2394 7.5 11.1407 9.59867 11.1407 12.1875C11.1407 14.7763 13.2394 16.875 15.8282 16.875Z" stroke="#080D41" stroke-width="2" stroke-linecap="round" stroke-linejoin="round"/>
<path d="M22.3907 26.25C22.3907 24.5095 21.6993 22.8403 20.4686 21.6096C19.2379 20.3789 17.5687 19.6875 15.8282 19.6875C14.0878 19.6875 12.4186 20.3789 11.1879 21.6096C9.95715 22.8403 9.26575 24.5095 9.26575 26.25H22.3907Z" stroke="#080D41" stroke-width="2" stroke-linecap="round" stroke-linejoin="round"/>
<path d="M23.3282 13.125C24.1273 13.125 24.913 12.9208 25.6109 12.5317C26.3088 12.1426 26.8956 11.5815 27.3157 10.9019C27.7357 10.2222 27.9751 9.4464 28.011 8.6482C28.0469 7.84999 27.8782 7.05585 27.5209 6.34119C27.1635 5.62653 26.6295 5.01507 25.9693 4.56487C25.3092 4.11468 24.545 3.8407 23.7492 3.76894C22.9534 3.69719 22.1525 3.83004 21.4225 4.15489C20.6925 4.47973 20.0577 4.98579 19.5782 5.625" stroke="#080D41" stroke-width="2" stroke-linecap="round" stroke-linejoin="round"/>
<path d="M24.2657 22.5H29.8907C29.8907 20.7595 29.1993 19.0903 27.9686 17.8596C26.7379 16.6289 25.0687 15.9375 23.3282 15.9375" stroke="#080D41" stroke-width="2" stroke-linecap="round" stroke-linejoin="round"/>
<path d="M12.0782 5.625C11.5988 4.98579 10.964 4.47973 10.234 4.15489C9.50399 3.83004 8.70307 3.69719 7.90728 3.76894C7.1115 3.8407 6.34726 4.11468 5.68715 4.56487C5.02703 5.01507 4.49295 5.62653 4.13562 6.34119C3.77829 7.05585 3.60957 7.84999 3.64549 8.6482C3.6814 9.4464 3.92075 10.2222 4.34082 10.9019C4.76089 11.5815 5.34772 12.1426 6.0456 12.5317C6.74348 12.9208 7.52923 13.125 8.32825 13.125" stroke="#080D41" stroke-width="2" stroke-linecap="round" stroke-linejoin="round"/>
<path d="M8.32825 15.9375C6.58776 15.9375 4.91857 16.6289 3.68786 17.8596C2.45715 19.0903 1.76575 20.7595 1.76575 22.5H7.39075" stroke="#080D41" stroke-width="2" stroke-linecap="round" stroke-linejoin="round"/>
</g>
<defs>
<clipPath id="clip0_311_143">
<rect width="30" height="30" fill="white" transform="translate(0.828247)"/>
</clipPath>
</defs>
</svg>
