<svg width="31" height="30" viewBox="0 0 31 30" fill="none" xmlns="http://www.w3.org/2000/svg">
<g clip-path="url(#clip0_311_133)">
<path d="M28.9532 5.625H2.70325C2.20597 5.625 1.72905 5.82254 1.37742 6.17417C1.02579 6.52581 0.828247 7.00272 0.828247 7.5L0.828247 22.5C0.828247 22.9973 1.02579 23.4742 1.37742 23.8258C1.72905 24.1775 2.20597 24.375 2.70325 24.375H28.9532C29.4505 24.375 29.9274 24.1775 30.2791 23.8258C30.6307 23.4742 30.8282 22.9973 30.8282 22.5V7.5C30.8282 7.00272 30.6307 6.52581 30.2791 6.17417C29.9274 5.82254 29.4505 5.625 28.9532 5.625ZM29.5782 22.5C29.5782 22.6658 29.5124 22.8247 29.3952 22.9419C29.278 23.0592 29.119 23.125 28.9532 23.125H2.70325C2.53749 23.125 2.37852 23.0592 2.26131 22.9419C2.1441 22.8247 2.07825 22.6658 2.07825 22.5V7.5C2.07825 7.33424 2.1441 7.17527 2.26131 7.05806C2.37852 6.94085 2.53749 6.875 2.70325 6.875H28.9532C29.119 6.875 29.278 6.94085 29.3952 7.05806C29.5124 7.17527 29.5782 7.33424 29.5782 7.5V22.5Z" fill="#080D41"/>
<path d="M27.0782 11.875C26.4152 11.875 25.7793 11.6116 25.3105 11.1428C24.8416 10.6739 24.5782 10.038 24.5782 9.375C24.5782 9.20924 24.5124 9.05027 24.3952 8.93306C24.278 8.81585 24.119 8.75 23.9532 8.75H7.70325C7.53749 8.75 7.37852 8.81585 7.26131 8.93306C7.1441 9.05027 7.07825 9.20924 7.07825 9.375C7.07825 10.038 6.81486 10.6739 6.34601 11.1428C5.87717 11.6116 5.24129 11.875 4.57825 11.875C4.41249 11.875 4.25352 11.9408 4.13631 12.0581C4.0191 12.1753 3.95325 12.3342 3.95325 12.5V17.5C3.95325 17.6658 4.0191 17.8247 4.13631 17.9419C4.25352 18.0592 4.41249 18.125 4.57825 18.125C5.24129 18.125 5.87717 18.3884 6.34601 18.8572C6.81486 19.3261 7.07825 19.962 7.07825 20.625C7.07825 20.7908 7.1441 20.9497 7.26131 21.0669C7.37852 21.1842 7.53749 21.25 7.70325 21.25H23.9532C24.119 21.25 24.278 21.1842 24.3952 21.0669C24.5124 20.9497 24.5782 20.7908 24.5782 20.625C24.5782 19.962 24.8416 19.3261 25.3105 18.8572C25.7793 18.3884 26.4152 18.125 27.0782 18.125C27.244 18.125 27.403 18.0592 27.5202 17.9419C27.6374 17.8247 27.7032 17.6658 27.7032 17.5V12.5C27.7032 12.3342 27.6374 12.1753 27.5202 12.0581C27.403 11.9408 27.244 11.875 27.0782 11.875ZM8.27825 20C8.14879 19.2315 7.78309 18.5223 7.23199 17.9713C6.6809 17.4202 5.97179 17.0545 5.20325 16.925V13.075C5.97179 12.9455 6.6809 12.5798 7.23199 12.0287C7.78309 11.4777 8.14879 10.7685 8.27825 10H12.0782C11.302 10.5822 10.672 11.3371 10.2381 12.2049C9.80415 13.0728 9.57825 14.0297 9.57825 15C9.57825 15.9703 9.80415 16.9272 10.2381 17.7951C10.672 18.6629 11.302 19.4178 12.0782 20H8.27825ZM15.8282 20C14.8393 20 13.8726 19.7068 13.0504 19.1573C12.2282 18.6079 11.5873 17.827 11.2088 16.9134C10.8304 15.9998 10.7314 14.9945 10.9243 14.0245C11.1172 13.0546 11.5935 12.1637 12.2927 11.4645C12.992 10.7652 13.8829 10.289 14.8528 10.0961C15.8227 9.90315 16.828 10.0022 17.7417 10.3806C18.6553 10.759 19.4362 11.3999 19.9856 12.2221C20.535 13.0444 20.8282 14.0111 20.8282 15C20.8282 16.3261 20.3015 17.5979 19.3638 18.5355C18.4261 19.4732 17.1543 20 15.8282 20ZM26.4532 16.925C25.6847 17.0545 24.9756 17.4202 24.4245 17.9713C23.8734 18.5223 23.5077 19.2315 23.3782 20H19.5782C20.3545 19.4178 20.9845 18.6629 21.4184 17.7951C21.8523 16.9272 22.0782 15.9703 22.0782 15C22.0782 14.0297 21.8523 13.0728 21.4184 12.2049C20.9845 11.3371 20.3545 10.5822 19.5782 10H23.397C23.5253 10.7659 23.8883 11.4731 24.4357 12.0239C24.9832 12.5747 25.6881 12.942 26.4532 13.075V16.925Z" fill="#080D41"/>
<path d="M5.20325 8.75H3.95325V10H5.20325V8.75Z" fill="#080D41"/>
<path d="M27.7032 8.75H26.4532V10H27.7032V8.75Z" fill="#080D41"/>
<path d="M27.7032 20H26.4532V21.25H27.7032V20Z" fill="#080D41"/>
<path d="M5.20325 20H3.95325V21.25H5.20325V20Z" fill="#080D41"/>
</g>
<defs>
<clipPath id="clip0_311_133">
<rect width="30" height="30" fill="white" transform="translate(0.828247)"/>
</clipPath>
</defs>
</svg>
