<svg width="186" height="51" viewBox="0 0 186 51" fill="none" xmlns="http://www.w3.org/2000/svg">
<g id="g12">
<g id="g14">
<g id="g16">
<g id="g22">
<path id="path30" d="M73.3572 39.8033H70.8247V39.036H73.3572V39.8033ZM73.7174 41.5155H70.8247C70.7143 41.5155 70.592 41.4982 70.4604 41.4607C70.3287 41.4237 70.2065 41.3622 70.096 41.2771C69.9833 41.1942 69.8906 41.0823 69.8144 40.9468C69.7382 40.8114 69.7016 40.6452 69.7016 40.4487V37.7066C69.7016 37.654 69.7128 37.6042 69.7341 37.5583C69.7524 37.5102 69.7825 37.4704 69.8167 37.4357C69.8539 37.4005 69.8953 37.3725 69.9461 37.3523C69.9945 37.3327 70.0476 37.3243 70.1055 37.3243H73.7174V38.0828H70.5041V40.4487C70.5041 40.5489 70.5318 40.6256 70.5873 40.6782C70.6428 40.7308 70.7231 40.7565 70.8318 40.7565H73.7174V41.5155Z" fill="#4169E1"/>
</g>
</g>
</g>
<g id="g32">
<g id="g34">
<g id="g40">
<path id="path48" d="M79.3913 41.5156H78.5912V39.762C78.5912 39.6635 78.5723 39.5739 78.5357 39.495C78.5009 39.4166 78.4524 39.3489 78.3904 39.2918C78.3279 39.2353 78.2564 39.1916 78.1737 39.1608C78.0881 39.13 77.9984 39.1149 77.9039 39.1149H76.4991V41.5156H75.6961V38.7321C75.6961 38.6795 75.7079 38.6319 75.7286 38.586C75.7492 38.5395 75.777 38.5004 75.8142 38.4657C75.8508 38.4304 75.8945 38.4041 75.9429 38.3845C75.9937 38.3649 76.0445 38.356 76.1023 38.356H77.908C78.0096 38.356 78.1159 38.3672 78.2287 38.389C78.3397 38.4086 78.4501 38.4438 78.5611 38.492C78.6715 38.5395 78.7754 38.5989 78.8746 38.6733C78.9762 38.7455 79.0636 38.8351 79.1398 38.9397C79.2183 39.0427 79.2785 39.1631 79.3246 39.3008C79.3706 39.4362 79.3913 39.5913 79.3913 39.762V41.5156Z" fill="#4169E1"/>
</g>
</g>
</g>
<g id="g50">
<g id="g52">
<g id="g58">
<path id="path66" d="M85.0404 41.8195C85.0404 41.9505 85.0215 42.0686 84.9873 42.1738C84.9524 42.2762 84.9064 42.368 84.8485 42.4469C84.7912 42.5259 84.7239 42.5936 84.6477 42.6501C84.5721 42.705 84.4913 42.7509 84.408 42.7856C84.3253 42.8208 84.2397 42.8472 84.1547 42.8623C84.0691 42.8796 83.9882 42.8886 83.912 42.8886H82.4659V42.1279H83.912C84.023 42.1279 84.1039 42.1016 84.1565 42.049C84.2096 41.9964 84.2374 41.9203 84.2374 41.8195V39.4211C84.2374 39.3204 84.2096 39.2459 84.1565 39.1933C84.1039 39.1412 84.023 39.1149 83.912 39.1149H82.4659C82.3667 39.1149 82.2906 39.1457 82.2333 39.2023C82.1754 39.2593 82.1453 39.3315 82.1453 39.4211V40.4487C82.1453 40.5489 82.173 40.6256 82.2285 40.6782C82.2841 40.7308 82.3667 40.7566 82.473 40.7566H83.912V41.5156H82.4659C82.3898 41.5156 82.3112 41.5089 82.2262 41.4915C82.1406 41.4742 82.0579 41.4501 81.9746 41.4148C81.892 41.3801 81.8111 41.3342 81.7349 41.2771C81.6587 41.2223 81.592 41.1546 81.5342 41.0762C81.4763 40.9973 81.4302 40.9055 81.396 40.8008C81.3611 40.6978 81.3428 40.5797 81.3428 40.4487V39.4211C81.3428 39.3489 81.3517 39.2722 81.3706 39.1916C81.3865 39.1127 81.4143 39.0315 81.4509 38.9532C81.4881 38.8743 81.5365 38.7998 81.5944 38.7276C81.654 38.6554 81.7255 38.5922 81.8087 38.5379C81.892 38.483 81.9888 38.4394 82.0969 38.4063C82.2055 38.3716 82.3301 38.356 82.4659 38.356H83.912C83.9882 38.356 84.0691 38.3649 84.1547 38.38C84.2397 38.3979 84.3253 38.4237 84.408 38.4589C84.4913 38.4936 84.5721 38.5379 84.6477 38.5944C84.7239 38.6493 84.7912 38.717 84.8485 38.7953C84.9064 38.8743 84.9524 38.9661 84.9873 39.069C85.0215 39.1715 85.0404 39.2896 85.0404 39.4211V41.8195Z" fill="#4169E1"/>
</g>
</g>
</g>
<g id="g68">
<g id="g70">
<g id="g76">
<path id="path84" d="M87.9024 37.7066H87.1023V37.0204H87.9024V37.7066ZM87.9024 41.5155H87.1023V38.3559H87.9024V41.5155Z" fill="#4169E1"/>
</g>
</g>
</g>
<g id="g86">
<g id="g88">
<g id="g94">
<path id="path102" d="M93.6826 41.5156H92.8801V39.762C92.8801 39.6635 92.8642 39.5739 92.827 39.495C92.7904 39.4166 92.7413 39.3489 92.6793 39.2918C92.6191 39.2353 92.5453 39.1916 92.4626 39.1608C92.3794 39.13 92.2896 39.1149 92.1928 39.1149H90.7904V41.5156H89.9874V38.7321C89.9874 38.6795 89.9968 38.6319 90.0175 38.586C90.0382 38.5395 90.0683 38.5004 90.1055 38.4657C90.1421 38.4304 90.1858 38.4041 90.2342 38.3845C90.2826 38.3649 90.3358 38.356 90.3913 38.356H92.1999C92.2985 38.356 92.4071 38.3672 92.5182 38.389C92.6309 38.4086 92.7413 38.4438 92.8524 38.492C92.961 38.5395 93.0667 38.5989 93.1659 38.6733C93.2651 38.7455 93.3554 38.8351 93.431 38.9397C93.5072 39.0427 93.5698 39.1631 93.6158 39.3008C93.6595 39.4362 93.6826 39.5913 93.6826 39.762V41.5156Z" fill="#4169E1"/>
</g>
</g>
</g>
<g id="g104">
<g id="g106">
<g id="g112">
<path id="path120" d="M99.2897 39.4032C99.2897 39.5084 99.2691 39.622 99.2301 39.7424C99.1905 39.865 99.1285 39.9786 99.0405 40.081C98.9532 40.1862 98.8404 40.2736 98.6993 40.3435C98.5587 40.4135 98.3857 40.4487 98.185 40.4487H96.7389V39.7273H98.185C98.2936 39.7273 98.3786 39.6965 98.4389 39.6332C98.4985 39.5694 98.5262 39.4911 98.5262 39.397C98.5262 39.2963 98.4944 39.2196 98.427 39.1631C98.3603 39.106 98.2794 39.0774 98.185 39.0774H96.7389C96.6302 39.0774 96.5452 39.1105 96.485 39.1737C96.4253 39.2375 96.3952 39.3136 96.3952 39.4077V40.4706C96.3952 40.5708 96.4301 40.6497 96.4968 40.7068C96.5635 40.7633 96.6468 40.7919 96.746 40.7919H98.185V41.5156H96.7389C96.6285 41.5156 96.508 41.4982 96.3793 41.4607C96.25 41.4238 96.1325 41.3645 96.0215 41.2816C95.911 41.1982 95.8183 41.0891 95.7445 40.9559C95.6707 40.8226 95.6341 40.6609 95.6341 40.4706V39.4032C95.6341 39.2963 95.6548 39.1827 95.692 39.0623C95.7309 38.9397 95.7953 38.8261 95.8833 38.7237C95.9707 38.6185 96.084 38.5311 96.2246 38.4612C96.3651 38.3912 96.5358 38.356 96.7389 38.356H98.185C98.296 38.356 98.4158 38.3739 98.5451 38.4108C98.6739 38.4478 98.792 38.5093 98.9024 38.5899C99.0134 38.6733 99.1055 38.7825 99.1793 38.9157C99.2531 39.0495 99.2897 39.2112 99.2897 39.4032Z" fill="#4169E1"/>
</g>
</g>
</g>
<g id="g122">
<g id="g124">
<g id="g130">
<path id="path138" d="M104.733 39.4032C104.733 39.5084 104.713 39.622 104.674 39.7424C104.634 39.865 104.572 39.9786 104.484 40.081C104.397 40.1862 104.283 40.2736 104.143 40.3435C104 40.4135 103.829 40.4487 103.629 40.4487H102.182V39.7273H103.629C103.737 39.7273 103.822 39.6965 103.882 39.6332C103.94 39.5694 103.97 39.4911 103.97 39.397C103.97 39.2963 103.937 39.2196 103.871 39.1631C103.804 39.106 103.723 39.0774 103.629 39.0774H102.182C102.071 39.0774 101.989 39.1105 101.929 39.1737C101.869 39.2375 101.839 39.3136 101.839 39.4077V40.4706C101.839 40.5708 101.873 40.6497 101.94 40.7068C102.007 40.7633 102.09 40.7919 102.187 40.7919H103.629V41.5156H102.182C102.071 41.5156 101.952 41.4982 101.822 41.4607C101.694 41.4238 101.574 41.3645 101.465 41.2816C101.354 41.1982 101.262 41.0891 101.188 40.9559C101.114 40.8226 101.078 40.6609 101.078 40.4706V39.4032C101.078 39.2963 101.096 39.1827 101.135 39.0623C101.175 38.9397 101.239 38.8261 101.327 38.7237C101.412 38.6185 101.527 38.5311 101.668 38.4612C101.809 38.3912 101.979 38.356 102.182 38.356H103.629C103.74 38.356 103.859 38.3739 103.988 38.4108C104.115 38.4478 104.235 38.5093 104.346 38.5899C104.454 38.6733 104.547 38.7825 104.621 38.9157C104.697 39.0495 104.733 39.2112 104.733 39.4032Z" fill="#4169E1"/>
</g>
</g>
</g>
<g id="g140">
<g id="g142">
<g id="g148">
<path id="path156" d="M109.506 39.1149H107.702C107.594 39.1149 107.51 39.1412 107.455 39.1933C107.4 39.2459 107.372 39.3204 107.372 39.4211V41.5156H106.569V39.4211C106.569 39.2896 106.588 39.1715 106.622 39.069C106.657 38.9661 106.703 38.8743 106.763 38.7953C106.821 38.717 106.888 38.6493 106.964 38.5944C107.04 38.5379 107.121 38.4936 107.204 38.4589C107.287 38.4237 107.372 38.3979 107.457 38.38C107.543 38.3649 107.621 38.356 107.695 38.356H109.506V39.1149Z" fill="#4169E1"/>
</g>
</g>
</g>
<g id="g158">
<g id="g160">
<g id="g166">
<path id="path174" d="M112.165 37.7066H111.363V37.0204H112.165V37.7066ZM112.165 41.5155H111.363V38.3559H112.165V41.5155Z" fill="#4169E1"/>
</g>
</g>
</g>
<g id="g176">
<g id="g178">
<g id="g184">
<path id="path192" d="M117.943 41.5156H117.14V39.762C117.14 39.6635 117.124 39.5739 117.087 39.495C117.05 39.4166 117.002 39.3489 116.942 39.2918C116.879 39.2353 116.806 39.1916 116.723 39.1608C116.64 39.13 116.55 39.1149 116.453 39.1149H115.051V41.5156H114.248V38.7321C114.248 38.6795 114.259 38.6319 114.278 38.586C114.298 38.5395 114.329 38.5004 114.366 38.4657C114.402 38.4304 114.446 38.4041 114.494 38.3845C114.543 38.3649 114.596 38.356 114.652 38.356H116.46C116.561 38.356 116.667 38.3672 116.778 38.389C116.891 38.4086 117.002 38.4438 117.113 38.492C117.221 38.5395 117.327 38.5989 117.426 38.6733C117.525 38.7455 117.616 38.8351 117.691 38.9397C117.77 39.0427 117.83 39.1631 117.876 39.3008C117.92 39.4362 117.943 39.5913 117.943 39.762V41.5156Z" fill="#4169E1"/>
</g>
</g>
</g>
<g id="g194">
<g id="g196">
<g id="g202">
<path id="path210" d="M123.59 41.8195C123.59 41.9505 123.573 42.0686 123.539 42.1738C123.502 42.2762 123.456 42.368 123.398 42.4469C123.34 42.5259 123.274 42.5936 123.198 42.6501C123.121 42.705 123.043 42.7509 122.96 42.7856C122.877 42.8208 122.791 42.8472 122.706 42.8623C122.621 42.8796 122.54 42.8886 122.464 42.8886H121.017V42.1279H122.464C122.572 42.1279 122.655 42.1016 122.708 42.049C122.761 41.9964 122.789 41.9203 122.789 41.8195V39.4211C122.789 39.3204 122.761 39.2459 122.708 39.1933C122.655 39.1412 122.572 39.1149 122.464 39.1149H121.017C120.918 39.1149 120.84 39.1457 120.782 39.2023C120.725 39.2593 120.697 39.3315 120.697 39.4211V40.4487C120.697 40.5489 120.725 40.6256 120.78 40.6782C120.836 40.7308 120.916 40.7566 121.025 40.7566H122.464V41.5156H121.017C120.941 41.5156 120.861 41.5089 120.778 41.4915C120.692 41.4742 120.609 41.4501 120.526 41.4148C120.444 41.3801 120.363 41.3342 120.286 41.2771C120.21 41.2223 120.144 41.1546 120.086 41.0762C120.028 40.9973 119.982 40.9055 119.948 40.8008C119.913 40.6978 119.894 40.5797 119.894 40.4487V39.4211C119.894 39.3489 119.903 39.2722 119.922 39.1916C119.938 39.1127 119.966 39.0315 120.002 38.9532C120.04 38.8743 120.088 38.7998 120.146 38.7276C120.206 38.6554 120.275 38.5922 120.358 38.5379C120.444 38.483 120.538 38.4394 120.648 38.4063C120.757 38.3716 120.879 38.356 121.017 38.356H122.464C122.54 38.356 122.621 38.3649 122.706 38.38C122.791 38.3979 122.877 38.4237 122.96 38.4589C123.043 38.4936 123.121 38.5379 123.198 38.5944C123.274 38.6493 123.34 38.717 123.398 38.7953C123.456 38.8743 123.502 38.9661 123.539 39.069C123.573 39.1715 123.59 39.2896 123.59 39.4211V41.8195Z" fill="#4169E1"/>
</g>
</g>
</g>
<g id="g212">
<g id="g214">
<g id="g220">
<path id="path228" d="M133.06 41.5155H130.168C130.094 41.5155 130.013 41.5088 129.928 41.4915C129.843 41.4741 129.759 41.45 129.676 41.4148C129.591 41.3801 129.513 41.3342 129.436 41.2771C129.36 41.2222 129.294 41.1545 129.233 41.0761C129.176 40.9972 129.13 40.9054 129.093 40.8008C129.058 40.6978 129.042 40.5797 129.042 40.4487V38.3912C129.042 38.3212 129.049 38.2445 129.067 38.1639C129.086 38.0828 129.111 38.0038 129.148 37.9255C129.187 37.8443 129.233 37.7699 129.294 37.6982C129.353 37.626 129.425 37.5622 129.508 37.5057C129.591 37.4508 129.688 37.4072 129.796 37.3725C129.907 37.3395 130.029 37.3243 130.168 37.3243H133.06V38.0828H130.168C130.062 38.0828 129.983 38.1091 129.925 38.1639C129.87 38.216 129.843 38.2927 129.843 38.3979V40.4487C129.843 40.5466 129.872 40.6211 129.928 40.6759C129.986 40.7286 130.064 40.7565 130.168 40.7565H133.06V41.5155Z" fill="#4169E1"/>
</g>
</g>
</g>
<g id="g230">
<g id="g232">
<g id="g238">
<path id="path246" d="M138.633 40.4487C138.633 40.5797 138.617 40.6978 138.579 40.8008C138.545 40.9055 138.499 40.9973 138.441 41.0762C138.383 41.1546 138.317 41.2223 138.241 41.2771C138.164 41.3342 138.086 41.3801 138.003 41.4148C137.92 41.4501 137.835 41.4742 137.749 41.4915C137.664 41.5089 137.583 41.5156 137.507 41.5156H136.061C135.95 41.5156 135.828 41.4982 135.697 41.4607C135.565 41.4238 135.443 41.3622 135.332 41.2771C135.219 41.1943 135.125 41.0824 135.051 40.9469C134.975 40.8114 134.937 40.6452 134.937 40.4487V39.4211C134.937 39.2241 134.975 39.0601 135.051 38.9246C135.125 38.7892 135.219 38.6795 135.332 38.5944C135.443 38.5093 135.565 38.4478 135.697 38.4108C135.828 38.3739 135.95 38.356 136.061 38.356H137.507C137.713 38.356 137.888 38.3912 138.031 38.4612C138.176 38.5311 138.291 38.6185 138.381 38.7259C138.469 38.8328 138.533 38.9465 138.573 39.0713C138.612 39.1955 138.633 39.3136 138.633 39.4211V40.4487ZM137.83 39.4256C137.83 39.3204 137.802 39.2414 137.747 39.1916C137.692 39.1412 137.613 39.1149 137.507 39.1149H136.068C135.959 39.1149 135.879 39.1412 135.823 39.1933C135.768 39.2459 135.74 39.3204 135.74 39.4211V40.4487C135.74 40.5489 135.768 40.6256 135.823 40.6782C135.879 40.7308 135.959 40.7566 136.068 40.7566H137.507C137.616 40.7566 137.698 40.7308 137.752 40.6782C137.805 40.6256 137.83 40.5489 137.83 40.4487V39.4256Z" fill="#4169E1"/>
</g>
</g>
</g>
<g id="g248">
<g id="g250">
<g id="g256">
<path id="path264" d="M144.325 41.5156H143.525V39.762C143.525 39.6635 143.506 39.5739 143.47 39.495C143.435 39.4166 143.384 39.3489 143.325 39.2918C143.262 39.2353 143.19 39.1916 143.105 39.1608C143.022 39.13 142.932 39.1149 142.835 39.1149H141.433V41.5156H140.63V38.7321C140.63 38.6795 140.642 38.6319 140.663 38.586C140.683 38.5395 140.711 38.5004 140.748 38.4657C140.785 38.4304 140.829 38.4041 140.877 38.3845C140.928 38.3649 140.979 38.356 141.034 38.356H142.842C142.944 38.356 143.05 38.3672 143.163 38.389C143.274 38.4086 143.384 38.4438 143.495 38.492C143.606 38.5395 143.71 38.5989 143.809 38.6733C143.91 38.7455 143.998 38.8351 144.074 38.9397C144.152 39.0427 144.212 39.1631 144.259 39.3008C144.305 39.4362 144.325 39.5913 144.325 39.762V41.5156Z" fill="#4169E1"/>
</g>
</g>
</g>
<g id="g266">
<g id="g268">
<g id="g274">
<path id="path282" d="M149.568 40.4487C149.568 40.5797 149.552 40.6978 149.517 40.8008C149.48 40.9055 149.434 40.9973 149.377 41.0762C149.319 41.1546 149.252 41.2223 149.176 41.2771C149.1 41.3342 149.021 41.3801 148.938 41.4148C148.855 41.4501 148.77 41.4742 148.685 41.4915C148.599 41.5089 148.518 41.5156 148.443 41.5156H146.272V40.7566H148.436C148.546 40.7566 148.627 40.7308 148.682 40.6782C148.74 40.6256 148.768 40.5489 148.768 40.4487C148.756 40.2472 148.648 40.1448 148.443 40.1448H147.199C147.024 40.1448 146.871 40.1163 146.749 40.0569C146.627 39.9982 146.525 39.926 146.45 39.8387C146.371 39.7513 146.316 39.6551 146.281 39.5543C146.249 39.4536 146.23 39.3573 146.23 39.27C146.23 39.1015 146.263 38.9593 146.327 38.8418C146.39 38.7259 146.471 38.6319 146.567 38.5597C146.664 38.4875 146.768 38.4371 146.883 38.4041C146.996 38.3716 147.1 38.356 147.199 38.356H149.171V39.1149H147.206C147.164 39.1149 147.132 39.1217 147.109 39.1301C147.086 39.139 147.068 39.1496 147.056 39.1653C147.044 39.1782 147.038 39.1933 147.036 39.2112C147.033 39.2286 147.033 39.2437 147.033 39.2593C147.036 39.2896 147.042 39.3136 147.052 39.3315C147.063 39.3489 147.075 39.3618 147.091 39.3707C147.105 39.3774 147.123 39.3814 147.144 39.3836C147.163 39.3836 147.181 39.3858 147.199 39.3858H148.443C148.648 39.3858 148.823 39.4211 148.968 39.4911C149.111 39.561 149.227 39.6484 149.317 39.7553C149.404 39.8605 149.469 39.9763 149.508 40.1012C149.55 40.2254 149.568 40.3413 149.568 40.4487Z" fill="#4169E1"/>
</g>
</g>
</g>
<g id="g284">
<g id="g286">
<g id="g292">
<path id="path300" d="M155.092 41.1327C155.092 41.1876 155.081 41.238 155.062 41.2861C155.041 41.332 155.012 41.3734 154.977 41.4064C154.94 41.4411 154.898 41.4674 154.85 41.487C154.802 41.5066 154.748 41.5156 154.693 41.5156H152.88C152.781 41.5156 152.677 41.5044 152.564 41.4848C152.451 41.463 152.34 41.4283 152.232 41.3801C152.124 41.332 152.018 41.2727 151.916 41.1982C151.814 41.1266 151.725 41.0365 151.648 40.934C151.575 40.8288 151.513 40.7085 151.467 40.5708C151.421 40.4353 151.397 40.2825 151.397 40.1096V38.356H152.2V40.1096C152.2 40.2103 152.216 40.2976 152.253 40.3788C152.29 40.4571 152.338 40.5249 152.398 40.5797C152.46 40.6368 152.534 40.6805 152.617 40.7107C152.7 40.7415 152.79 40.7566 152.887 40.7566H154.29V38.356H155.092V41.1327Z" fill="#4169E1"/>
</g>
</g>
</g>
<g id="g302">
<g id="g304">
<g id="g310">
<path id="path318" d="M158.626 41.5155H158.268C158.153 41.5155 158.031 41.4981 157.899 41.4606C157.768 41.4237 157.648 41.3621 157.535 41.2771C157.422 41.1942 157.327 41.0823 157.253 40.9468C157.179 40.8114 157.143 40.6451 157.143 40.4487V37.0204H157.943V40.4487C157.943 40.5427 157.975 40.6166 158.038 40.6737C158.098 40.7285 158.176 40.7565 158.268 40.7565H158.626V41.5155Z" fill="#4169E1"/>
</g>
</g>
</g>
<g id="g320">
<g id="g322">
<g id="g328">
<path id="path336" d="M163.368 39.1149H161.968V41.5155H161.156V39.1149H160.114V38.3559H161.156V37.3243H161.968V38.3559H163.368V39.1149Z" fill="#4169E1"/>
</g>
</g>
</g>
<g id="g338">
<g id="g340">
<g id="g346">
<path id="path354" d="M168.463 40.4706C168.463 40.5752 168.445 40.6889 168.406 40.8092C168.367 40.9318 168.302 41.0454 168.214 41.1506C168.126 41.2531 168.014 41.3404 167.873 41.4103C167.732 41.4803 167.561 41.5156 167.359 41.5156H165.912C165.802 41.5156 165.682 41.4982 165.552 41.4607C165.425 41.4238 165.306 41.3645 165.195 41.2816C165.084 41.1982 164.994 41.0891 164.918 40.9559C164.844 40.8226 164.807 40.6609 164.807 40.4706C164.807 40.3654 164.829 40.2495 164.867 40.1269C164.906 40.0049 164.969 39.8913 165.056 39.786C165.144 39.6831 165.257 39.5957 165.398 39.5258C165.539 39.4558 165.712 39.4211 165.912 39.4211H167.359V40.1448H165.912C165.804 40.1448 165.718 40.1773 165.659 40.2411C165.601 40.3043 165.571 40.3827 165.571 40.4745C165.571 40.5752 165.606 40.6519 165.672 40.7085C165.741 40.7633 165.825 40.7919 165.919 40.7919H167.359C167.467 40.7919 167.552 40.7588 167.612 40.6978C167.672 40.6346 167.702 40.5579 167.702 40.4639V39.4032C167.702 39.303 167.67 39.2241 167.606 39.1653C167.538 39.106 167.458 39.0774 167.359 39.0774H165.598V38.356H167.359C167.469 38.356 167.589 38.3739 167.718 38.4108C167.848 38.4478 167.965 38.5093 168.076 38.5899C168.187 38.6733 168.279 38.7825 168.352 38.9157C168.426 39.0495 168.463 39.2112 168.463 39.4032V40.4706Z" fill="#4169E1"/>
</g>
</g>
</g>
<g id="g356">
<g id="g358">
<g id="g364">
<path id="path372" d="M174.158 41.5156H173.358V39.762C173.358 39.6635 173.34 39.5739 173.302 39.495C173.268 39.4166 173.219 39.3489 173.157 39.2918C173.095 39.2353 173.023 39.1916 172.94 39.1608C172.855 39.13 172.765 39.1149 172.671 39.1149H171.266V41.5156H170.463V38.7321C170.463 38.6795 170.475 38.6319 170.495 38.586C170.516 38.5395 170.544 38.5004 170.581 38.4657C170.617 38.4304 170.661 38.4041 170.71 38.3845C170.76 38.3649 170.814 38.356 170.869 38.356H172.675C172.776 38.356 172.883 38.3672 172.996 38.389C173.106 38.4086 173.217 38.4438 173.328 38.492C173.439 38.5395 173.542 38.5989 173.641 38.6733C173.743 38.7455 173.831 38.8351 173.909 38.9397C173.985 39.0427 174.045 39.1631 174.091 39.3008C174.137 39.4362 174.158 39.5913 174.158 39.762V41.5156Z" fill="#4169E1"/>
</g>
</g>
</g>
<g id="g374">
<g id="g376">
<g id="g382">
<path id="path390" d="M179.408 41.5156H177.233C177.122 41.5156 177.002 41.4982 176.871 41.4607C176.737 41.4238 176.617 41.3622 176.504 41.2771C176.391 41.1943 176.298 41.0824 176.222 40.9469C176.148 40.8114 176.112 40.6452 176.112 40.4487V39.4211C176.112 39.3489 176.119 39.2722 176.137 39.1916C176.153 39.1127 176.181 39.0315 176.218 38.9532C176.255 38.8743 176.303 38.7998 176.363 38.7276C176.421 38.6554 176.492 38.5922 176.575 38.5379C176.659 38.483 176.756 38.4394 176.864 38.4063C176.972 38.3716 177.097 38.356 177.233 38.356H179.408V39.1172H177.233C177.129 39.1172 177.048 39.1412 176.995 39.1916C176.94 39.2414 176.912 39.3204 176.912 39.4256V40.4487C176.912 40.5489 176.94 40.6256 176.995 40.6782C177.051 40.7308 177.133 40.7566 177.24 40.7566H179.408V41.5156Z" fill="#4169E1"/>
</g>
</g>
</g>
<g id="g392">
<g id="g394">
<g id="g400">
<path id="path408" d="M185.063 41.8195C185.063 41.9505 185.048 42.0686 185.01 42.1738C184.976 42.2762 184.93 42.368 184.872 42.4469C184.814 42.5259 184.748 42.5936 184.671 42.6501C184.595 42.705 184.517 42.7509 184.434 42.7856C184.351 42.8208 184.265 42.8472 184.182 42.8623C184.097 42.8796 184.017 42.8886 183.94 42.8886H182.494V42.1279H183.94C184.048 42.1279 184.129 42.1016 184.182 42.049C184.236 41.9964 184.263 41.9203 184.263 41.8195V38.356H185.063V41.8195ZM183.94 41.5156H182.494C182.379 41.5156 182.256 41.4982 182.125 41.4607C181.996 41.4238 181.874 41.3622 181.76 41.2771C181.648 41.1943 181.553 41.0824 181.479 40.9469C181.405 40.8114 181.368 40.6452 181.368 40.4487V38.356H182.171V40.4487C182.171 40.5489 182.198 40.6256 182.254 40.6782C182.31 40.7308 182.393 40.7566 182.501 40.7566H183.94V41.5156Z" fill="#4169E1"/>
</g>
</g>
</g>
<g id="g410">
<g id="g412">
<g id="g418">
<path id="path426" d="M69.7016 33.3514H186V33.8585H69.7016V33.3514Z" fill="#4169E1"/>
</g>
</g>
</g>
<g id="g428">
<g id="g430">
<g id="g436">
<path id="path444" d="M71.819 28.3728C71.2398 28.3728 70.742 28.1741 70.3269 27.7806C69.9094 27.3849 69.7016 26.9147 69.7016 26.3656C69.7016 25.7953 69.9094 25.3145 70.3269 24.9187C70.742 24.5247 71.2398 24.326 71.819 24.326C72.419 24.326 72.9285 24.5247 73.346 24.9187C73.7611 25.3145 73.969 25.7953 73.969 26.3656C73.969 26.9147 73.7611 27.3849 73.346 27.7806C72.9285 28.1741 72.419 28.3728 71.819 28.3728ZM82.5055 8.14673C83.4532 8.14673 84.8762 8.14673 86.7723 8.14673C86.7723 12.6418 86.7723 19.3825 86.7723 28.3728C85.8246 28.3728 84.4015 28.3728 82.5055 28.3728C82.5055 26.1143 82.5055 22.7258 82.5055 18.2105C82.5055 15.9739 82.5055 12.6178 82.5055 8.14673ZM80.3532 22.9138C79.8666 24.1183 79.1398 25.9397 78.1667 28.3728C76.2937 23.8777 73.473 17.1347 69.7016 8.14673C70.6493 8.14673 72.0611 8.14673 73.9341 8.14673C75.346 11.4133 77.4864 16.3349 80.3532 22.9138Z" fill="#4169E1"/>
</g>
</g>
</g>
<g id="g446">
<g id="g448">
<g id="g454">
<path id="path462" d="M94.9604 28.3727C93.7794 28.3727 92.7739 27.977 91.9413 27.1878C91.1087 26.3986 90.6936 25.4454 90.6936 24.326C90.6936 23.4271 90.6936 22.0804 90.6936 20.2809C90.6936 19.1855 91.1087 18.2435 91.9413 17.4543C92.7739 16.6645 93.7794 16.2688 94.9604 16.2688C94.9604 18.9454 94.9604 22.9793 94.9604 28.3727ZM99.2278 24.326C99.2278 23.6481 99.2278 22.6379 99.2278 21.3024C99.2278 20.1829 99.2278 18.5054 99.2278 16.2688C100.383 16.2688 101.379 16.6645 102.213 17.4543C103.045 18.2435 103.46 19.1855 103.46 20.2809C103.46 21.4003 103.045 22.3541 102.213 23.1433C101.379 23.9325 100.383 24.326 99.2278 24.326Z" fill="#4169E1"/>
</g>
</g>
</g>
<g id="g464">
<g id="g466">
<g id="g472">
<path id="path480" d="M110.954 28.3727C109.775 28.3727 108.768 27.977 107.935 27.1878C107.102 26.3986 106.687 25.4454 106.687 24.326C106.687 23.4271 106.687 22.0804 106.687 20.2809C106.687 19.1855 107.102 18.2435 107.935 17.4543C108.768 16.6645 109.775 16.2688 110.954 16.2688C110.954 18.9454 110.954 22.9793 110.954 28.3727ZM115.221 24.326C115.221 23.6481 115.221 22.6379 115.221 21.3024C115.221 20.1829 115.221 18.5054 115.221 16.2688C116.379 16.2688 117.373 16.6645 118.206 17.4543C119.039 18.2435 119.454 19.1855 119.454 20.2809C119.454 21.4003 119.039 22.3541 118.206 23.1433C117.373 23.9325 116.379 24.326 115.221 24.326Z" fill="#4169E1"/>
</g>
</g>
</g>
<g id="g482">
<g id="g484">
<g id="g490">
<path id="path498" d="M122.681 16.2363C123.629 16.2363 125.052 16.2363 126.948 16.2363C126.948 18.9342 126.948 22.9793 126.948 28.3727C126 28.3727 124.579 28.3727 122.681 28.3727C122.681 25.6749 122.681 21.6303 122.681 16.2363ZM135.484 28.3727C134.536 28.3727 133.113 28.3727 131.217 28.3727C131.217 27.035 131.217 25.0279 131.217 22.3541C131.217 20.9939 131.217 18.956 131.217 16.2363C132.396 16.2363 133.402 16.6321 134.234 17.4213C135.067 18.2105 135.484 19.1637 135.484 20.2809C135.484 22.0804 135.484 24.7765 135.484 28.3727ZM143.984 28.3727C143.036 28.3727 141.613 28.3727 139.717 28.3727C139.717 27.363 139.717 25.8501 139.717 23.834C139.717 22.1459 139.717 19.612 139.717 16.2363C140.895 16.2363 141.903 16.6321 142.736 17.4213C143.569 18.2105 143.984 19.1637 143.984 20.2809C143.984 22.0804 143.984 24.7765 143.984 28.3727Z" fill="#4169E1"/>
</g>
</g>
</g>
<g id="g500">
<g id="g502">
<g id="g508">
<path id="path516" d="M160.637 18.2435C160.637 18.768 160.429 19.2292 160.014 19.6232C159.597 20.0189 159.11 20.2154 158.556 20.2154C157.978 20.2154 157.479 20.0189 157.064 19.6232C156.647 19.2292 156.44 18.768 156.44 18.2435C156.44 17.6944 156.647 17.2226 157.064 16.8285C157.479 16.4328 157.978 16.2364 158.556 16.2364C159.156 16.2364 159.666 16.4328 160.083 16.8285C160.452 17.2002 160.637 17.6289 160.637 18.112C160.637 18.1562 160.637 18.1999 160.637 18.2435ZM164.976 12.1913C164.976 11.0741 165.391 10.1186 166.224 9.32942C167.056 8.54021 168.062 8.14673 169.243 8.14673C169.243 12.6418 169.243 19.3825 169.243 28.3728C168.295 28.3728 166.872 28.3728 164.976 28.3728C164.976 26.6175 164.976 23.998 164.976 20.5126C164.976 18.6695 164.976 15.8972 164.976 12.1913Z" fill="#4169E1"/>
</g>
</g>
</g>
<g id="g518">
<g id="g520">
<g id="g526">
<path id="path534" d="M177.5 16.2033C176.273 16.2033 175.244 15.8098 174.412 15.0206C173.579 14.2532 173.162 13.3084 173.162 12.1912C173.162 11.0499 173.579 10.0861 174.412 9.29634C175.244 8.50713 176.273 8.11365 177.5 8.11365C177.5 9.91091 177.5 12.6065 177.5 16.2033ZM181.698 8.11365C182.923 8.11365 183.954 8.4965 184.787 9.26387C185.596 10.0531 186 10.9956 186 12.0927C186 13.2541 185.571 14.2314 184.715 15.0206C183.86 15.8098 182.854 16.2033 181.698 16.2033C181.698 15.5232 181.698 14.5045 181.698 13.1444C181.698 12.0272 181.698 10.3503 181.698 8.11365ZM181.698 16.0723C182.923 16.0723 183.954 16.477 184.787 17.288C185.596 18.1231 186 19.0875 186 20.1829C186 21.0812 186 22.4414 186 24.2605C186 25.4235 185.571 26.3986 184.715 27.1878C183.86 27.977 182.854 28.3727 181.698 28.3727C181.698 27.3411 181.698 25.8058 181.698 23.7685C181.698 22.0585 181.698 19.4916 181.698 16.0723ZM177.5 28.3727C176.319 28.3727 175.302 27.977 174.447 27.1878C173.591 26.3986 173.162 25.4235 173.162 24.2605C173.162 23.3615 173.162 22.002 173.162 20.1829C173.162 19.0875 173.579 18.1231 174.412 17.288C175.244 16.477 176.273 16.0723 177.5 16.0723C177.5 18.8116 177.5 22.9138 177.5 28.3727Z" fill="#4169E1"/>
</g>
</g>
</g>
<g id="g536">
<g id="g538">
<g id="g544">
<path id="path552" fill-rule="evenodd" clip-rule="evenodd" d="M52.7159 18.318H45.2175L45.2151 18.3157H34.4944L26.9104 25.502L26.908 15.3374L26.9033 5.17069L21.9191 0.443858C23.5334 0.157281 25.1992 0 26.9033 0C31.5769 0 35.9706 1.13063 39.7969 3.11764L34.4944 8.14672L34.4968 18.3112L42.0785 11.1267L42.0832 11.1177L42.0809 4.44697C47.1389 7.73085 50.9492 12.6088 52.7159 18.318ZM26.9104 25.502H16.1779L16.1714 25.5064L5.43888 25.5042L5.43415 25.5109L5.43888 25.5154L0.468248 30.2249C0.165924 28.6924 0 27.1156 0 25.5003C0 21.0723 1.19276 16.9097 3.28659 13.2822L8.59202 18.3112H19.3245L11.7381 11.1244H4.68484C8.1468 6.32539 13.2952 2.70904 19.3198 1.03436V8.14448L19.3263 8.15064L19.3245 18.3157L26.9104 25.502ZM26.9104 25.502H37.6334L37.6358 25.5064H48.3588L48.3659 25.5042L53.3389 20.7886C53.6389 22.3144 53.8048 23.8888 53.8048 25.5003C53.8048 29.9277 52.6126 34.0903 50.5205 37.7178L45.208 32.6848H34.4897L26.9104 25.502ZM26.9104 25.502V35.6693L26.908 35.6648V45.8338L31.8881 50.5561C30.2737 50.845 28.608 51 26.9033 51C22.2326 51 17.8436 49.8738 14.0167 47.8891L19.3103 42.8689L19.3127 42.8734L19.3174 42.8689L19.3198 42.8757V32.6977L11.7263 39.889L11.731 39.8952H11.7357V46.562C6.67297 43.2798 2.86027 38.4018 1.09356 32.6932H8.57785V32.6977H8.58257V32.7067L8.59674 32.6932H19.3198L26.9104 25.502ZM34.5015 32.6955L42.0762 39.8756H49.1223C45.6603 44.6746 40.5143 48.291 34.4897 49.9662V42.86L34.4944 42.8622L34.4897 32.7L34.5015 32.7022V32.6955Z" fill="#4169E1"/>
</g>
</g>
</g>
</g>
</svg>
