<svg width="54" height="51" viewBox="0 0 54 51" fill="none" xmlns="http://www.w3.org/2000/svg">
<g id="g536">
<g id="g538">
<g id="g544">
<path id="path552" fill-rule="evenodd" clip-rule="evenodd" d="M52.7159 18.318H45.2175L45.2151 18.3157H34.4944L26.9104 25.502L26.908 15.3374L26.9033 5.17069L21.9191 0.443858C23.5334 0.157281 25.1992 0 26.9033 0C31.5769 0 35.9706 1.13063 39.7969 3.11764L34.4944 8.14672L34.4968 18.3112L42.0785 11.1267L42.0832 11.1177L42.0809 4.44697C47.1389 7.73085 50.9492 12.6088 52.7159 18.318ZM26.9104 25.502H16.1779L16.1714 25.5064L5.43888 25.5042L5.43415 25.5109L5.43888 25.5154L0.468248 30.2249C0.165924 28.6924 0 27.1156 0 25.5003C0 21.0723 1.19276 16.9097 3.28659 13.2822L8.59202 18.3112H19.3245L11.7381 11.1244H4.68484C8.1468 6.32539 13.2952 2.70904 19.3198 1.03436V8.14448L19.3263 8.15064L19.3245 18.3157L26.9104 25.502ZM26.9104 25.502H37.6334L37.6358 25.5064H48.3588L48.3659 25.5042L53.3389 20.7886C53.6389 22.3144 53.8048 23.8888 53.8048 25.5003C53.8048 29.9277 52.6126 34.0903 50.5205 37.7178L45.208 32.6848H34.4897L26.9104 25.502ZM26.9104 25.502V35.6693L26.908 35.6648V45.8338L31.8881 50.5561C30.2737 50.845 28.608 51 26.9033 51C22.2326 51 17.8436 49.8738 14.0167 47.8891L19.3103 42.8689L19.3127 42.8734L19.3174 42.8689L19.3198 42.8757V32.6977L11.7263 39.889L11.731 39.8952H11.7357V46.562C6.67297 43.2798 2.86027 38.4018 1.09356 32.6932H8.57785V32.6977H8.58257V32.7067L8.59674 32.6932H19.3198L26.9104 25.502ZM34.5015 32.6955L42.0762 39.8756H49.1223C45.6603 44.6746 40.5143 48.291 34.4897 49.9662V42.86L34.4944 42.8622L34.4897 32.7L34.5015 32.7022V32.6955Z" fill="#080D41"/>
</g>
</g>
</g>
</svg>
