<svg width="15" height="15" viewBox="0 0 15 15" fill="none" xmlns="http://www.w3.org/2000/svg">
<path d="M3.19501 14.6001H0.288757V5.25635H3.19501V14.6001ZM1.72626 4.00635C0.820007 4.00635 0.0700073 3.2251 0.0700073 2.2876C0.0700073 1.38135 0.820007 0.631348 1.72626 0.631348C2.66376 0.631348 3.41376 1.38135 3.41376 2.2876C3.41376 3.2251 2.66376 4.00635 1.72626 4.00635ZM14.0388 14.6001H11.1638V10.0688C11.1638 8.9751 11.1325 7.6001 9.63251 7.6001C8.13251 7.6001 7.91376 8.75635 7.91376 9.9751V14.6001H5.00751V5.25635H7.78876V6.5376H7.82001C8.22626 5.81885 9.16376 5.0376 10.57 5.0376C13.5075 5.0376 14.07 6.9751 14.07 9.4751V14.6001H14.0388Z" fill="white"/>
</svg>
