<svg width="13" height="17" viewBox="0 0 13 17" fill="none" xmlns="http://www.w3.org/2000/svg">
<path d="M6.64502 0.818848C9.58252 0.818848 12.27 2.8501 12.27 5.94385C12.27 8.8501 10.77 12.1001 7.45752 12.1001C6.64502 12.1001 5.67627 11.6938 5.27002 10.9751C4.58252 13.7876 4.61377 14.2251 3.05127 16.3813C2.89502 16.4438 2.92627 16.4438 2.83252 16.3188C2.77002 15.7251 2.70752 15.1626 2.70752 14.5688C2.70752 12.6626 3.58252 9.88135 4.02002 8.0376C3.77002 7.5376 3.70752 6.9751 3.70752 6.44385C3.70752 3.94385 6.64502 3.56885 6.64502 5.63135C6.64502 6.8501 5.80127 8.00635 5.80127 9.19385C5.80127 9.9751 6.48877 10.5376 7.27002 10.5376C9.42627 10.5376 10.0825 7.44385 10.0825 5.7876C10.0825 3.56885 8.52002 2.3501 6.36377 2.3501C3.89502 2.3501 1.98877 4.13135 1.98877 6.63135C1.98877 7.8501 2.73877 8.4751 2.73877 8.75635C2.73877 9.00635 2.55127 9.8501 2.23877 9.8501C1.48877 9.8501 0.27002 8.6001 0.27002 6.4126C0.27002 2.94385 3.42627 0.818848 6.64502 0.818848Z" fill="white"/>
</svg>
