<svg width="17" height="14" viewBox="0 0 17 14" fill="none" xmlns="http://www.w3.org/2000/svg">
<path d="M15.2238 3.3501C15.2238 3.50635 15.2238 3.63135 15.2238 3.7876C15.2238 8.13135 11.9425 13.1001 5.91125 13.1001C4.03625 13.1001 2.3175 12.5688 0.880005 11.6313C1.13 11.6626 1.38 11.6938 1.66125 11.6938C3.1925 11.6938 4.59875 11.1626 5.72375 10.2876C4.28625 10.2563 3.0675 9.31885 2.66125 8.00635C2.88 8.0376 3.0675 8.06885 3.28625 8.06885C3.5675 8.06885 3.88 8.00635 4.13 7.94385C2.63 7.63135 1.505 6.31885 1.505 4.7251V4.69385C1.9425 4.94385 2.47375 5.06885 3.005 5.1001C2.09875 4.50635 1.53625 3.50635 1.53625 2.38135C1.53625 1.75635 1.6925 1.19385 1.97375 0.725098C3.59875 2.69385 6.03625 4.00635 8.755 4.1626C8.6925 3.9126 8.66125 3.6626 8.66125 3.4126C8.66125 1.6001 10.13 0.131348 11.9425 0.131348C12.88 0.131348 13.7238 0.506348 14.3488 1.1626C15.0675 1.00635 15.7863 0.725098 16.4113 0.350098C16.1613 1.13135 15.6613 1.75635 14.9738 2.1626C15.63 2.1001 16.2863 1.9126 16.8488 1.6626C16.4113 2.31885 15.8488 2.88135 15.2238 3.3501Z" fill="white"/>
</svg>
