<svg width="18" height="13" viewBox="0 0 18 13" fill="none" xmlns="http://www.w3.org/2000/svg">
<path d="M17.6063 2.50635C17.9813 3.81885 17.9813 6.63135 17.9813 6.63135C17.9813 6.63135 17.9813 9.4126 17.6063 10.7563C17.4188 11.5063 16.825 12.0688 16.1063 12.2563C14.7625 12.6001 9.45001 12.6001 9.45001 12.6001C9.45001 12.6001 4.10626 12.6001 2.76251 12.2563C2.04376 12.0688 1.45001 11.5063 1.26251 10.7563C0.887512 9.4126 0.887512 6.63135 0.887512 6.63135C0.887512 6.63135 0.887512 3.81885 1.26251 2.50635C1.45001 1.75635 2.04376 1.1626 2.76251 0.975098C4.10626 0.600098 9.45001 0.600098 9.45001 0.600098C9.45001 0.600098 14.7625 0.600098 16.1063 0.975098C16.825 1.1626 17.4188 1.75635 17.6063 2.50635ZM7.70001 9.1626L12.1375 6.63135L7.70001 4.1001V9.1626Z" fill="white"/>
</svg>
