<svg width="64" height="64" viewBox="0 0 64 64" fill="none" xmlns="http://www.w3.org/2000/svg">
<g id="customer-service 1">
<g id="Group">
<path id="Vector" d="M28.825 1.15C25.8375 1.4875 20.625 3.125 19.6625 4.0375C19.175 4.4875 19.2875 4.8875 20.525 7.05C21.7375 9.1625 22.1875 9.75 22.6 9.75C22.7375 9.75 23.4875 9.4875 24.275 9.175C25.9875 8.4875 27.675 8.05 29.5375 7.8C31.5375 7.5375 31.425 7.7375 31.475 4.4375L31.5125 1.75L31.1375 1.375C30.725 0.962501 30.5875 0.950001 28.825 1.15ZM29.5 4.425C29.5 5.8875 29.575 5.7875 28.4375 5.9375C27.5375 6.05 25.5625 6.5625 24.3375 7C23.75 7.2 23.2125 7.375 23.15 7.375C23.075 7.375 22.7375 6.8875 22.3875 6.275L21.7625 5.1875L22.0625 5.025C23.4375 4.3125 27.6375 3.175 29.1 3.1375L29.5 3.125V4.425Z" fill="#4169E1"/>
<path id="Vector_2" d="M33.2375 1.37498L32.8625 1.74998L32.9 4.43748C32.95 7.67498 32.8875 7.56248 34.5 7.74998C39.45 8.36248 43.475 10.325 47 13.8625C48.8875 15.75 50.0875 17.4 51.125 19.5625C52.5625 22.525 53.3375 26.075 53.225 29.175L53.1875 30.2875L52.45 30.4375C51.35 30.6625 50.825 31.3875 51.075 32.325C51.1875 32.7625 55.1625 37.925 55.7875 38.45C56.2875 38.8625 57.1 38.8625 57.6 38.4375C57.9125 38.175 61.5625 33.625 62.1625 32.75C62.65 32.0375 62.225 30.825 61.375 30.5375C61.1375 30.45 60.7 30.3875 60.425 30.3875L59.9125 30.375L59.8375 27.8375C59.7875 25.825 59.7125 24.975 59.45 23.625C58.3125 17.75 55.6875 12.8625 51.425 8.73748C47 4.46248 41.3875 1.81248 35.3125 1.12498C33.725 0.949982 33.65 0.962482 33.2375 1.37498ZM37.5625 3.51248C45.7375 5.19998 52.8875 11.2125 56.0375 19.0625C57.4375 22.5375 57.9125 25.225 57.8625 29.35C57.825 32.35 57.8 32.275 59.0875 32.375L59.9125 32.4375L58.325 34.4375C57.4625 35.5375 56.725 36.425 56.675 36.4125C56.6375 36.4 55.9 35.5 55.05 34.4125C53.5375 32.5 53.5 32.4375 53.8375 32.4C55 32.2875 55.1 32.0875 55.2 29.725C55.375 25.825 54.6 22.075 52.875 18.5625C50.1625 13.0125 45.3 8.74998 39.5 6.82498C38.4 6.46248 37.4375 6.23748 35.1625 5.79998C34.8875 5.74998 34.875 5.69998 34.875 4.41248V3.08748L35.5875 3.17498C35.9875 3.22498 36.875 3.37498 37.5625 3.51248Z" fill="#4169E1"/>
<path id="Vector_3" d="M15.6125 6.46252C13.95 7.68752 11.1875 10.45 9.9625 12.1125C9.1625 13.175 9 13.4875 9 13.875C9 14.1625 9.0875 14.4125 9.225 14.525C9.4625 14.7375 13.45 17.05 13.775 17.1625C14.225 17.325 14.6875 16.9875 15.375 16.0375C16.2625 14.8 18.1625 12.8875 19.5 11.8625C20.9875 10.725 20.9875 10.7375 19.425 8.03752C18.7625 6.87502 18.1375 5.83752 18.025 5.71252C17.9125 5.58752 17.6625 5.50002 17.375 5.50002C16.9875 5.50002 16.675 5.66252 15.6125 6.46252ZM17.7375 9.08752L18.375 10.1875L17.9 10.55C17.3 11.025 14.6875 13.65 14.125 14.3375L13.6875 14.875L12.6 14.2375C11.9875 13.8875 11.5 13.55 11.5 13.475C11.5 13.2625 12.8375 11.65 13.9375 10.55C15.0625 9.41252 16.7375 8.00002 16.9625 8.00002C17.0375 8.00002 17.3875 8.48752 17.7375 9.08752Z" fill="#4169E1"/>
<path id="Vector_4" d="M31.625 12.325C29.1125 12.9875 27.0375 15.125 26.4375 17.6625C25.8625 20.0875 26.55 22.5375 28.3125 24.3375L29.1875 25.225L28.25 25.6125C26.3625 26.3875 24.4125 27.8625 23.0625 29.525C21.125 31.9375 19.6375 36.3875 20.5 37.25C20.75 37.5 20.9125 37.5 33.425 37.5C45.725 37.5 46.1 37.4875 46.3875 37.2625C46.775 36.95 46.7625 36.2375 46.375 34.6875C45.625 31.6875 43.9125 29.075 41.4875 27.2625C40.5625 26.55 38.6625 25.5125 38.0125 25.3375C37.725 25.2625 37.7375 25.225 38.575 24.35C40.025 22.8125 40.625 21.35 40.6375 19.3625C40.6375 17.275 40.0125 15.7625 38.5 14.2375C37.475 13.2 36.2875 12.525 35.025 12.2625C34.1125 12.075 32.45 12.1 31.625 12.325ZM35.65 14.5875C36.75 15.1 37.65 16 38.1625 17.1C38.5375 17.8875 38.5625 18.025 38.5625 19.3125C38.5625 20.6 38.5375 20.7375 38.1625 21.525C37.65 22.625 36.75 23.525 35.65 24.0375C34.8625 24.4125 34.725 24.4375 33.4375 24.4375C32.225 24.4375 31.9875 24.4 31.375 24.1125C26.9625 22.025 27.325 15.8125 31.9375 14.2875C32.25 14.1875 32.8875 14.1375 33.625 14.1625C34.6625 14.1875 34.925 14.25 35.65 14.5875ZM36.1125 26.8875C37.3625 27.175 38.975 27.9125 40.05 28.675C41.075 29.4125 42.575 31.0125 43.1625 32.0125C43.65 32.8375 44.2875 34.375 44.4375 35.0875L44.525 35.5H33.45C27.3625 35.5 22.375 35.475 22.375 35.45C22.375 35.425 22.4875 35.0125 22.6375 34.55C23.95 30.275 27.65 27.1875 32.125 26.625C33.225 26.4875 34.8375 26.5875 36.1125 26.8875Z" fill="#4169E1"/>
<path id="Vector_5" d="M7.53751 16.15C7.23751 16.475 6.31251 18.5875 5.83751 20.0625C5.30001 21.675 4.88751 23.5625 4.66251 25.3875C4.47501 27.0125 4.47501 27.125 4.67501 27.4375C5.02501 27.9625 5.36251 28.0125 8.08751 27.975C11.2125 27.925 11.075 28.0125 11.325 26.1C11.5375 24.45 11.975 22.7625 12.5625 21.25C12.8125 20.6 13.0875 19.8625 13.15 19.6125C13.425 18.7375 13.325 18.6375 10.8375 17.2C8.38751 15.775 8.00001 15.65 7.53751 16.15ZM10.5375 19.3375C10.9 19.5625 11 19.6875 10.925 19.85C10.5375 20.75 9.85001 23.0625 9.62501 24.25C9.47501 25.0375 9.32501 25.7625 9.30001 25.8375C9.27501 25.95 8.88751 26 7.93751 26C6.41251 26 6.52501 26.1625 6.82501 24.3625C7.11251 22.65 7.56251 21 8.13751 19.5375L8.65001 18.25L9.35001 18.65C9.75001 18.8625 10.275 19.175 10.5375 19.3375Z" fill="#4169E1"/>
<path id="Vector_6" d="M4.875 29.7375C4.4375 30.1625 4.4375 30.2375 4.6875 32.2125C5.025 34.8 5.7625 37.4625 6.8125 39.875C7.35 41.1375 7.65 41.5 8.1625 41.5C8.55 41.5 12.4 39.3625 12.975 38.8375C13.3625 38.475 13.325 38.1625 12.675 36.55C11.9875 34.825 11.5625 33.175 11.3125 31.3375C11.0625 29.3375 11.2375 29.45 7.9375 29.4L5.25 29.3625L4.875 29.7375ZM9.5 32.6875C9.75 34.1375 10.1375 35.55 10.625 36.85L10.975 37.7625L10.7125 37.925C10.5625 38.0125 10.05 38.325 9.5625 38.6125L8.6875 39.125L8.4875 38.7125C7.8625 37.5125 6.9125 34 6.6875 32.0875L6.6 31.3625L7.9375 31.4L9.2875 31.4375L9.5 32.6875Z" fill="#4169E1"/>
<path id="Vector_7" d="M19.5 39.4625C18.4125 39.75 17.075 40.4375 13.125 42.725L9.4375 44.8625L9.2 44.4625C8.525 43.325 8.3625 43.1375 7.8125 42.875C6.825 42.4 6.125 42.5375 4.25 43.6C2.0375 44.8625 1.625 45.325 1.625 46.55C1.625 47.2375 1.6 47.2 6.4125 55.6875C10.5 62.9125 10.4375 62.825 11.7625 62.9625C12.375 63.025 12.525 62.975 13.375 62.5375C15.5125 61.4375 16.3875 60.8375 16.725 60.2625C17.3 59.2875 17.175 58.4625 16.2375 56.925L16.0125 56.55L16.7 56.15C17.0875 55.925 17.475 55.75 17.5625 55.75C17.6625 55.75 20.5625 56.5125 24.025 57.4625L30.3125 59.1625L31.75 59.175C34.25 59.2 33.0625 59.8 45.9375 51.8875C54 46.9375 54.275 46.7375 54.675 45.4375C55.0125 44.3875 54.9125 43.0125 54.4375 42.1375C53.2375 39.9375 50.45 39.575 47.1875 41.2125C46.7125 41.4625 44.0625 42.9625 41.3125 44.575C38.55 46.175 36.1 47.575 35.85 47.675L35.4 47.8625L35.575 47.2875C35.9625 45.9875 35.6875 44.75 34.7875 43.75C34.0375 42.9125 33.6375 42.725 31.4875 42.2C29.575 41.7375 28.5 41.4 24.6875 40.075C22.4625 39.3 22.2625 39.25 21.25 39.2625C20.6625 39.2625 19.875 39.35 19.5 39.4625ZM23.6875 41.825C27.35 43.1125 29.025 43.65 30.75 44.075C32.85 44.6 33.175 44.75 33.5 45.2875C33.95 46.025 33.7125 47.2 33.0375 47.5375C32.1625 47.9875 31.8125 47.9375 27.8 46.825C26.425 46.4375 25.175 46.125 25.0125 46.125C24.65 46.125 24.125 46.6625 24.125 47.05C24.125 47.8 24.325 47.925 26.3125 48.475C32.6 50.2375 34.4125 50.425 36.4875 49.575C36.875 49.425 39.575 47.9 42.5 46.1875C45.425 44.4875 48.175 42.9375 48.625 42.7375C51.1875 41.65 52.875 42.2 52.875 44.125C52.875 44.475 52.7875 44.925 52.6875 45.1125C52.4375 45.6 34.7 56.55 33.5 56.9625C32.375 57.35 31.375 57.325 29.6875 56.8875C28.9375 56.6875 25.8875 55.875 22.9125 55.075C19.9375 54.275 17.4125 53.625 17.3 53.625C17.1875 53.625 16.6375 53.8875 16.0875 54.2C15.55 54.5125 15.05 54.725 15 54.6625C14.8375 54.4875 10.5 46.775 10.5 46.6625C10.5 46.5625 16.4375 43.075 18.125 42.2C20.3 41.05 21.3 40.9875 23.6875 41.825ZM11.075 51.85C14 57 15.1 59.0625 15.025 59.2C14.875 59.4625 12.125 61.0125 11.8875 60.975C11.6375 60.925 3.6125 46.775 3.65 46.4625C3.7 46.175 6.3375 44.6375 6.7375 44.6625C6.9875 44.6875 7.6125 45.7125 11.075 51.85Z" fill="#4169E1"/>
<path id="Vector_8" d="M5.675 46.6625C5.0125 47.2375 5.4 48.2875 6.2625 48.2875C6.675 48.2875 7.25 47.8 7.25 47.4375C7.25 47.1 6.9625 46.65 6.6625 46.5125C6.225 46.3125 6.05 46.3375 5.675 46.6625Z" fill="#4169E1"/>
</g>
</g>
</svg>
