<svg width="64" height="64" viewBox="0 0 64 64" fill="none" xmlns="http://www.w3.org/2000/svg">
<g id="review-_1_ 1" clip-path="url(#clip0_53_3390)">
<g id="Group">
<path id="Vector" d="M34.95 0.275002C34.7875 0.437501 34.2375 1.4625 33.7375 2.5625C33.25 3.6625 32.8375 4.575 32.825 4.575C32.825 4.5875 31.975 4.6875 30.9375 4.8C28.3125 5.0875 28.125 5.125 27.8625 5.3875C27.7125 5.5375 27.625 5.8 27.625 6.0875C27.625 6.5125 27.725 6.6375 28.775 7.6125C29.4125 8.2 30.2 8.9375 30.525 9.25L31.125 9.8125L30.6625 12.15L30.2 14.4875L30.45 14.8375C30.9375 15.4875 31.3375 15.4 33.5125 14.175C34.575 13.575 35.5 13.0875 35.575 13.0875C35.6375 13.0875 36.5625 13.575 37.625 14.175C39.775 15.4 40.1875 15.4875 40.675 14.8375L40.925 14.4875L40.4625 12.15L40 9.8125L40.5375 9.3125C40.825 9.0375 41.6125 8.3 42.2875 7.6875C43.4 6.65 43.5 6.5125 43.5 6.0875C43.5 5.8 43.4125 5.5375 43.2625 5.3875C43 5.125 42.8125 5.0875 40.1875 4.8C39.1625 4.6875 38.3 4.5875 38.3 4.575C38.2875 4.575 37.875 3.6625 37.375 2.5625C36.475 0.525002 36.1 9.53674e-07 35.5625 9.53674e-07C35.4 9.53674e-07 35.125 0.125001 34.95 0.275002ZM36.2625 4.925C36.5625 5.6 36.925 6.2375 37.0625 6.325C37.2 6.4125 37.95 6.55 38.725 6.6375C39.4875 6.725 40.125 6.825 40.125 6.875C40.125 6.925 39.65 7.4 39.075 7.925C38.4875 8.45 37.975 9 37.9375 9.125C37.9 9.2625 37.9875 9.9875 38.1375 10.75C38.2875 11.5125 38.3875 12.1625 38.35 12.1875C38.325 12.225 37.7375 11.9375 37.05 11.5625C36.375 11.1875 35.7 10.875 35.5625 10.875C35.425 10.875 34.75 11.1875 34.075 11.5625C33.3875 11.9375 32.8 12.25 32.75 12.25C32.7 12.25 32.7875 11.65 32.95 10.9C33.1125 10.1625 33.2125 9.4125 33.175 9.225C33.1375 9 32.725 8.5375 32.05 7.925C31.475 7.4 31 6.925 31 6.875C31 6.825 31.625 6.725 32.4 6.6375C33.1625 6.5625 33.9 6.425 34.025 6.3625C34.2375 6.25 34.9625 4.85 35.3875 3.7625C35.5375 3.375 35.6 3.45 36.2625 4.925Z" fill="#4169E1"/>
<path id="Vector_2" d="M21.4625 4.65C21.35 4.7375 20.8375 5.7375 20.3125 6.8625C19.8 8 19.3375 8.95 19.3 8.9875C19.2625 9.025 18.1875 9.175 16.9125 9.325C14.825 9.5625 14.55 9.625 14.35 9.875C14.125 10.15 14.05 10.825 14.225 11.0625C14.275 11.1375 14.7375 11.5875 15.25 12.0625C15.7625 12.5375 16.5125 13.225 16.9125 13.6L17.6375 14.275L17.1875 16.4875C16.95 17.7 16.75 18.7875 16.75 18.9125C16.75 19.25 17.3125 19.75 17.7 19.75C17.8875 19.75 18.875 19.275 20.025 18.625C21.1125 18 22.025 17.5 22.0625 17.5C22.1 17.5 23.0125 18 24.1 18.625C25.25 19.275 26.2375 19.75 26.425 19.75C26.85 19.75 27.375 19.2375 27.375 18.825C27.375 18.65 27.175 17.5625 26.9375 16.4125L26.4875 14.3125L27.275 13.5625C27.7125 13.15 28.5 12.4125 29.0375 11.9125C29.875 11.125 30 10.9625 30 10.5875C30 9.725 29.7875 9.625 27.425 9.3625C26.2625 9.225 25.2 9.0875 25.05 9.0625C24.85 9.0125 24.5625 8.5125 23.8125 6.875C23.275 5.7 22.7375 4.6875 22.6125 4.6125C22.3 4.45 21.7125 4.475 21.4625 4.65ZM23.125 10.25C23.125 10.3125 23.2875 10.4875 23.4875 10.65C23.7875 10.9125 24.0875 10.9875 25.3125 11.125L26.775 11.2875L25.65 12.3375C25.025 12.9125 24.4875 13.4875 24.45 13.6C24.4 13.725 24.5125 14.4875 24.675 15.2875C24.8375 16.0875 24.9375 16.75 24.9125 16.75C24.875 16.75 24.3 16.4375 23.6375 16.0625C22.9625 15.6875 22.2625 15.375 22.075 15.375C21.8875 15.375 21.175 15.6875 20.5 16.0625C19.825 16.4375 19.25 16.75 19.2125 16.75C19.1875 16.75 19.2875 16.0875 19.45 15.2875C19.6125 14.4875 19.725 13.725 19.6875 13.6125C19.6375 13.4875 19.1125 12.9125 18.5 12.3375L17.375 11.2875L18.725 11.1375C20.6 10.925 20.6375 10.9 21.1875 9.775C21.4375 9.25 21.7375 8.5875 21.85 8.325L22.05 7.825L22.5875 8.9875C22.8875 9.6375 23.125 10.2 23.125 10.25Z" fill="#4169E1"/>
<path id="Vector_3" d="M48.4875 4.625C48.375 4.6875 47.85 5.7 47.3125 6.875C46.5625 8.5125 46.275 9.0125 46.075 9.0625C45.925 9.0875 44.875 9.225 43.7125 9.35C41.325 9.625 41.125 9.7125 41.125 10.525C41.125 10.975 41.2 11.0875 42.0875 11.9125C42.625 12.4125 43.4125 13.15 43.8375 13.5625L44.625 14.3125L44.1875 16.4125C43.95 17.575 43.75 18.65 43.75 18.825C43.75 19.2375 44.275 19.75 44.7 19.75C44.8875 19.75 45.8875 19.2625 47.0125 18.625C48.1125 18 49.025 17.5 49.05 17.5C49.075 17.5 50 18 51.1 18.625C52.225 19.2625 53.2375 19.75 53.425 19.75C53.8125 19.75 54.375 19.25 54.375 18.9C54.375 18.775 54.175 17.6875 53.9375 16.4875L53.4875 14.3125L54.35 13.5C54.8125 13.05 55.6 12.3 56.1 11.825C56.8625 11.1 57 10.9 57 10.5625C57 10.3375 56.9 10.025 56.775 9.875C56.575 9.625 56.3 9.5625 54.2125 9.325C52.9375 9.175 51.85 9.025 51.8125 8.975C51.775 8.9375 51.325 7.9875 50.8 6.875C50.2875 5.75 49.7625 4.7625 49.65 4.675C49.4 4.475 48.775 4.4625 48.4875 4.625ZM50.05 10.0125C50.45 10.8625 50.5875 10.9375 52.4125 11.1375L53.7625 11.2875L52.625 12.3375C52.0125 12.925 51.475 13.5125 51.4375 13.6625C51.4 13.8125 51.5 14.575 51.6625 15.35C51.825 16.1125 51.9375 16.75 51.9 16.75C51.875 16.75 51.3 16.4375 50.6375 16.0625C49.9375 15.675 49.2625 15.375 49.0625 15.375C48.8625 15.375 48.1875 15.675 47.4875 16.0625C46.825 16.4375 46.25 16.75 46.2125 16.75C46.1875 16.75 46.2875 16.1 46.45 15.3125C46.65 14.325 46.7125 13.775 46.6375 13.5875C46.575 13.425 46.0375 12.8375 45.4375 12.2875L44.35 11.2875L45.825 11.1125C47.625 10.9125 47.7375 10.8375 48.5125 9.075L49.0625 7.85L49.3875 8.575C49.5625 8.9875 49.8625 9.625 50.05 10.0125Z" fill="#4169E1"/>
<path id="Vector_4" d="M32.8375 16.6875C32.2875 16.875 31.9125 17.1875 31.6875 17.625C31.5875 17.825 31.5125 18.8375 31.4625 20.5C31.3625 23.525 31.1375 25.5125 30.625 27.5625C29.425 32.425 26.9875 35.8875 23.15 38.225C22.4 38.6875 22.25 38.7125 22.25 38.3875C22.25 38.2625 22.1375 38.0125 21.9875 37.825L21.7375 37.5H13.6375C5.6625 37.5 5.5375 37.5 5.275 37.75L5 38.0125V50.5625C5 57.4625 5.0375 63.2 5.075 63.3125C5.2875 63.8625 5.425 63.875 13.55 63.875C18.5625 63.875 21.35 63.825 21.575 63.75C22 63.5875 22.2375 63.275 22.25 62.9C22.25 62.75 22.3125 62.625 22.4 62.625C22.475 62.625 23.4375 62.9375 24.5375 63.325L26.5375 64.0125L38.3125 63.8875L50.1 63.7625L50.7625 63.425C51.6875 62.9625 52.75 61.8625 53.225 60.875C53.6625 59.9625 53.9375 58.5875 53.8375 57.8625C53.775 57.375 53.7875 57.3625 54.45 56.9375C56.0875 55.8875 56.8 53.8625 56.3375 51.5125L56.15 50.575L56.825 49.9625C58.5875 48.35 58.9625 45.5 57.6375 43.65L57.4 43.3125L57.8875 42.5125C58.625 41.2875 58.9125 40.45 58.975 39.3125C59.0125 38.5 58.975 38.175 58.75 37.575C58.1875 36.0875 56.4875 34.8625 53.8125 34.0375L52.6875 33.6875L49 33.7125C46.975 33.725 44.1125 33.8125 42.6625 33.9C41.2 33.9875 40 34.0375 40 34C40 33.9625 40.1 33.2875 40.2125 32.5C40.5 30.4875 40.5125 22.875 40.2125 21.5375C39.675 19.0875 38.125 17.525 35.6 16.8875C34.25 16.55 33.3875 16.4875 32.8375 16.6875ZM35.5625 18.9625C36.3 19.2 36.675 19.4125 37.225 19.925C38.175 20.8 38.35 21.575 38.45 25.4625C38.5375 28.775 38.4 31.275 37.9875 33.775C37.7375 35.2625 37.7375 35.4 37.925 35.6875C38.0375 35.85 38.275 36.0375 38.4375 36.075C38.6125 36.1125 40.2875 36.0625 42.1625 35.9375C44.025 35.825 47 35.7 48.75 35.6625C51.925 35.6 51.9375 35.6 53.0625 35.9375C55.0875 36.525 56.375 37.275 56.825 38.1375C56.9125 38.325 57 38.7875 57 39.15C57 39.9375 56.4625 41.1625 55.6375 42.25C54.975 43.125 54.9625 43.5625 55.5625 44.2375C56.15 44.8875 56.4125 45.55 56.4 46.4C56.4 47.3625 55.9 48.2875 55.125 48.7625C53.825 49.5625 53.8 49.625 54.1625 50.875C54.4875 51.9625 54.5125 53.7875 54.2125 54.3375C53.9375 54.85 53.175 55.475 52.6 55.65C52.3375 55.725 52.0125 55.925 51.8625 56.0875C51.5875 56.3625 51.5875 56.4 51.7375 57.3625C52 59 51.6375 60.15 50.5125 61.15L49.875 61.725L46.35 61.8C44.4 61.8375 39.225 61.9 34.8375 61.9375L26.875 62.0125L24.9 61.3375C23.825 60.95 22.7875 60.5875 22.6 60.5125L22.25 60.375V50.6375V40.8875L23.2875 40.4C25.4375 39.375 27.85 37.2875 29.4375 35.0625C32.0875 31.35 33.4875 26 33.5 19.6125V18.5375L34.225 18.65C34.6125 18.7125 35.225 18.85 35.5625 18.9625ZM20.25 50.6875V61.875H13.625H7V50.6875V39.5H13.625H20.25V50.6875Z" fill="#4169E1"/>
<path id="Vector_5" d="M9.5 40.4C9.175 40.575 8.7875 40.9125 8.5625 41.225C8.2375 41.6875 8.1875 41.8875 8.1875 42.5625C8.1875 43.2375 8.2375 43.4375 8.5625 43.9C9.95 45.9 13.0125 44.9875 13.0125 42.5625C13.0125 40.7125 11.15 39.575 9.5 40.4ZM10.9375 42.5625C10.9375 42.875 10.8875 42.9375 10.6375 42.9375C10.2375 42.9375 10.025 42.5875 10.25 42.3125C10.3375 42.2 10.5375 42.125 10.675 42.15C10.875 42.175 10.9375 42.275 10.9375 42.5625Z" fill="#4169E1"/>
</g>
</g>
<defs>
<clipPath id="clip0_53_3390">
<rect width="64" height="64" fill="white"/>
</clipPath>
</defs>
</svg>
