<svg width="64" height="64" viewBox="0 0 64 64" fill="none" xmlns="http://www.w3.org/2000/svg">
<g id="eco-light 1" clip-path="url(#clip0_53_3402)">
<g id="Group">
<path id="Vector" d="M30 0.0750275C26.6125 0.475029 23.825 1.36253 21.1 2.90003C17.1875 5.10003 13.65 9.02503 11.8625 13.1375C11.2125 14.6375 10.5875 16.7375 10.3 18.375C9.95 20.325 9.975 23.925 10.35 25.9C11.1375 30.1 12.95 33.7125 15.875 36.9375C16.3625 37.4875 17.0625 38.325 17.4 38.8125C18.5625 40.425 19.5875 42.9625 19.8125 44.775C19.8875 45.4125 19.875 45.4875 19.6375 45.5625C19.2125 45.6875 18.4375 46.6875 18.2125 47.3875C17.85 48.5125 17.9875 49.5 18.6375 50.475L19 51.0125L18.7 51.4125C17.275 53.3 18.25 56.2 20.525 56.8375C21.175 57.0125 21.2375 57.075 21.3125 57.45C21.35 57.6875 21.65 58.3875 21.9625 59.025C22.425 59.9375 22.75 60.3875 23.55 61.1875C25.0625 62.7125 26.6375 63.5375 28.6375 63.8625C29.675 64.0375 34.325 64.0375 35.3625 63.8625C37.3625 63.5375 38.9375 62.7125 40.45 61.1875C41.25 60.3875 41.575 59.9375 42.0375 59.025C42.35 58.3875 42.65 57.6875 42.6875 57.45C42.7625 57.075 42.825 57.0125 43.475 56.8375C45.75 56.2 46.725 53.3 45.3 51.4125L45 51.0125L45.3625 50.475C46.0125 49.5 46.15 48.5125 45.7875 47.3875C45.5625 46.6875 44.7875 45.6875 44.35 45.55C44.125 45.4875 44.1 45.4125 44.175 44.8125C44.3 43.675 44.8625 41.9875 45.5625 40.5625C46.2375 39.225 46.775 38.475 48.75 36.2125C52.625 31.775 54.5125 25.6375 53.8625 19.6C53.7 18.1125 53.0625 15.4625 52.5625 14.1875C51.9875 12.7375 50.7875 10.5125 49.9 9.25003C48.825 7.72503 46.275 5.17503 44.75 4.10003C42.0625 2.20003 38.95 0.900028 35.6875 0.312527C34.6125 0.125027 30.925 -0.037468 30 0.0750275ZM35.775 2.36253C43.8125 3.97503 50.0375 10.225 51.65 18.2875C52.05 20.2875 52.05 23.7125 51.65 25.7C50.8375 29.75 49.3 32.7 46.1875 36.125C44.1625 38.35 42.75 41.2375 42.2375 44.1875L42.1 45H37.55H33V39.5125V34.025L35.4125 33.9625C37.3125 33.9125 38.0125 33.85 38.75 33.65C42.675 32.5625 45.5625 29.675 46.65 25.75C46.8625 24.9875 46.925 24.3375 46.9625 22.225L47.025 19.6375L46.7 19.3125L46.3625 18.975L43.275 19.0375C39.9375 19.0875 39.225 19.2 37.575 19.9375C35.625 20.8 33.6625 22.525 32.625 24.2875C32.3125 24.8125 32.0375 25.2375 32 25.2375C31.9625 25.2375 31.6875 24.8125 31.375 24.2875C30.3375 22.525 28.375 20.8 26.425 19.9375C24.775 19.2 24.0625 19.0875 20.725 19.0375L17.6375 18.975L17.325 19.3C17 19.6125 17 19.625 17 21.725C17 23.0625 17.075 24.25 17.1875 24.9375C17.9625 29.4 21.6 33.0375 26.0625 33.8125C26.725 33.925 27.9125 34 29.075 34H31V39.5V45H26.4625H21.9125L21.7 43.9C21.075 40.7125 19.825 38.3625 17.15 35.3625C14.6625 32.5625 13.0875 29.4 12.35 25.7C11.95 23.7125 11.95 20.15 12.3625 18.25C12.95 15.5 14.025 12.9375 15.5375 10.6875C16.625 9.08753 19.2125 6.52503 20.8125 5.47503C23.6125 3.62503 26.525 2.52503 29.675 2.12503C31.0375 1.95003 34.375 2.08753 35.775 2.36253ZM24.6875 21.4125C26.1125 21.8875 27.1625 22.5375 28.3125 23.6875C30.0125 25.3875 30.825 27.1875 30.9625 29.5625L31.0375 30.8125L30.7375 30.55C30.575 30.4125 29.5125 29.4875 28.375 28.4875C24.3875 24.9875 24.4 25 23.9875 25C23.4875 25 23 25.4875 23 25.9875C23 26.475 23.075 26.55 26.125 29.1875C27.5375 30.4125 28.825 31.55 29 31.725L29.3125 32.025L27.8125 31.9625C25.2 31.85 23.475 31.1 21.6875 29.3125C20.5375 28.1625 19.8875 27.1125 19.425 25.6875C19.15 24.8625 19.0875 24.3625 19.025 22.825L18.9625 20.975L21.325 21.025C23.4375 21.0875 23.7875 21.125 24.6875 21.4125ZM44.975 22.8375C44.9125 24.3625 44.85 24.8625 44.575 25.6875C44.1125 27.1125 43.4625 28.1625 42.3125 29.3125C40.525 31.1 38.8 31.85 36.1875 31.9625C34.6875 32.025 34.6875 32.025 34.9375 31.775C35.075 31.6375 36.3375 30.5375 37.75 29.3125C40.8625 26.625 41 26.475 41 25.9875C41 25.4875 40.5125 25 40 25C39.6375 25 38.7 25.775 33.2625 30.55L32.9625 30.8125L33.0375 29.5625C33.175 27.1875 34 25.35 35.675 23.675C36.7375 22.6125 37.7875 21.9375 39.075 21.5C40.175 21.1125 40.8625 21.025 43.05 21.0125L45.0375 21L44.975 22.8375ZM43.525 47.475C43.875 47.825 43.9375 47.9625 43.9375 48.5C43.9375 49.0375 43.875 49.175 43.525 49.525L43.125 49.9375H32H20.875L20.475 49.525C20.125 49.175 20.0625 49.0375 20.0625 48.5125C20.0625 47.8625 20.3875 47.35 20.9375 47.1125C21.075 47.0625 26.125 47.025 32.15 47.0375L43.125 47.0625L43.525 47.475ZM43.525 52.475C43.875 52.825 43.9375 52.9625 43.9375 53.5C43.9375 54.0375 43.875 54.175 43.525 54.525L43.125 54.9375H32H20.875L20.475 54.525C20.125 54.175 20.0625 54.0375 20.0625 53.5125C20.0625 52.8625 20.3875 52.35 20.9375 52.1125C21.075 52.0625 26.125 52.025 32.15 52.0375L43.125 52.0625L43.525 52.475ZM40.6125 57.3375C40.025 58.9 38.5375 60.55 37.1 61.2375C35.7375 61.8875 34.9875 62 31.9875 62C29 62 27.975 61.8375 26.7125 61.1625C25.4 60.45 23.9875 58.8625 23.4625 57.525L23.25 57H32H40.75L40.6125 57.3375Z" fill="#4169E1"/>
<path id="Vector_2" d="M4.66252 5.65C4.51252 5.725 4.32502 5.9375 4.23752 6.1375C3.93752 6.8625 4.17502 7.0875 6.80002 8.6125C8.12502 9.375 9.32502 10 9.48752 10C10.175 10 10.65 9.2875 10.3875 8.65C10.2375 8.275 10.1625 8.2375 7.18752 6.5125C5.43752 5.5 5.17502 5.4 4.66252 5.65Z" fill="#4169E1"/>
<path id="Vector_3" d="M56.1375 6.9125C53.6375 8.375 53.4 8.575 53.5625 9.225C53.6625 9.6375 54.075 10 54.4625 10C54.6625 10 55.7625 9.4375 57.2 8.6125C59.825 7.0875 60.0625 6.8625 59.7625 6.1375C59.6125 5.7875 59.175 5.5 58.775 5.5C58.6625 5.5 57.475 6.1375 56.1375 6.9125Z" fill="#4169E1"/>
<path id="Vector_4" d="M0.3125 21.3125C0.1125 21.5 0 21.7625 0 22C0 22.2375 0.1125 22.5 0.3125 22.6875L0.6125 23H3.5H6.3875L6.6875 22.6875C7.1 22.2875 7.1 21.7125 6.6875 21.3125L6.3875 21H3.5H0.6125L0.3125 21.3125Z" fill="#4169E1"/>
<path id="Vector_5" d="M57.3125 21.3125C57.1125 21.5 57 21.7625 57 22C57 22.2375 57.1125 22.5 57.3125 22.6875L57.6125 23H60.5H63.3875L63.6875 22.6875C63.8875 22.5 64 22.2375 64 22C64 21.7625 63.8875 21.5 63.6875 21.3125L63.3875 21H60.5H57.6125L57.3125 21.3125Z" fill="#4169E1"/>
<path id="Vector_6" d="M6.7875 35.4C4.175 36.9125 3.95 37.1375 4.2375 37.8625C4.3875 38.225 4.825 38.5 5.225 38.5C5.4125 38.5 7.0625 37.5875 9.5875 36.0875C10.275 35.6875 10.5875 35.2 10.4375 34.75C10.3125 34.3625 9.8625 34 9.5125 34C9.325 34 8.1125 34.625 6.7875 35.4Z" fill="#4169E1"/>
<path id="Vector_7" d="M53.9125 34.25C53.55 34.5875 53.45 34.95 53.625 35.3625C53.7375 35.6375 54.3125 36.0375 56.175 37.1125C57.5 37.875 58.675 38.5 58.7875 38.5C59.175 38.5 59.6125 38.2125 59.7625 37.8625C60.05 37.1375 59.825 36.9125 57.2 35.4C55.875 34.625 54.65 34 54.475 34C54.3125 34 54.05 34.1125 53.9125 34.25Z" fill="#4169E1"/>
</g>
</g>
<defs>
<clipPath id="clip0_53_3402">
<rect width="64" height="64" fill="white"/>
</clipPath>
</defs>
</svg>
