<svg width="50" height="50" viewBox="0 0 50 50" fill="none" xmlns="http://www.w3.org/2000/svg">
<rect width="50" height="50" rx="25" fill="#E79B08"/>
<path d="M18.292 33.5V30.98L24.772 24.86C25.284 24.396 25.66 23.98 25.9 23.612C26.14 23.244 26.3 22.908 26.38 22.604C26.476 22.3 26.524 22.02 26.524 21.764C26.524 21.092 26.292 20.58 25.828 20.228C25.38 19.86 24.716 19.676 23.836 19.676C23.132 19.676 22.476 19.812 21.868 20.084C21.276 20.356 20.772 20.78 20.356 21.356L17.524 19.532C18.164 18.572 19.06 17.812 20.212 17.252C21.364 16.692 22.692 16.412 24.196 16.412C25.444 16.412 26.532 16.62 27.46 17.036C28.404 17.436 29.132 18.004 29.644 18.74C30.172 19.476 30.436 20.356 30.436 21.38C30.436 21.924 30.364 22.468 30.22 23.012C30.092 23.54 29.82 24.1 29.404 24.692C29.004 25.284 28.412 25.948 27.628 26.684L22.252 31.748L21.508 30.332H30.988V33.5H18.292Z" fill="white"/>
</svg>
