<svg width="50" height="50" viewBox="0 0 50 50" fill="none" xmlns="http://www.w3.org/2000/svg">
<rect width="50" height="50" rx="25" fill="#E79B08"/>
<path d="M23.884 33.788C22.716 33.788 21.556 33.636 20.404 33.332C19.252 33.012 18.276 32.564 17.476 31.988L18.988 29.012C19.628 29.476 20.372 29.844 21.22 30.116C22.068 30.388 22.924 30.524 23.788 30.524C24.764 30.524 25.532 30.332 26.092 29.948C26.652 29.564 26.932 29.036 26.932 28.364C26.932 27.724 26.684 27.22 26.188 26.852C25.692 26.484 24.892 26.3 23.788 26.3H22.012V23.732L26.692 18.428L27.124 19.82H18.316V16.7H30.076V19.22L25.42 24.524L23.452 23.396H24.58C26.644 23.396 28.204 23.86 29.26 24.788C30.316 25.716 30.844 26.908 30.844 28.364C30.844 29.308 30.596 30.196 30.1 31.028C29.604 31.844 28.844 32.508 27.82 33.02C26.796 33.532 25.484 33.788 23.884 33.788Z" fill="white"/>
</svg>
