<svg width="50" height="50" viewBox="0 0 50 50" fill="none" xmlns="http://www.w3.org/2000/svg">
<rect width="50" height="50" rx="25" fill="#E79B08"/>
<path d="M24.148 33.788C22.98 33.788 21.82 33.636 20.668 33.332C19.532 33.012 18.556 32.564 17.74 31.988L19.276 29.012C19.916 29.476 20.652 29.844 21.484 30.116C22.332 30.388 23.188 30.524 24.052 30.524C25.028 30.524 25.796 30.332 26.356 29.948C26.916 29.564 27.196 29.028 27.196 28.34C27.196 27.908 27.084 27.524 26.86 27.188C26.636 26.852 26.236 26.596 25.66 26.42C25.1 26.244 24.308 26.156 23.284 26.156H18.988L19.852 16.7H30.1V19.82H21.244L23.26 18.044L22.66 24.788L20.644 23.012H24.196C25.86 23.012 27.196 23.244 28.204 23.708C29.228 24.156 29.972 24.772 30.436 25.556C30.9 26.34 31.132 27.228 31.132 28.22C31.132 29.212 30.884 30.132 30.388 30.98C29.892 31.812 29.124 32.492 28.084 33.02C27.06 33.532 25.748 33.788 24.148 33.788Z" fill="white"/>
</svg>
