<svg width="24" height="24" viewBox="0 0 24 24" fill="none" xmlns="http://www.w3.org/2000/svg">
<g id="streamline:interface-edit-write-1-edit-edition-form-pen-text-write" clip-path="url(#clip0_455_1932)">
<path id="Vector" d="M0.857422 23.1429H19.7146M11.1431 17.1429L6.00028 18.0686L6.85742 12.8571L18.3946 1.35428C18.5539 1.1936 18.7435 1.06607 18.9524 0.979039C19.1613 0.892007 19.3854 0.847198 19.6117 0.847198C19.838 0.847198 20.0621 0.892007 20.271 0.979039C20.4799 1.06607 20.6695 1.1936 20.8288 1.35428L22.646 3.17142C22.8067 3.33079 22.9342 3.52039 23.0212 3.72929C23.1083 3.93819 23.1531 4.16226 23.1531 4.38857C23.1531 4.61487 23.1083 4.83894 23.0212 5.04784C22.9342 5.25674 22.8067 5.44634 22.646 5.60571L11.1431 17.1429Z" stroke="#080D41" stroke-width="1.42857" stroke-linecap="round" stroke-linejoin="round"/>
</g>
<defs>
<clipPath id="clip0_455_1932">
<rect width="24" height="24" fill="white"/>
</clipPath>
</defs>
</svg>
