<svg width="30" height="31" viewBox="0 0 30 31" fill="none" xmlns="http://www.w3.org/2000/svg">
<g id="SVG" clip-path="url(#clip0_455_1990)">
<path id="Vector" d="M11.7075 13.8525C12.8804 15.9131 14.5869 17.6196 16.6475 18.7925L17.7525 17.245C17.9302 16.9962 18.1929 16.8211 18.491 16.7529C18.7891 16.6847 19.1018 16.7282 19.37 16.875C21.1379 17.8412 23.0903 18.4222 25.0988 18.58C25.4122 18.6048 25.7048 18.7469 25.9182 18.9779C26.1316 19.2089 26.25 19.5118 26.25 19.8263V25.4038C26.2501 25.7132 26.1353 26.0118 25.928 26.2415C25.7206 26.4713 25.4354 26.6159 25.1275 26.6475C24.465 26.7162 23.7975 26.75 23.125 26.75C12.425 26.75 3.75 18.075 3.75 7.375C3.75 6.7025 3.78375 6.035 3.8525 5.3725C3.88407 5.06462 4.02873 4.7794 4.25849 4.57204C4.48824 4.36468 4.78676 4.24993 5.09625 4.25H10.6737C10.9882 4.24996 11.2911 4.36844 11.5221 4.58181C11.7531 4.79519 11.8952 5.08778 11.92 5.40125C12.0778 7.40974 12.6588 9.3621 13.625 11.13C13.7718 11.3982 13.8153 11.7109 13.7471 12.009C13.6789 12.3071 13.5038 12.5698 13.255 12.7475L11.7075 13.8525ZM8.555 13.0312L10.93 11.335C10.256 9.88012 9.79419 8.33605 9.55875 6.75H6.2625C6.255 6.9575 6.25125 7.16625 6.25125 7.375C6.25 16.695 13.805 24.25 23.125 24.25C23.3337 24.25 23.5425 24.2463 23.75 24.2375V20.9412C22.1639 20.7058 20.6199 20.244 19.165 19.57L17.4688 21.945C16.7858 21.6796 16.1225 21.3664 15.4838 21.0075L15.4113 20.9662C12.9595 19.5709 10.9291 17.5405 9.53375 15.0887L9.4925 15.0162C9.13363 14.3775 8.82035 13.7142 8.555 13.0312Z" fill="white"/>
</g>
<defs>
<clipPath id="clip0_455_1990">
<rect width="30" height="30" fill="white" transform="translate(0 0.5)"/>
</clipPath>
</defs>
</svg>
