<svg width="30" height="30" viewBox="0 0 30 30" fill="none" xmlns="http://www.w3.org/2000/svg">
<path d="M14.3211 19.9126L4.36489 9.46318C4.19868 9.28883 4.10596 9.05719 4.10596 8.81631C4.10596 8.57542 4.19868 8.34378 4.36489 8.16943L4.37614 8.15818C4.45671 8.07337 4.5537 8.00583 4.6612 7.95968C4.7687 7.91353 4.88446 7.88973 5.00145 7.88973C5.11844 7.88973 5.2342 7.91353 5.3417 7.95968C5.4492 8.00583 5.54619 8.07337 5.62676 8.15818L15.0018 17.9982L24.373 8.15818C24.4536 8.07337 24.5506 8.00583 24.6581 7.95968C24.7656 7.91353 24.8813 7.88973 24.9983 7.88973C25.1153 7.88973 25.2311 7.91353 25.3386 7.95968C25.4461 8.00583 25.5431 8.07337 25.6236 8.15818L25.6349 8.16943C25.8011 8.34378 25.8938 8.57542 25.8938 8.81631C25.8938 9.05719 25.8011 9.28883 25.6349 9.46318L15.6786 19.9126C15.5911 20.0045 15.4858 20.0776 15.3691 20.1276C15.2524 20.1776 15.1268 20.2034 14.9999 20.2034C14.873 20.2034 14.7473 20.1776 14.6307 20.1276C14.514 20.0776 14.4087 20.0045 14.3211 19.9126Z" fill="#0C4DA2"/>
</svg>
