<svg width="25" height="24" viewBox="0 0 25 24" fill="none" xmlns="http://www.w3.org/2000/svg">
<g id="pajamas:arrow-right">
<path id="Vector" fill-rule="evenodd" clip-rule="evenodd" d="M16.1668 16.08C16.0563 16.183 15.9677 16.3072 15.9062 16.4452C15.8447 16.5832 15.8116 16.7321 15.809 16.8832C15.8063 17.0342 15.8341 17.1843 15.8907 17.3244C15.9472 17.4644 16.0315 17.5917 16.1383 17.6985C16.2451 17.8054 16.3724 17.8896 16.5124 17.9462C16.6525 18.0027 16.8026 18.0305 16.9536 18.0279C17.1047 18.0252 17.2537 17.9921 17.3917 17.9306C17.5297 17.8692 17.6539 17.7805 17.7568 17.67L22.6318 12.795L23.4283 12L22.6333 11.205L17.7583 6.32997C17.5463 6.12494 17.2621 6.01141 16.9672 6.01383C16.6722 6.01626 16.39 6.13444 16.1813 6.34292C15.9726 6.55141 15.8542 6.83352 15.8515 7.12849C15.8488 7.42346 15.962 7.70769 16.1668 7.91997L19.1218 10.875H3.55334C3.25498 10.875 2.96883 10.9935 2.75785 11.2045C2.54687 11.4155 2.42834 11.7016 2.42834 12C2.42834 12.2983 2.54687 12.5845 2.75785 12.7955C2.96883 13.0064 3.25498 13.125 3.55334 13.125H19.1218L16.1668 16.08Z" fill="#0C4DA2"/>
</g>
</svg>
