<svg width="80" height="81" viewBox="0 0 80 81" fill="none" xmlns="http://www.w3.org/2000/svg">
<g id="Clip path group">
<mask id="mask0_108_1923" style="mask-type:luminance" maskUnits="userSpaceOnUse" x="0" y="0" width="80" height="81">
<g id="clip0_68_272">
<path id="Vector" d="M80 0.5H0V80.5H80V0.5Z" fill="white"/>
</g>
</mask>
<g mask="url(#mask0_108_1923)">
<g id="Group">
<path id="Vector_2" d="M28.6053 70.8875C28.1447 70.5275 27.6326 70.2385 27.0861 70.0302C26.5747 69.8505 26.0388 69.7496 25.4969 69.7311C24.3229 69.7179 23.1525 69.8654 22.0187 70.1699C20.8593 70.4588 19.7499 70.7974 18.9304 71.0768C18.1108 71.3556 17.571 71.5651 17.571 71.5651C17.571 71.5651 18.1008 71.8642 18.9404 72.223C19.9916 72.6779 21.0915 73.0123 22.2186 73.2194C23.4925 73.469 24.8058 73.4385 26.0666 73.1299C26.6477 73.0057 27.1867 72.7341 27.6315 72.3412C28.0764 71.9484 28.4118 71.4475 28.6053 70.8875Z" fill="#C4A386"/>
<path id="Vector_3" d="M25.0667 65.7645C25.498 66.7997 26.1859 67.7084 27.0657 68.4057C27.4827 68.7293 27.968 68.9543 28.485 69.0636C29.0178 69.1723 29.571 69.1203 30.0741 68.9137C30.1088 67.8576 29.8232 66.8158 29.2545 65.9245C28.7115 65.0964 28.0363 64.3621 27.2556 63.752C26.5774 63.2075 25.8664 62.7048 25.1267 62.2469C24.537 61.8779 24.1272 61.669 24.1272 61.669C24.1272 61.669 24.1272 61.7985 24.1272 62.0278C24.1272 62.257 24.1872 62.5657 24.2571 62.9645C24.4115 63.9275 24.6834 64.8678 25.0667 65.7645Z" fill="#C4A386"/>
<path id="Vector_4" d="M16.7309 68.4558C17.2957 68.4493 17.8515 68.3138 18.3557 68.06C18.8599 67.8057 19.299 67.4403 19.6394 66.9908C19.3736 66.5215 19.0151 66.1108 18.5856 65.7836C18.1561 65.4564 17.6646 65.2194 17.1407 65.0869C16.0096 64.7854 14.8434 64.6344 13.6725 64.6385C12.4831 64.6385 11.2937 64.6385 10.4043 64.6385H8.91504C8.91504 64.6385 9.02501 64.7681 9.22489 64.9675C9.42477 65.1669 9.73462 65.4361 10.1144 65.7448C11.0284 66.4958 12.0363 67.1257 13.1128 67.6182C14.2376 68.1729 15.4761 68.4594 16.7309 68.4558Z" fill="#C4A386"/>
<path id="Vector_5" d="M18.9902 63.9012C19.3001 64.3263 19.7104 64.669 20.1845 64.8982C20.6587 65.1281 21.1822 65.2373 21.7088 65.217C22.1247 64.2158 22.1497 63.0958 21.7788 62.0779C21.4238 61.1424 20.9247 60.2684 20.2995 59.4869C19.7299 58.7096 19.1502 58.0415 18.7304 57.5735C18.5205 57.3239 18.3406 57.1346 18.2206 57.0051L18.0308 56.8057C18.0308 56.8057 18.0308 56.9257 17.9308 57.1346C17.8554 57.4338 17.7954 57.7364 17.7509 58.0415C17.6037 58.9961 17.6037 59.9675 17.7509 60.9215C17.9075 62.0027 18.3336 63.0272 18.9902 63.9012Z" fill="#C4A386"/>
<path id="Vector_6" d="M4.73734 55.5999C3.91776 55.3408 3.37805 55.1913 3.37805 55.1913C3.37805 55.1913 3.42802 55.3308 3.538 55.56C3.64791 55.7893 3.81781 56.0982 4.02773 56.4769C4.23758 56.8558 4.49746 57.294 4.79734 57.7526C4.94725 57.9818 5.10713 58.2111 5.27704 58.4499L5.40701 58.6296L5.57692 58.8487L5.92671 59.2875C6.79012 60.3723 7.93889 61.1973 9.24498 61.669C9.78588 61.8678 10.3679 61.9293 10.9386 61.8475C11.5093 61.7657 12.0505 61.5436 12.5133 61.2009C12.2464 60.1358 11.6043 59.2021 10.7042 58.5699C10.4943 58.4003 10.2545 58.2409 10.0146 58.0714L9.25501 57.5931L8.4454 57.1245C8.19555 56.9854 7.93567 56.8558 7.67579 56.7358C6.72295 56.2921 5.74128 55.9125 4.73734 55.5999Z" fill="#C4A386"/>
<path id="Vector_7" d="M12.7937 57.6528C12.9295 58.1567 13.1987 58.6152 13.5733 58.98C13.9478 59.3448 14.4139 59.6021 14.9226 59.7257C15.5822 58.891 15.9569 57.8677 15.992 56.8057C16.0184 55.9215 15.9582 55.0371 15.8121 54.1647C15.7519 53.7231 15.6584 53.2867 15.5323 52.8591C15.4023 52.4206 15.2724 52.022 15.1425 51.6932C15.0125 51.3643 14.9026 51.0852 14.8227 50.8959L14.7127 50.5969L14.5028 50.8959C14.3729 51.0952 14.2129 51.3742 14.033 51.723C13.5686 52.6095 13.1968 53.5412 12.9236 54.5035C12.8536 54.7726 12.7837 55.0516 12.7237 55.3307C12.6717 55.5941 12.635 55.8603 12.6138 56.1279C12.5888 56.3931 12.5888 56.66 12.6138 56.9251C12.6507 57.1728 12.7109 57.4164 12.7937 57.6528Z" fill="#C4A386"/>
<path id="Vector_8" d="M3.47793 51.5135C3.67345 51.74 3.88742 51.95 4.11763 52.1413C4.33405 52.3281 4.56462 52.4981 4.80724 52.6496C5.2605 52.9796 5.78276 53.2031 6.33494 53.3032C6.88712 53.4033 7.45483 53.3775 7.9956 53.2276C8.09023 52.6958 8.05596 52.149 7.89566 51.6331C7.82157 51.3887 7.71751 51.1544 7.58581 50.9355C7.45548 50.7081 7.31196 50.4885 7.15602 50.2778C6.43966 49.3801 5.57423 48.6115 4.59733 48.0055C3.73715 47.4001 2.84282 46.8444 1.91876 46.3412L0.659424 45.6635C0.659424 45.6635 0.659423 45.813 0.739364 46.0622C0.819364 46.3114 0.909274 46.6601 1.05918 47.0588C1.38019 48.1083 1.83357 49.1129 2.40849 50.0485C2.72802 50.5626 3.08551 51.0523 3.47793 51.5135Z" fill="#C4A386"/>
<path id="Vector_9" d="M9.73474 51.0951C9.95903 51.5675 10.3037 51.9729 10.7342 52.2711C11.6947 51.7344 12.4106 50.8492 12.7332 49.7996C12.8129 49.5549 12.8763 49.3051 12.9231 49.0521L12.9831 48.6734C12.9831 48.5538 12.9831 48.4243 13.043 48.2947C13.1026 47.7854 13.1226 47.2724 13.103 46.76C13.0696 45.8922 12.9861 45.0271 12.8531 44.1689C12.7932 43.83 12.7332 43.551 12.6932 43.3617C12.6532 43.1723 12.6332 43.0627 12.6332 43.0627L12.3834 43.3118C12.1607 43.5326 11.9505 43.7655 11.7537 44.0094C11.1336 44.7668 10.5975 45.5888 10.1545 46.461C9.66644 47.4442 9.40357 48.5233 9.38489 49.6202C9.38733 49.879 9.42089 50.1367 9.48483 50.3875C9.5413 50.632 9.62512 50.8694 9.73474 51.0951Z" fill="#C4A386"/>
<path id="Vector_10" d="M1.45922 42.0462C1.59916 42.3107 1.75958 42.5639 1.93899 42.8035C2.11982 43.0363 2.31684 43.2561 2.52866 43.4613C2.91123 43.8631 3.37899 44.1745 3.89779 44.3727C4.4166 44.571 4.97326 44.6512 5.52711 44.6073C5.72544 44.1076 5.79756 43.5669 5.73702 43.0328C5.70639 42.7785 5.6495 42.528 5.56711 42.2853C5.50305 42.0334 5.41947 41.7869 5.3172 41.5478C5.07648 41.0435 4.77797 40.5686 4.4277 40.1327L3.88794 39.4551C3.70806 39.2258 3.50818 39.0066 3.31827 38.7874C2.52866 37.9303 1.66913 37.133 1.05946 36.545C0.449791 35.957 0 35.5684 0 35.5684C0 35.5684 0 36.1663 0 37.0632C0.0466269 37.5783 0.12 38.0905 0.21988 38.598C0.27988 38.877 0.339821 39.166 0.409791 39.4551C0.474507 39.7523 0.557971 40.0452 0.659642 40.332C0.88621 40.9211 1.15337 41.4939 1.45922 42.0462Z" fill="#C4A386"/>
<path id="Vector_11" d="M8.40564 43.9596C9.42941 43.6173 10.2883 42.9066 10.8145 41.9664C10.9424 41.7497 11.0526 41.5231 11.1443 41.2887C11.2587 41.0592 11.3588 40.8229 11.4441 40.5812C11.6015 40.1163 11.7218 39.6398 11.804 39.1561C11.8939 38.6877 11.9938 38.2293 12.0438 37.8107C12.0438 37.5914 12.0438 37.3921 12.1038 37.2028C12.1637 37.0134 12.1038 36.834 12.1038 36.6646C12.1588 36.3015 12.1922 35.9354 12.2037 35.5684C12.2037 35.5684 11.764 35.8175 11.1343 36.266L10.6246 36.6447C10.4447 36.7942 10.2647 36.9436 10.0849 37.1131C9.69448 37.4614 9.33036 37.8377 8.99538 38.2392C8.82547 38.4485 8.65556 38.6677 8.49562 38.897L8.27574 39.2457L8.08582 39.6145C7.84773 40.0915 7.67299 40.5973 7.56612 41.1194C7.51042 41.3713 7.48361 41.6287 7.48612 41.8867C7.50093 42.1359 7.54111 42.3831 7.60606 42.6242C7.74976 43.1318 8.02564 43.5925 8.40564 43.9596Z" fill="#C4A386"/>
<path id="Vector_12" d="M4.24832 29.5889C3.97846 29.0707 3.68861 28.5923 3.40879 28.104L2.63918 26.8583C2.18939 26.1307 1.8596 25.6624 1.8596 25.6624C1.8596 25.6624 1.68969 26.2304 1.50975 27.1074C1.44981 27.5559 1.37984 28.104 1.33984 28.6521C1.33984 28.9312 1.33984 29.2301 1.33984 29.5291C1.33984 29.8281 1.33984 30.137 1.33984 30.446C1.38855 31.0644 1.48885 31.6778 1.63972 32.2797C1.79697 32.8569 2.03232 33.4101 2.33936 33.924C2.6153 34.4041 2.99882 34.814 3.46008 35.1218C3.92127 35.4295 4.4476 35.6267 4.99793 35.698C5.1476 35.4712 5.26849 35.2269 5.35775 34.9704C5.4522 34.7295 5.51924 34.4788 5.55763 34.223C5.63435 33.7118 5.61058 33.1905 5.48772 32.6883C5.37327 32.1495 5.20933 31.6224 4.99793 31.1137C4.77805 30.5855 4.5082 30.0473 4.24832 29.5889Z" fill="#C4A386"/>
<path id="Vector_13" d="M10.7148 34.0934C11.0684 33.7478 11.3773 33.3594 11.6343 32.9374C11.915 32.5416 12.1592 32.1214 12.3639 31.6817C12.4739 31.4724 12.5538 31.2631 12.6537 31.0638L12.9136 30.4659C13.0736 30.0772 13.1935 29.7184 13.3034 29.4095C13.5333 28.8016 13.6432 28.4129 13.6432 28.4129C13.2268 28.5204 12.8164 28.6501 12.4139 28.8016C11.5141 29.1387 10.6637 29.5946 9.88518 30.1569C9.65778 30.3121 9.44076 30.4818 9.23551 30.6652C9.03569 30.8479 8.84554 31.0408 8.66584 31.2432C8.30715 31.6439 8.00763 32.0936 7.77628 32.5786C7.57163 33.0365 7.46607 33.5323 7.46643 34.0336C7.45963 34.2832 7.49336 34.5323 7.56637 34.7711C7.64858 35.0268 7.76279 35.2713 7.90619 35.4986C8.97861 35.3728 9.97264 34.8755 10.7148 34.0934Z" fill="#C4A386"/>
<path id="Vector_14" d="M7.20597 26.38C7.36203 26.1772 7.49295 25.9563 7.59582 25.7222C7.69451 25.4916 7.76824 25.251 7.8157 25.0047C7.8157 24.7556 7.88561 24.4965 7.91564 24.2373C7.94794 23.6942 7.91773 23.1492 7.82567 22.6129C7.74955 22.0388 7.6394 21.4698 7.49582 20.9088C7.20597 19.7726 6.89618 18.7063 6.60633 17.919C6.31647 17.1317 6.13653 16.5337 6.13653 16.5337C6.13653 16.5337 6.0566 16.6633 5.93666 16.8825C5.81672 17.1018 5.65677 17.4406 5.46692 17.8791C5.01433 18.8805 4.67898 19.9305 4.4674 21.0084C4.36818 21.6049 4.3114 22.2077 4.29749 22.8122C4.30095 23.1124 4.3243 23.412 4.36746 23.7091C4.41433 23.9949 4.47773 24.2778 4.55737 24.5562C4.70256 25.0871 4.96179 25.5802 5.31695 26.0013C5.6803 26.4406 6.1474 26.783 6.6763 26.9978C6.88024 26.8169 7.05844 26.609 7.20597 26.38Z" fill="#C4A386"/>
<path id="Vector_15" d="M16.6815 22.0548C16.7914 21.8954 16.8414 21.8057 16.8414 21.8057H16.4916C16.2517 21.8057 15.9418 21.8057 15.5621 21.8854C15.1822 21.9651 14.7325 22.005 14.2527 22.1146C14.0129 22.1645 13.763 22.2342 13.5131 22.304C13.2633 22.3737 13.0234 22.4734 12.7735 22.5731C12.2622 22.7665 11.773 23.0137 11.3142 23.3105C10.8762 23.5899 10.4763 23.9249 10.1249 24.3071C9.96325 24.499 9.82563 24.7098 9.71513 24.9349C9.60683 25.1554 9.51984 25.3857 9.45531 25.6226C9.38707 25.8625 9.35345 26.1108 9.3553 26.3601C9.37715 26.6271 9.42742 26.891 9.50528 27.1474C10.0498 27.253 10.6098 27.253 11.1544 27.1474C11.6514 27.0337 12.1295 26.8491 12.5736 26.5992C12.7835 26.4697 12.9934 26.3401 13.1933 26.1906L13.4731 25.9614L13.763 25.7223C14.1242 25.4193 14.4586 25.0859 14.7625 24.7257C15.0625 24.4109 15.3429 24.0781 15.602 23.7291L15.7819 23.47L15.9519 23.2408C16.0718 23.0813 16.1717 22.9318 16.2616 22.8023C16.3516 22.6727 16.5915 22.2243 16.6815 22.0548Z" fill="#C4A386"/>
<path id="Vector_16" d="M10.4644 19.045C10.9367 18.815 11.3452 18.4728 11.6538 18.0484C11.9631 17.6443 12.1905 17.184 12.3234 16.6931C12.8672 14.5997 12.7233 12.3753 12.5333 10.2452C12.4433 9.41805 12.3534 8.85995 12.3534 8.85995C11.949 9.17358 11.6429 9.53764 11.3439 9.95619C11.0409 10.352 10.7606 10.7646 10.5043 11.192C10.2059 11.6898 9.93888 12.2057 9.70479 12.7367C9.46724 13.2912 9.27667 13.8646 9.13512 14.4508C9.01661 15.0208 8.96957 15.6033 8.99518 16.1849C9.00915 16.741 9.14849 17.2868 9.40282 17.7819C9.65715 18.277 10.02 18.7087 10.4644 19.045Z" fill="#C4A386"/>
<path id="Vector_17" d="M18.8598 18.4469C19.2496 18.1579 19.6095 17.8789 19.9293 17.5998C20.2491 17.3208 20.549 17.0517 20.7788 16.8225C21.0087 16.5933 21.2186 16.394 21.3486 16.2544L21.5584 16.0352C21.1355 15.9501 20.7086 15.887 20.2791 15.8458C19.8506 15.8041 19.4201 15.7874 18.9897 15.796C18.4676 15.7923 17.946 15.8324 17.4306 15.9156C16.3537 16.0403 15.324 16.4271 14.4321 17.0417C14.0289 17.345 13.6893 17.7242 13.4327 18.1579C13.2065 18.6121 13.0998 19.1163 13.1228 19.6229C14.1092 20.0483 15.2164 20.1049 16.2412 19.7823C16.7218 19.6434 17.1846 19.4494 17.6205 19.2043C18.0521 18.9833 18.4665 18.7301 18.8598 18.4469Z" fill="#C4A386"/>
<path id="Vector_18" d="M15.6685 13.9066C16.2565 13.9066 17.1741 13.9605 17.9207 13.4444C18.1232 13.2964 18.3167 13.1367 18.5003 12.966C18.6926 12.7958 18.873 12.6127 19.0401 12.4179C19.401 12.0291 19.735 11.6162 20.0396 11.1821C20.6193 10.3251 21.119 9.43809 21.4788 8.77039C21.6587 8.4415 21.7844 8.15265 21.8843 7.95336L21.952 7.78312L21.9885 7.66418L21.5229 7.69683C21.2129 7.73767 21.0317 7.7649 20.7292 7.84359C19.7743 8.08526 18.8541 8.44694 17.9906 8.9199C16.9931 9.43458 16.1305 10.1752 15.472 11.0825C15.1664 11.5135 14.9615 12.0072 14.8723 12.5275C14.7728 12.9638 14.7756 13.4016 14.8723 13.853" fill="#C4A386"/>
<path id="Vector_19" d="M51.3947 70.8875C51.8554 70.5275 52.3674 70.2385 52.9139 70.0302C53.4253 69.8505 53.9612 69.7496 54.5031 69.7311C55.6772 69.7179 56.8475 69.8654 57.9813 70.1699C59.1407 70.4588 60.2501 70.7974 61.0696 71.0768C61.8892 71.3556 62.429 71.5651 62.429 71.5651C62.429 71.5651 61.8992 71.8642 61.0597 72.223C60.0084 72.6779 58.9086 73.0123 57.7814 73.2194C56.5075 73.469 55.1942 73.4385 53.9334 73.1299C53.3523 73.0057 52.8133 72.7341 52.3685 72.3412C51.9237 71.9484 51.5883 71.4475 51.3947 70.8875Z" fill="#C4A386"/>
<path id="Vector_20" d="M54.9333 65.7645C54.502 66.7997 53.8142 67.7084 52.9343 68.4057C52.5173 68.7293 52.032 68.9543 51.5151 69.0636C50.9822 69.1723 50.429 69.1203 49.9259 68.9137C49.8912 67.8576 50.1768 66.8158 50.7455 65.9245C51.2885 65.0964 51.9637 64.3621 52.7444 63.752C53.4226 63.2075 54.1336 62.7048 54.8733 62.2469C55.463 61.8779 55.8728 61.669 55.8728 61.669C55.8728 61.669 55.8728 61.7985 55.8728 62.0278C55.8728 62.257 55.8128 62.5657 55.7429 62.9645C55.5885 63.9275 55.3166 64.8678 54.9333 65.7645Z" fill="#C4A386"/>
<path id="Vector_21" d="M63.2691 68.4558C62.7043 68.4493 62.1485 68.3138 61.6443 68.06C61.1401 67.8057 60.701 67.4403 60.3606 66.9908C60.6264 66.5215 60.9849 66.1108 61.4144 65.7836C61.8439 65.4564 62.3354 65.2194 62.8593 65.0869C63.9904 64.7854 65.1566 64.6344 66.3275 64.6385C67.5169 64.6385 68.7063 64.6385 69.5958 64.6385H71.085C71.085 64.6385 70.975 64.7681 70.7752 64.9675C70.5753 65.1669 70.2654 65.4361 69.8856 65.7448C68.9716 66.4958 67.9637 67.1257 66.8872 67.6182C65.7624 68.1729 64.5239 68.4594 63.2691 68.4558Z" fill="#C4A386"/>
<path id="Vector_22" d="M61.0098 63.9012C60.6999 64.3263 60.2897 64.669 59.8155 64.8982C59.3414 65.1281 58.8178 65.2373 58.2912 65.217C57.8753 64.2158 57.8503 63.0958 58.2212 62.0779C58.5762 61.1424 59.0753 60.2684 59.7005 59.4869C60.2701 58.7096 60.8498 58.0415 61.2696 57.5735C61.4795 57.3239 61.6595 57.1346 61.7794 57.0051L61.9692 56.8057C61.9692 56.8057 61.9692 56.9257 62.0692 57.1346C62.1446 57.4338 62.2046 57.7364 62.2491 58.0415C62.3963 58.9961 62.3963 59.9675 62.2491 60.9215C62.0925 62.0027 61.6664 63.0272 61.0098 63.9012Z" fill="#C4A386"/>
<path id="Vector_23" d="M75.2627 55.5999C76.0823 55.3408 76.622 55.1913 76.622 55.1913C76.622 55.1913 76.572 55.3308 76.462 55.56C76.3521 55.7893 76.1822 56.0982 75.9723 56.4769C75.7625 56.8558 75.5026 57.294 75.2027 57.7526C75.0528 57.9818 74.8929 58.2111 74.723 58.4499L74.593 58.6296L74.4231 58.8487L74.0733 59.2875C73.2099 60.3723 72.0611 61.1973 70.7551 61.669C70.2142 61.8678 69.6321 61.9293 69.0614 61.8475C68.4908 61.7657 67.9496 61.5436 67.4868 61.2009C67.7536 60.1358 68.3957 59.2021 69.2958 58.5699C69.5057 58.4003 69.7456 58.2409 69.9854 58.0714L70.745 57.5931L71.5546 57.1245C71.8045 56.9854 72.0644 56.8558 72.3243 56.7358C73.2771 56.2921 74.2588 55.9125 75.2627 55.5999Z" fill="#C4A386"/>
<path id="Vector_24" d="M67.2063 57.6528C67.0706 58.1567 66.8013 58.6152 66.4267 58.98C66.0522 59.3448 65.5861 59.6021 65.0774 59.7257C64.4178 58.891 64.0431 57.8677 64.008 56.8057C63.9816 55.9215 64.0418 55.0371 64.1879 54.1647C64.2481 53.7231 64.3417 53.2867 64.4678 52.8591C64.5977 52.4206 64.7276 52.022 64.8575 51.6932C64.9875 51.3643 65.0974 51.0852 65.1774 50.8959L65.2873 50.5969L65.4972 50.8959C65.6272 51.0952 65.7871 51.3742 65.967 51.723C66.4315 52.6095 66.8032 53.5412 67.0764 54.5035C67.1464 54.7726 67.2164 55.0516 67.2763 55.3307C67.3283 55.5941 67.365 55.8603 67.3863 56.1279C67.4112 56.3931 67.4112 56.66 67.3863 56.9251C67.3493 57.1728 67.2891 57.4164 67.2063 57.6528Z" fill="#C4A386"/>
<path id="Vector_25" d="M76.5221 51.5135C76.3266 51.74 76.1126 51.95 75.8824 52.1413C75.666 52.3281 75.4354 52.4981 75.1928 52.6496C74.7395 52.9796 74.2173 53.2031 73.6651 53.3032C73.1129 53.4033 72.5452 53.3775 72.0044 53.2276C71.9098 52.6958 71.9441 52.149 72.1044 51.6331C72.1785 51.3887 72.2825 51.1544 72.4142 50.9355C72.5446 50.7081 72.6881 50.4885 72.844 50.2778C73.5604 49.3801 74.4258 48.6115 75.4027 48.0055C76.2629 47.4001 77.1572 46.8444 78.0813 46.3412L79.3406 45.6635C79.3406 45.6635 79.3406 45.813 79.2607 46.0622C79.1807 46.3114 79.0908 46.6601 78.9409 47.0588C78.6198 48.1083 78.1665 49.1129 77.5915 50.0485C77.272 50.5626 76.9145 51.0523 76.5221 51.5135Z" fill="#C4A386"/>
<path id="Vector_26" d="M70.2653 51.0951C70.041 51.5675 69.6963 51.9729 69.2658 52.2711C68.3053 51.7344 67.5894 50.8492 67.2669 49.7996C67.1872 49.5549 67.1237 49.3051 67.077 49.0521L67.0169 48.6734C67.0169 48.5538 67.0169 48.4243 66.957 48.2947C66.8974 47.7854 66.8774 47.2724 66.897 46.76C66.9304 45.8922 67.0139 45.0271 67.1469 44.1689C67.2069 43.83 67.2669 43.551 67.3068 43.3617C67.3468 43.1723 67.3668 43.0627 67.3668 43.0627L67.6167 43.3118C67.8393 43.5326 68.0495 43.7655 68.2463 44.0094C68.8664 44.7668 69.4026 45.5888 69.8455 46.461C70.3335 47.4442 70.5964 48.5233 70.6151 49.6202C70.6127 49.879 70.5791 50.1367 70.5152 50.3875C70.4587 50.632 70.3749 50.8694 70.2653 51.0951Z" fill="#C4A386"/>
<path id="Vector_27" d="M78.5408 42.0462C78.4009 42.3107 78.2404 42.5639 78.061 42.8035C77.8802 43.0363 77.6832 43.2561 77.4714 43.4613C77.0888 43.8631 76.621 44.1745 76.1022 44.3727C75.5834 44.571 75.0268 44.6512 74.4729 44.6073C74.2746 44.1076 74.2025 43.5669 74.263 43.0328C74.2936 42.7785 74.3505 42.528 74.4329 42.2853C74.497 42.0334 74.5806 41.7869 74.6828 41.5478C74.9235 41.0435 75.222 40.5686 75.5723 40.1327L76.1121 39.4551C76.292 39.2258 76.4918 39.0066 76.6817 38.7874C77.4714 37.9303 78.3309 37.133 78.9406 36.545C79.5502 35.957 80 35.5684 80 35.5684C80 35.5684 80 36.1663 80 37.0632C79.9534 37.5783 79.88 38.0905 79.7801 38.598C79.7201 38.877 79.6602 39.166 79.5902 39.4551C79.5255 39.7523 79.442 40.0452 79.3404 40.332C79.1138 40.9211 78.8466 41.4939 78.5408 42.0462Z" fill="#C4A386"/>
<path id="Vector_28" d="M71.5943 43.9596C70.5706 43.6173 69.7117 42.9066 69.1855 41.9664C69.0577 41.7497 68.9474 41.5231 68.8558 41.2887C68.7414 41.0592 68.6412 40.8229 68.5559 40.5812C68.3986 40.1163 68.2783 39.6398 68.1961 39.1561C68.1061 38.6877 68.0062 38.2293 67.9562 37.8107C67.9562 37.5914 67.9562 37.3921 67.8962 37.2028C67.8363 37.0134 67.8962 36.834 67.8962 36.6646C67.8412 36.3015 67.8078 35.9354 67.7963 35.5684C67.7963 35.5684 68.2361 35.8175 68.8657 36.266L69.3755 36.6447C69.5553 36.7942 69.7353 36.9436 69.9152 37.1131C70.3055 37.4614 70.6696 37.8377 71.0046 38.2392C71.1745 38.4485 71.3444 38.6677 71.5044 38.897L71.7242 39.2457L71.9141 39.6145C72.1522 40.0915 72.327 40.5973 72.4338 41.1194C72.4895 41.3713 72.5164 41.6287 72.5138 41.8867C72.499 42.1359 72.4589 42.3831 72.3939 42.6242C72.2502 43.1318 71.9743 43.5925 71.5943 43.9596Z" fill="#C4A386"/>
<path id="Vector_29" d="M75.7518 29.5889C76.0216 29.0707 76.3115 28.5923 76.5913 28.104L77.3609 26.8583C77.8107 26.1307 78.1405 25.6624 78.1405 25.6624C78.1405 25.6624 78.3104 26.2304 78.4903 27.1074C78.5503 27.5559 78.6202 28.104 78.6602 28.6521C78.6602 28.9312 78.6602 29.2301 78.6602 29.5291C78.6602 29.8281 78.6602 30.137 78.6602 30.446C78.6115 31.0644 78.5112 31.6778 78.3604 32.2797C78.2031 32.8569 77.9678 33.4101 77.6607 33.924C77.3848 34.4041 77.0012 34.814 76.54 35.1218C76.0788 35.4295 75.5525 35.6267 75.0021 35.698C74.8525 35.4712 74.7316 35.2269 74.6423 34.9704C74.5479 34.7295 74.4808 34.4788 74.4424 34.223C74.3657 33.7118 74.3895 33.1905 74.5124 32.6883C74.6268 32.1495 74.7907 31.6224 75.0021 31.1137C75.222 30.5855 75.4919 30.0473 75.7518 29.5889Z" fill="#C4A386"/>
<path id="Vector_30" d="M69.2853 34.0934C68.9316 33.7478 68.6227 33.3594 68.3657 32.9374C68.085 32.5416 67.8408 32.1214 67.6361 31.6817C67.5261 31.4724 67.4462 31.2631 67.3463 31.0638L67.0864 30.4659C66.9264 30.0772 66.8065 29.7184 66.6966 29.4095C66.4667 28.8016 66.3568 28.4129 66.3568 28.4129C66.7733 28.5204 67.1836 28.6501 67.5861 28.8016C68.4859 29.1387 69.3364 29.5946 70.1148 30.1569C70.3422 30.3121 70.5592 30.4818 70.7645 30.6652C70.9643 30.8479 71.1544 31.0408 71.3342 31.2432C71.6928 31.6439 71.9924 32.0936 72.2237 32.5786C72.4284 33.0365 72.5339 33.5323 72.5336 34.0336C72.5404 34.2832 72.5066 34.5323 72.4336 34.7711C72.3514 35.0268 72.2372 35.2713 72.0938 35.4986C71.0214 35.3728 70.0273 34.8755 69.2853 34.0934Z" fill="#C4A386"/>
<path id="Vector_31" d="M72.7941 26.38C72.638 26.1772 72.5071 25.9563 72.4042 25.7222C72.3055 25.4916 72.2318 25.251 72.1843 25.0047C72.1843 24.7556 72.1144 24.4965 72.0844 24.2373C72.0521 23.6942 72.0823 23.1492 72.1744 22.6129C72.2505 22.0388 72.3606 21.4698 72.5042 20.9088C72.7941 19.7726 73.1039 18.7063 73.3937 17.919C73.6836 17.1317 73.8635 16.5337 73.8635 16.5337C73.8635 16.5337 73.9435 16.6633 74.0634 16.8825C74.1833 17.1018 74.3433 17.4406 74.5331 17.8791C74.9857 18.8805 75.3211 19.9305 75.5326 21.0084C75.6319 21.6049 75.6886 22.2077 75.7026 22.8122C75.6991 23.1124 75.6758 23.412 75.6326 23.7091C75.5857 23.9949 75.5223 24.2778 75.4427 24.5562C75.2975 25.0871 75.0383 25.5802 74.6831 26.0013C74.3198 26.4406 73.8526 26.783 73.3238 26.9978C73.1198 26.8169 72.9416 26.609 72.7941 26.38Z" fill="#C4A386"/>
<path id="Vector_32" d="M63.3185 22.0548C63.2086 21.8954 63.1587 21.8057 63.1587 21.8057H63.5085C63.7483 21.8057 64.0582 21.8057 64.438 21.8854C64.8178 21.9651 65.2676 22.005 65.7473 22.1146C65.9871 22.1645 66.2371 22.2342 66.4869 22.304C66.7368 22.3737 66.9766 22.4734 67.2265 22.5731C67.7378 22.7665 68.227 23.0137 68.6858 23.3105C69.1239 23.5899 69.5237 23.9249 69.8752 24.3071C70.0368 24.499 70.1744 24.7098 70.2849 24.9349C70.3932 25.1554 70.4802 25.3857 70.5448 25.6226C70.613 25.8625 70.6466 26.1108 70.6448 26.3601C70.6229 26.6271 70.5726 26.891 70.4948 27.1474C69.9502 27.253 69.3903 27.253 68.8457 27.1474C68.3486 27.0337 67.8706 26.8491 67.4264 26.5992C67.2165 26.4697 67.0066 26.3401 66.8067 26.1906L66.5269 25.9614L66.2371 25.7223C65.8758 25.4193 65.5414 25.0859 65.2375 24.7257C64.9375 24.4109 64.6571 24.0781 64.398 23.7291L64.2181 23.47L64.0482 23.2408C63.9282 23.0813 63.8283 22.9318 63.7384 22.8023C63.6484 22.6727 63.4085 22.2243 63.3185 22.0548Z" fill="#C4A386"/>
<path id="Vector_33" d="M69.5356 19.045C69.0633 18.815 68.6548 18.4728 68.3463 18.0484C68.0369 17.6443 67.8095 17.184 67.6766 16.6931C67.1329 14.5997 67.2767 12.3753 67.4667 10.2452C67.5567 9.41805 67.6466 8.85995 67.6466 8.85995C68.051 9.17358 68.3571 9.53764 68.6561 9.95619C68.9591 10.352 69.2394 10.7646 69.4957 11.192C69.7941 11.6898 70.0611 12.2057 70.2952 12.7367C70.5327 13.2912 70.7234 13.8646 70.8649 14.4508C70.9834 15.0208 71.0305 15.6033 71.0049 16.1849C70.9909 16.741 70.8516 17.2868 70.5972 17.7819C70.3429 18.277 69.98 18.7087 69.5356 19.045Z" fill="#C4A386"/>
<path id="Vector_34" d="M61.1403 18.4469C60.7505 18.1579 60.3907 17.8789 60.0708 17.5998C59.751 17.3208 59.451 17.0517 59.2212 16.8225C58.9913 16.5933 58.7815 16.394 58.6516 16.2544L58.4417 16.0352C58.8646 15.9501 59.2916 15.887 59.721 15.8458C60.1495 15.8041 60.5799 15.7874 61.0103 15.796C61.5324 15.7923 62.0541 15.8324 62.5695 15.9156C63.6464 16.0403 64.6761 16.4271 65.568 17.0417C65.9712 17.345 66.3107 17.7242 66.5673 18.1579C66.7936 18.6121 66.9002 19.1163 66.8772 19.6229C65.8908 20.0483 64.7836 20.1049 63.7589 19.7823C63.2783 19.6434 62.8155 19.4494 62.3796 19.2043C61.948 18.9833 61.5336 18.7301 61.1403 18.4469Z" fill="#C4A386"/>
<path id="Vector_35" d="M64.3315 13.9066C63.7435 13.9066 62.8259 13.9605 62.0793 13.4444C61.8769 13.2964 61.6833 13.1367 61.4997 12.966C61.3074 12.7958 61.127 12.6127 60.9599 12.4179C60.599 12.0291 60.265 11.6162 59.9604 11.1821C59.3807 10.3251 58.881 9.43809 58.5212 8.77039C58.3413 8.4415 58.2156 8.15265 58.1157 7.95336L58.0481 7.78312L58.0115 7.66418L58.4772 7.69683C58.7871 7.73767 58.9683 7.7649 59.2708 7.84359C60.2257 8.08526 61.1459 8.44694 62.0094 8.9199C63.0069 9.43458 63.8695 10.1752 64.528 11.0825C64.8336 11.5135 65.0385 12.0072 65.1277 12.5275C65.2272 12.9638 65.2244 13.4016 65.1277 13.853" fill="#C4A386"/>
<g id="Clip path group_2">
<mask id="mask1_108_1923" style="mask-type:luminance" maskUnits="userSpaceOnUse" x="29" y="24" width="22" height="29">
<g id="clip1_68_272">
<path id="Vector_36" d="M51 24H29V53H51V24Z" fill="white"/>
</g>
</mask>
<g mask="url(#mask1_108_1923)">
<g id="Group_2">
<path id="Vector_37" d="M41.5839 31.0788V28.4732C43.696 27.7612 45.0766 26.068 45.1193 24H41.9744C41.9475 24.5049 41.7273 24.98 41.3596 25.3265C40.9919 25.673 40.5051 25.8642 40.0002 25.8603C39.4954 25.8642 39.0084 25.6731 38.6407 25.3266C38.2729 24.9801 38.0526 24.505 38.0257 24H34.8812C34.9239 26.068 36.3044 27.7613 38.4164 28.4732V31.0788C35.6654 31.4797 33.1679 32.9091 31.4263 35.0794C29.6846 37.2498 28.828 40.0002 29.0286 42.7775C29.2293 45.5548 30.4723 48.153 32.5078 50.0496C34.5432 51.9462 37.2201 53.0005 40.0001 53.0005C42.7801 53.0005 45.457 51.9462 47.4925 50.0496C49.528 48.153 50.771 45.5548 50.9716 42.7775C51.1723 40.0002 50.3157 37.2498 48.574 35.0794C46.8324 32.9091 44.3349 31.4797 41.5839 31.0788ZM40.0002 50.0691C38.1299 50.0672 36.3182 49.4158 34.8738 48.2259C33.4293 47.036 32.4415 45.3812 32.0786 43.5436H35.3306C36.037 45.6561 37.8609 47.0513 39.9562 47.0711V43.919C39.4379 43.919 38.9407 43.7128 38.5742 43.3456C38.2076 42.9785 38.0017 42.4805 38.0017 41.9613C38.0017 41.442 38.2076 40.9441 38.5742 40.5769C38.9407 40.2098 39.4379 40.0035 39.9562 40.0035V36.8519C37.861 36.8715 36.0371 38.2669 35.3306 40.3795H32.0863C32.3891 38.879 33.1109 37.4954 34.1678 36.3895C35.2247 35.2836 36.5732 34.5009 38.0567 34.1324C39.5401 33.7639 41.0975 33.8247 42.5478 34.3077C43.9981 34.7907 45.2818 35.6762 46.2495 36.8611C47.2173 38.046 47.8294 39.4817 48.0147 41.0013C48.2 42.5209 47.9509 44.062 47.2964 45.4453C46.6418 46.8287 45.6087 47.9976 44.3171 48.8161C43.0255 49.6346 41.5285 50.0691 40.0002 50.0691Z" fill="#C4A386"/>
</g>
</g>
</g>
</g>
</g>
</g>
</svg>
