<svg width="37" height="36" viewBox="0 0 37 36" fill="none" xmlns="http://www.w3.org/2000/svg">
<g id="Group">
<path id="Rectangle" d="M0.5 6C0.5 2.68629 3.18629 0 6.5 0H30.5C33.8137 0 36.5 2.68629 36.5 6V30C36.5 33.3137 33.8137 36 30.5 36H0.5V6Z" fill="#4169E1"/>
<path id="Vector" d="M26.9097 10.2973C27.2778 9.9468 27.7677 9.75305 28.276 9.75689C28.7842 9.76074 29.2711 9.96188 29.6339 10.3179C29.9967 10.6739 30.207 11.1569 30.2204 11.665C30.2339 12.1731 30.0494 12.6665 29.7059 13.0412L19.2789 26.0815C19.0996 26.2746 18.8832 26.4296 18.6427 26.5371C18.4021 26.6447 18.1423 26.7027 17.8789 26.7076C17.6154 26.7124 17.3537 26.6641 17.1093 26.5655C16.8649 26.4669 16.6429 26.3201 16.4566 26.1337L9.54186 19.219C9.34929 19.0396 9.19484 18.8232 9.08772 18.5828C8.9806 18.3424 8.92299 18.0828 8.91835 17.8197C8.91371 17.5565 8.96212 17.2951 9.06069 17.051C9.15927 16.807 9.30599 16.5853 9.4921 16.3992C9.67822 16.2131 9.89991 16.0663 10.144 15.9678C10.388 15.8692 10.6494 15.8208 10.9126 15.8254C11.1757 15.8301 11.4353 15.8877 11.6757 15.9948C11.9161 16.1019 12.1325 16.2564 12.3119 16.4489L17.7841 21.9185L26.8601 10.3548C26.8764 10.3346 26.8938 10.3154 26.9123 10.2973H26.9097Z" fill="white"/>
</g>
</svg>
