<svg width="51" height="57" viewBox="0 0 51 57" fill="none" xmlns="http://www.w3.org/2000/svg">
<g clip-path="url(#clip0_71_3608)">
<g opacity="0.4">
<path d="M45.3181 46.0383L34.7543 36.2245L36.0247 43.8572L31.4588 50.6793L45.3181 46.0383Z" fill="#1A73E9"/>
<path d="M38.2208 44.759C38.2208 44.759 37.0718 45.3729 35.4653 45.0304C33.93 44.7782 31.7642 44.2915 29.5884 43.2274C29.5172 43.1372 29.2833 43.029 29.1206 43.011C28.9783 42.8306 28.6529 42.7946 28.4191 42.6864C28.1852 42.5781 27.8802 42.3797 27.4837 42.2535C27.1786 42.0551 26.7821 41.9289 26.4059 41.6403C25.6332 41.2254 24.7893 40.7204 23.7827 40.1973C22.8676 39.6021 21.7898 38.9888 20.824 38.141C20.7528 38.0507 20.6105 37.8703 20.4478 37.8523C20.3766 37.7621 20.2343 37.5817 20.0716 37.5637C19.8581 37.2931 19.553 37.0947 19.248 36.8963C19.1768 36.806 19.0345 36.6256 18.8922 36.4452C18.7498 36.2648 18.6787 36.1746 18.5363 35.9942C18.394 35.8138 18.3228 35.7236 18.1805 35.5432L18.0381 35.3627L17.8958 35.1823C17.7535 35.0019 17.6823 34.9117 17.54 34.7313C17.3976 34.5509 17.3265 34.4607 17.1841 34.2803C16.9706 34.0096 16.6859 33.6488 16.4724 33.3782C16.3301 33.1978 16.2589 33.1076 16.1166 32.9272C15.9743 32.7467 15.9031 32.6565 15.7607 32.4761C15.6184 32.2957 15.5472 32.2055 15.4049 32.0251C15.2626 31.8447 15.1914 31.7545 15.0491 31.5741C14.0527 30.3112 13.4021 28.9219 12.6802 27.4424C11.9584 25.9629 11.4908 24.4292 11.1147 22.8233C10.7386 21.2174 10.5252 19.6295 10.4745 18.0596C10.4238 16.4897 10.5358 14.9378 10.7901 13.5663C10.9732 12.1046 11.3902 10.7511 11.8784 9.48785C12.3665 8.22458 12.8343 7.12372 13.3733 6.11307C13.5564 5.96867 13.6886 5.57164 13.8004 5.33703C13.892 5.26483 13.9835 5.19263 14.0038 5.03022C14.0242 4.86781 14.1869 4.88581 14.2072 4.7234C14.2987 4.6512 14.3902 4.57899 14.4106 4.41659C14.5021 4.34438 14.5936 4.27218 14.6851 4.19998C14.8682 4.05557 14.98 3.82096 15.0919 3.58635C15.2749 3.44194 15.458 3.29753 15.5698 3.06292C15.5698 3.06292 15.7529 2.91852 15.8444 2.84631C15.8444 2.84631 15.8444 2.84631 15.9359 2.77411C15.9359 2.77411 15.9359 2.77411 16.0274 2.70191C16.2105 2.5575 16.302 2.4853 16.485 2.34089L16.6681 2.19649C16.6681 2.19649 16.6681 2.19649 16.7596 2.12428C16.7596 2.12428 16.7596 2.12428 16.8511 2.05208C17.1256 1.83547 17.3087 1.69107 17.5832 1.47446C17.5832 1.47446 17.5832 1.47446 17.6747 1.40225C17.6747 1.40225 17.8578 1.25785 17.9493 1.18565C17.5223 0.644406 17.7053 0.5 17.7053 0.5C17.7053 0.5 17.685 0.66241 17.4816 0.969225L17.2986 1.11363C17.2986 1.11363 17.2986 1.11363 17.207 1.18583C17.024 1.33024 16.9121 1.56485 16.7088 1.87167C16.7088 1.87167 16.7088 1.87167 16.6172 1.94387C16.6172 1.94387 16.4342 2.08828 16.3427 2.16048C16.2512 2.23268 16.1393 2.46729 16.0274 2.70191C16.0274 2.70191 16.0274 2.70191 15.9359 2.77411C15.9359 2.77411 15.9359 2.77411 15.8444 2.84631L15.6614 2.99072C15.4783 3.13512 15.458 3.29753 15.3461 3.53215C15.1631 3.67655 15.1224 4.00137 15.0309 4.07357C15.0309 4.07357 14.8478 4.21798 14.8275 4.38039C14.8275 4.38039 14.6444 4.5248 14.6241 4.68721C14.6241 4.68721 14.4411 4.83161 14.4207 4.99402C14.4207 4.99402 14.2377 5.13843 14.2173 5.30084C14.1055 5.53545 13.9936 5.77006 13.8817 6.00467C13.5054 7.03333 13.0376 8.13419 12.641 9.32526C12.2443 10.5163 12.0815 11.8156 11.9188 13.1149C11.8271 14.5044 11.7355 15.8938 11.8066 17.3013C11.8777 18.7088 12.1826 20.2245 12.5078 21.5778C12.9043 23.0213 13.3922 24.3926 14.0632 25.6195C14.7342 26.8464 15.4764 28.1635 16.3304 29.2459C16.4727 29.4263 16.5439 29.5166 16.6862 29.697C16.8286 29.8774 16.8998 29.9676 17.0421 30.148C17.1133 30.2382 17.2556 30.4186 17.3268 30.5088C17.3979 30.599 17.5403 30.7794 17.6114 30.8697C17.8249 31.1403 18.0385 31.4109 18.252 31.6815C18.3231 31.7717 18.4655 31.9521 18.5366 32.0423C18.6078 32.1325 18.7501 32.313 18.8213 32.4032C18.8213 32.4032 18.8925 32.4934 18.9636 32.5836C19.0348 32.6738 19.0348 32.6738 19.106 32.764C19.1772 32.8542 19.3195 33.0346 19.3907 33.1248C19.4618 33.215 19.6042 33.3954 19.6753 33.4856C19.7465 33.5759 19.8888 33.7563 19.96 33.8465C20.1735 34.1171 20.4074 34.2253 20.7124 34.4237C20.7836 34.5139 20.9259 34.6943 21.0886 34.7123C21.1598 34.8026 21.3021 34.983 21.4648 35.001C23.4373 36.3719 25.2878 37.4 26.8332 38.2297C27.1382 38.4281 27.5348 38.5543 27.8398 38.7527C28.1448 38.9511 28.4702 38.9871 28.7752 39.1855C29.0091 39.2938 29.2429 39.402 29.4768 39.5102C29.6191 39.6906 29.8733 39.6364 29.9445 39.7266C32.0492 40.7005 33.92 41.5662 35.2317 42.2876C36.5433 43.0091 37.3668 43.6766 37.2346 44.0736L38.2208 44.759Z" fill="#1A73E9"/>
<path d="M15.4455 33.0175C15.4455 33.0175 15.4455 33.0176 15.3743 32.9273C15.232 32.7469 15.1608 32.6567 15.0185 32.4763C14.9473 32.3861 14.805 32.2057 14.7338 32.1155C13.7374 30.8526 13.0156 29.3731 12.365 27.9838C11.6432 26.5043 11.1756 24.9706 10.7995 23.3647C10.4234 21.7588 10.21 20.1709 10.1593 18.601C10.1085 17.0311 10.2205 15.4792 10.4037 14.0175C10.658 12.646 11.0038 11.2023 11.492 9.93907C11.8886 8.74801 12.3564 7.64715 12.9869 6.56429C13.0784 6.49209 13.1903 6.25748 13.2106 6.09507L13.4852 5.87846L13.5259 5.55364L13.7089 5.40923L13.892 5.26483C13.892 5.26483 13.9835 5.19263 14.075 5.12042C14.075 5.12042 14.1665 5.04822 14.258 4.97602C14.258 4.97602 14.258 4.97602 14.3495 4.90381L14.7563 4.29018C14.7563 4.29018 15.0309 4.07357 15.0512 3.91116C15.0512 3.91116 15.1427 3.83896 15.2342 3.76676L15.5088 3.55015C15.5088 3.55015 15.5088 3.55015 15.6003 3.47795C15.7834 3.33354 15.8749 3.26134 16.0579 3.11693L16.2409 2.97253L16.3325 2.90032C16.3325 2.90032 16.5156 1.43864 16.7901 1.22203C16.7901 1.22203 16.7901 1.22203 16.8817 1.14983C16.8817 1.14983 17.1562 0.933217 17.2477 0.861015C17.4308 0.716609 17.5223 0.644406 17.5223 0.644406L17.6138 0.572203C17.6138 0.572203 17.6138 0.572203 17.5223 0.644406C17.5223 0.644406 17.3393 0.788812 17.3189 0.951221L17.1359 1.09563L17.0444 1.16783C16.8613 1.31224 16.7495 1.54685 16.5461 1.85366C16.5461 1.85366 16.5461 1.85366 16.4545 1.92587C16.4545 1.92587 16.2715 2.07027 16.18 2.14248L15.8647 2.6839C15.8647 2.6839 15.8647 2.6839 15.7732 2.75611L15.5902 2.90051C15.5902 2.90051 15.4987 2.97271 15.4072 3.04492C15.3156 3.11712 15.2241 3.18932 15.2038 3.35173C15.1123 3.42394 15.0207 3.49614 15.0004 3.65855L14.8174 3.80295C14.8174 3.80295 14.8885 3.89316 14.797 3.96536C14.797 3.96536 14.7055 4.03757 14.614 4.10977C14.614 4.10977 14.5225 4.18197 14.5021 4.34438L14.2072 4.7234C14.2072 4.7234 14.1157 4.7956 14.0953 4.95801C14.0038 5.03022 13.9835 5.19263 13.8716 5.42724L13.6886 5.57164C13.2919 6.76271 12.8953 7.95378 12.5902 9.07264C12.2647 10.3539 11.9392 11.6352 11.8679 12.8623C11.7763 14.2517 11.6847 15.6412 11.7558 17.0487C11.8268 18.4562 12.1318 19.9719 12.457 21.3252C12.8535 22.7687 13.3414 24.14 14.0124 25.3669C14.5919 26.6659 15.4256 27.9108 16.2796 28.9933C16.3508 29.0835 16.4931 29.2639 16.5643 29.3541C16.5643 29.3541 16.7066 29.5346 16.7778 29.6248L16.9201 29.8052C16.9913 29.8954 17.0624 29.9856 17.1336 30.0758C17.1336 30.0758 17.1336 30.0758 17.2048 30.166C17.2048 30.166 17.2759 30.2562 17.3471 30.3464C17.3471 30.3464 17.4895 30.5268 17.5606 30.617L17.703 30.7975C17.8453 30.9779 17.9876 31.1583 18.13 31.3387C18.13 31.3387 18.2011 31.4289 18.2723 31.5191C18.2723 31.5191 18.4146 31.6995 18.4858 31.7897L18.557 31.8799C18.557 31.8799 18.6993 32.0603 18.7705 32.1506C18.7705 32.1506 18.7705 32.1506 18.8417 32.2408C18.8417 32.2408 18.8417 32.2408 18.9128 32.331C18.9128 32.331 19.1263 32.6016 19.1975 32.6918L19.2687 32.782C19.2687 32.782 19.411 32.9624 19.4822 33.0526C19.4822 33.0526 19.6957 33.3232 19.7669 33.4134C19.7669 33.4134 19.7669 33.4134 19.838 33.5037C19.9804 33.6841 20.2142 33.7923 20.5192 33.9907C20.5192 33.9907 20.6616 34.1711 20.8243 34.1891C20.8243 34.1891 20.8954 34.2793 20.9666 34.3695C20.9666 34.3695 21.0378 34.4597 21.1089 34.5499C22.024 35.1452 22.9391 35.7404 24.0168 36.3537C24.7896 36.7685 25.5623 37.1834 26.5689 37.7064C26.8739 37.9048 27.1078 38.013 27.3416 38.1213C27.3416 38.1213 27.4128 38.2115 27.5755 38.2295C27.5755 38.2295 27.7178 38.4099 27.8805 38.4279C28.0228 38.6083 28.277 38.5541 28.4194 38.7345C28.4194 38.7345 28.8871 38.9509 29.121 39.0591C29.2633 39.2396 29.5175 39.1854 29.5887 39.2756C30.7579 39.8166 31.6934 40.2495 32.4661 40.6643C33.4015 41.0971 34.1742 41.512 34.7843 41.9088C35.557 42.3237 36.0044 42.7025 36.3094 42.9009C36.4517 43.0813 36.5941 43.2617 36.6653 43.3519C36.7364 43.4421 36.8076 43.5323 36.7872 43.6948C36.655 44.0918 35.567 44.2184 34.0317 43.9661C33.2183 43.8761 32.2625 43.6057 31.3067 43.3352C30.2798 42.9746 29.1613 42.6862 28.1548 42.1631C28.1548 42.1631 28.0124 41.9827 27.7582 42.0369C27.7582 42.0369 27.7582 42.0369 27.687 41.9467C27.5447 41.7663 27.2193 41.7303 26.9855 41.6221C26.8431 41.4417 26.5178 41.4056 26.2839 41.2974C26.2839 41.2974 26.1416 41.117 26.0501 41.1892C26.0501 41.1892 25.9789 41.099 25.9077 41.0088C25.6027 40.8104 25.3688 40.7022 25.0638 40.5038C24.0572 39.9807 23.2133 39.4757 22.4406 39.0608C21.3628 38.4476 20.3766 37.7621 19.4819 37.0045L19.3395 36.824L19.1972 36.6436C19.1972 36.6436 19.126 36.5534 19.0549 36.4632C19.0549 36.4632 18.9837 36.373 18.9125 36.2828C18.699 36.0122 18.4652 35.904 18.1601 35.7056C18.1601 35.7056 18.1601 35.7056 18.089 35.6154C18.0178 35.5251 17.8755 35.3447 17.8043 35.2545C17.8043 35.2545 17.5908 34.9839 17.4484 34.8035C17.3061 34.6231 17.2349 34.5329 17.0926 34.3525L16.9503 34.172C16.9503 34.172 16.8791 34.0818 16.8079 33.9916L16.4521 33.5406C16.4521 33.5406 16.3097 33.3602 16.2386 33.27C16.2386 33.27 16.1674 33.1798 16.0962 33.0896C15.9539 32.9092 15.7404 32.6385 15.5269 32.3679L15.3846 32.1875C15.3134 32.0973 15.2422 32.0071 15.171 31.9169C15.171 31.9169 15.0999 31.8267 15.0287 31.7365C15.0287 31.7365 15.0287 31.7365 14.9575 31.6463L14.8152 31.4658L15.4455 33.0175ZM17.7053 0.5C17.7053 0.5 17.5223 0.644406 17.2477 0.861015C17.2477 0.861015 17.0647 1.00542 16.9732 1.07762L16.8817 1.14983C16.8817 1.14983 16.4241 1.51084 16.1495 1.72745C16.1495 1.72745 16.1495 1.72745 16.058 1.79965L15.7835 2.01626C15.6004 2.16067 15.5089 2.23287 15.3259 2.37728C15.3259 2.37728 15.3259 2.37728 15.2344 2.44948L14.9598 2.66609C14.9598 2.66609 14.8683 2.73829 14.8479 2.9007C14.7564 2.9729 14.5734 3.11731 14.553 3.27972L14.1463 3.89335C14.1463 3.89335 14.1463 3.89335 14.0547 3.96555C14.0547 3.96555 13.9632 4.03775 13.8717 4.10996C13.8717 4.10996 13.7802 4.18216 13.6887 4.25436L13.5056 4.39877L13.3226 4.54317L13.1396 4.68758L12.865 4.90419C12.865 4.90419 12.7328 5.30121 12.7125 5.46362C12.082 6.54648 11.6853 7.73754 11.2175 8.8384C10.8005 10.1919 10.3835 11.5454 10.1292 12.9168C9.85455 14.4507 9.83409 15.9304 9.81364 17.4101C9.86436 18.98 10.0778 20.5679 10.4539 22.1738C10.83 23.7797 11.2976 25.3134 12.0194 26.7929C12.67 28.1822 13.4833 29.5895 14.3882 30.9246C14.4594 31.0148 14.6017 31.1952 14.6729 31.2854C14.8152 31.4658 14.8864 31.5561 15.0287 31.7365C15.0999 31.8267 15.171 31.9169 15.3134 32.0973C15.3134 32.0973 15.3134 32.0973 15.3846 32.1875C15.3846 32.1875 15.4557 32.2777 15.5269 32.3679C15.5981 32.4581 15.6692 32.5483 15.7404 32.6385L15.8827 32.8189C16.0251 32.9994 16.2386 33.27 16.4521 33.5406C16.4521 33.5406 16.5233 33.6308 16.5944 33.721C16.6656 33.8112 16.7368 33.9014 16.8079 33.9916L17.1638 34.4427C17.1638 34.4427 17.2349 34.5329 17.3061 34.6231L17.4484 34.8035C17.5908 34.9839 17.662 35.0741 17.8043 35.2545C17.9466 35.4349 18.0178 35.5251 18.1601 35.7056C18.1601 35.7056 18.3736 35.9762 18.4448 36.0664C18.4448 36.0664 18.4448 36.0664 18.516 36.1566C18.7295 36.4272 18.9633 36.5354 19.2684 36.7338C19.2684 36.7338 19.3395 36.824 19.4107 36.9143C19.4107 36.9143 19.4819 37.0045 19.553 37.0947L19.6954 37.2751C19.6954 37.2751 19.8377 37.4555 19.9292 37.3833C20.9155 38.0687 21.9017 38.7542 22.888 39.4397C23.7319 39.9447 24.5758 40.4498 25.5112 40.8826C25.8162 41.081 26.0501 41.1892 26.3551 41.3876C26.3551 41.3876 26.4262 41.4778 26.4974 41.5681C26.4974 41.5681 26.6398 41.7485 26.7313 41.6763C26.8736 41.8567 27.199 41.8927 27.4328 42.0009C27.6667 42.1091 27.9005 42.2173 28.1344 42.3255C28.1344 42.3255 28.1344 42.3255 28.2056 42.4157C28.2767 42.5059 28.4394 42.5239 28.6021 42.5419C29.7002 42.9928 30.7272 43.3534 31.7541 43.7141C32.7099 43.9845 33.6656 44.2549 34.4791 44.345C35.2925 44.435 35.9432 44.507 36.4516 44.3986C36.9601 44.2902 37.2143 44.236 37.3261 44.0014C37.3261 44.0014 37.3465 43.839 37.2041 43.6586C37.133 43.5684 36.9906 43.3879 36.8483 43.2075C36.5636 42.8467 36.0247 42.5401 35.3232 42.2154C34.7131 41.8186 33.9404 41.4038 33.005 40.9709C32.2322 40.5561 31.2968 40.1232 30.1275 39.5822C30.1275 39.5822 29.8937 39.474 29.6598 39.3658C29.5175 39.1854 29.1921 39.1494 28.9583 39.0411C28.9583 39.0411 28.5617 38.9149 28.3279 38.8067C28.3279 38.8067 28.1855 38.6263 28.0228 38.6083C28.0228 38.6083 27.9517 38.5181 27.789 38.5001C27.5551 38.3919 27.2501 38.1935 27.0163 38.0853C26.0808 37.6524 25.2369 37.1474 24.4642 36.7325C23.3864 36.1193 22.4714 35.524 21.5563 34.9288C21.5563 34.9288 21.4851 34.8386 21.414 34.7484C21.414 34.7484 21.3428 34.6581 21.2716 34.5679C21.2005 34.4777 21.1293 34.3875 21.0581 34.2973C21.0581 34.2973 20.6819 34.0087 20.3769 33.8103C20.3769 33.8103 20.3769 33.8103 20.3057 33.7201C20.2346 33.6299 20.0922 33.4495 20.0211 33.3592C20.0211 33.3592 19.8787 33.1788 19.8075 33.0886L19.7364 32.9984C19.7364 32.9984 19.5229 32.7278 19.3602 32.7098C19.3602 32.7098 19.3602 32.7098 19.289 32.6196C19.289 32.6196 19.289 32.6196 19.2179 32.5294C19.2179 32.5294 19.0755 32.349 19.0043 32.2588L18.9332 32.1686C18.9332 32.1686 18.7908 31.9881 18.7197 31.8979C18.7197 31.8979 18.6485 31.8077 18.5773 31.7175C18.435 31.5371 18.2927 31.3567 18.1503 31.1763L18.008 30.9959C18.008 30.9959 17.8656 30.8155 17.7945 30.7252C17.7945 30.7252 17.7233 30.635 17.6521 30.5448C17.6521 30.5448 17.6521 30.5448 17.581 30.4546C17.5098 30.3644 17.4386 30.2742 17.3675 30.184L17.2251 30.0036C17.2251 30.0036 17.0828 29.8232 17.0116 29.733C16.9404 29.6428 16.7981 29.4624 16.7269 29.3721C15.8729 28.2897 15.1308 26.9726 14.4598 25.7457C13.8803 24.4466 13.2297 23.0573 12.9044 21.704C12.5079 20.2605 12.2742 18.835 12.2031 17.4275C12.1321 16.0201 12.061 14.6126 12.3153 13.2411C12.4781 11.9418 12.6409 10.6425 13.0375 9.45147C13.3426 8.33261 13.8105 7.23175 14.2783 6.13089L14.4613 5.98648C14.4613 5.98648 14.4308 5.57146 14.6139 5.42705C14.6139 5.42705 14.7054 5.35485 14.7257 5.19244L15.0003 4.97583L14.858 4.79542C14.858 4.79542 14.9495 4.72321 14.9698 4.5608C14.9698 4.5608 15.0613 4.4886 15.1529 4.4164C15.1529 4.4164 15.1529 4.4164 15.2444 4.34419L15.4274 4.19979C15.4274 4.19979 15.4681 3.87497 15.5596 3.80277C15.6511 3.73056 15.7427 3.65836 15.763 3.49595C15.763 3.49595 15.8545 3.42375 15.946 3.35155C15.946 3.35155 16.0376 3.27934 16.1291 3.20714L16.3121 3.06273L16.6274 2.52131C16.6274 2.52131 16.7189 2.4491 16.8104 2.3769L16.9934 2.23249C16.9934 2.23249 17.3087 1.69107 17.4917 1.54666L17.3494 1.36625C17.3494 1.36625 17.6239 1.14964 17.7154 1.07744C17.7561 0.752616 17.7765 0.590207 17.7053 0.5Z" fill="#1A73E9"/>
</g>
</g>
<defs>
<clipPath id="clip0_71_3608">
<rect width="50" height="56" fill="white" transform="translate(0.5 0.5)"/>
</clipPath>
</defs>
</svg>
