<svg width="16" height="18" viewBox="0 0 16 18" fill="none" xmlns="http://www.w3.org/2000/svg">
<g id="Group">
<path id="Oval 2 Copy 2" fill-rule="evenodd" clip-rule="evenodd" d="M4.28751 7.75376C4.28751 5.7034 5.94965 4.04126 8.00001 4.04126C10.0504 4.04126 11.7125 5.7034 11.7125 7.75376C11.7125 9.80412 10.0504 11.4663 8.00001 11.4663C5.94965 11.4663 4.28751 9.80412 4.28751 7.75376ZM10.475 7.75376C10.475 6.38686 9.36691 5.27876 8.00001 5.27876C6.6331 5.27876 5.52501 6.38686 5.52501 7.75376C5.52501 9.12067 6.6331 10.2288 8.00001 10.2288C9.36691 10.2288 10.475 9.12067 10.475 7.75376Z" fill="#2C2C2C"/>
<path id="Shape Copy 3" fill-rule="evenodd" clip-rule="evenodd" d="M0.574997 7.75386C0.574997 3.6186 3.88335 0.328857 8 0.328857C12.1166 0.328857 15.425 3.6186 15.425 7.75386C15.425 9.06754 15.0247 10.374 14.2985 11.6613C13.7092 12.706 12.9199 13.7129 11.9805 14.678C11.2611 15.417 10.4943 16.0904 9.72716 16.6878C9.45802 16.8974 9.20725 17.0831 8.9808 17.2434L8.95688 17.2603C8.88588 17.3104 8.82171 17.3548 8.76492 17.3934L8.71711 17.4256L8.67772 17.4518C8.26608 17.7212 7.73392 17.7212 7.32227 17.4518C7.30759 17.4422 7.28529 17.4273 7.2558 17.4074L7.17584 17.3528C7.12789 17.3198 7.07559 17.2833 7.0192 17.2434L6.94688 17.192C6.73974 17.0438 6.51364 16.8754 6.27283 16.6878C5.5057 16.0904 4.73887 15.417 4.01951 14.678C3.08005 13.7129 2.29078 12.706 1.70146 11.6613C0.975312 10.374 0.574997 9.06754 0.574997 7.75386ZM14.1875 7.75386C14.1875 4.28623 11.4173 1.56636 8 1.56636C4.58274 1.56636 1.8125 4.28623 1.8125 7.75386C1.8125 12.228 7.63432 16.1729 7.98363 16.4055L8 16.4164C8 16.4164 14.1875 12.3664 14.1875 7.75386Z" fill="#2C2C2C"/>
</g>
</svg>
