<svg width="41" height="40" viewBox="0 0 41 40" fill="none" xmlns="http://www.w3.org/2000/svg">
<g id="mission 1">
<g id="Group">
<path id="Vector" d="M19.6016 2.54681C19.4766 2.56244 19.0312 2.61713 18.625 2.664C15.2109 3.04681 11.7812 4.45306 9.28906 6.48431C5.98438 9.18744 3.84375 13.1484 3.22656 17.7343C3.09375 18.6874 3.09375 21.3124 3.22656 22.2656C3.6875 25.6484 5 28.789 6.98438 31.2109C9.69531 34.5312 13.5859 36.6171 18.3516 37.3124C19.6328 37.4999 21.875 37.5078 23.0391 37.3203C26.7969 36.7109 30.0312 35.1093 32.6719 32.5468C35.3984 29.9062 37.0859 26.6718 37.7734 22.7578C38.0156 21.4218 38.0312 18.7812 37.8203 17.4609C37.5234 15.6562 37.0312 14.0546 36.3203 12.539C35.9531 11.7421 35.7578 11.539 35.4062 11.539C35.1406 11.539 34.7969 11.8515 34.7969 12.1015C34.7969 12.1796 34.9766 12.6171 35.1953 13.0781C36.3438 15.5234 36.8984 18.3906 36.6875 20.8437C36.3125 25.2343 34.7578 28.7968 32.0312 31.5312C29.6484 33.9062 26.5625 35.4296 23 35.9843C21.9141 36.1562 19.2344 36.1796 18.2734 36.0312C16.2969 35.7187 14.8047 35.2734 13.2969 34.5468C8.27344 32.1406 5.22656 27.7734 4.39844 21.7968C4.25 20.7265 4.26562 18.3515 4.42969 17.3828C5.20312 12.8671 7.6875 9.08588 11.5547 6.52338C13.5156 5.2265 15.6562 4.37494 18.0391 3.94525C19.125 3.74213 21.5 3.70306 22.6328 3.85931C24.3516 4.1015 26.1016 4.63275 27.5469 5.35931C28.2969 5.73431 28.4297 5.76556 28.6875 5.57806C28.9453 5.40619 29.0234 5.13275 28.9219 4.84369C28.8516 4.64056 28.7188 4.539 28.0469 4.2265C26.4922 3.4765 24.8125 2.96088 23.1172 2.69525C22.3516 2.57806 20.0703 2.4765 19.6016 2.54681Z" fill="#4169E1"/>
<path id="Vector_2" d="M32.6484 3.51554C32.5625 3.54679 31.4063 4.67179 30.0781 5.99992L27.6641 8.42179L27.7188 8.92179C27.7422 9.18742 27.8047 9.92179 27.8516 10.539L27.9375 11.664L23.9531 15.6562C21.7578 17.8515 19.9453 19.7265 19.9141 19.828C19.7891 20.2499 20.25 20.7109 20.6719 20.5859C20.7734 20.5546 22.6484 18.7421 24.8438 16.5468L28.8359 12.5624L29.9609 12.6484C30.5781 12.6952 31.3125 12.7577 31.5781 12.7812L32.0781 12.8359L34.5 10.4218C35.8281 9.09367 36.9531 7.92961 36.9922 7.82804C37.0391 7.70304 37.0234 7.56242 36.9531 7.38273C36.8125 7.04679 36.625 6.99992 34.9922 6.88273C34.3125 6.82804 33.7344 6.78117 33.7266 6.76554C33.7188 6.75773 33.6563 6.11711 33.5938 5.33586C33.5391 4.56242 33.4453 3.85929 33.3984 3.77336C33.3359 3.64836 32.8828 3.39836 32.8125 3.44523C32.8047 3.44523 32.7344 3.47648 32.6484 3.51554ZM32.4453 6.67961C32.5547 7.95304 32.5547 7.94523 33.9297 8.06242L34.9688 8.14836L33.2813 9.83586L31.5938 11.5234L30.4141 11.4374C29.7734 11.3827 29.2188 11.328 29.1953 11.2968C29.1719 11.2734 29.1094 10.7343 29.0547 10.1015L28.9688 8.94523L30.6484 7.24211C31.5781 6.31242 32.3438 5.58586 32.3516 5.64054C32.3594 5.69523 32.4063 6.16398 32.4453 6.67961Z" fill="#4169E1"/>
<path id="Vector_3" d="M19.6406 8.17185C17.5547 8.42185 15.8594 8.9531 14.3672 9.82028C12.5078 10.8984 10.9453 12.5625 9.96094 14.5234C9.53906 15.3515 9.0625 16.7734 8.88281 17.7343C8.69531 18.7734 8.69531 21.2265 8.88281 22.2656C9.69531 26.5937 12.6797 29.9843 16.7969 31.2422C19.9297 32.2031 22.7656 32.0312 25.5703 30.7265C26.7891 30.164 27.7656 29.4609 28.8672 28.3672C30.6719 26.5547 31.7266 24.5625 32.1875 22.0703C32.3828 21.0156 32.3906 18.9297 32.1953 17.9297C31.9141 16.4922 31.1719 14.5156 30.7734 14.1406C30.5 13.8828 30.1328 13.8984 29.8984 14.1718C29.6562 14.4609 29.6719 14.5937 30.0391 15.3203C31.375 17.9765 31.4766 21.0625 30.3203 23.8984C28.9453 27.2812 26.1016 29.6953 22.6094 30.4453C21.6719 30.6406 19.4922 30.6406 18.5078 30.4375C15.2031 29.75 12.4688 27.6797 10.9844 24.7187C10.6562 24.0625 10.2344 22.8281 10.0625 21.9922C9.85938 21.0078 9.85938 18.8281 10.0547 17.8906C10.5 15.8047 11.3906 14.1875 12.9609 12.6093C14.5078 11.0547 16.3594 10.0468 18.5469 9.57028C19.4531 9.37497 21.2344 9.33591 22.1797 9.48435C23.1172 9.6406 24.3203 10.0312 25.1797 10.4609C25.9062 10.8281 26.0391 10.8437 26.3281 10.6015C26.5859 10.375 26.6172 10.0078 26.3906 9.75778C26.0469 9.36716 24.125 8.62497 22.7734 8.35153C22.0469 8.21091 20.2188 8.10153 19.6406 8.17185Z" fill="#4169E1"/>
<path id="Vector_4" d="M19.3828 13.875C16.9375 14.3203 15.1172 16 14.4766 18.3984C14.25 19.2578 14.25 20.7265 14.4687 21.5703C15.125 24.0312 16.9297 25.6953 19.4453 26.1328C20.2969 26.2812 20.8672 26.2812 21.6094 26.1406C24.3203 25.6172 26.2891 23.5547 26.6875 20.8281C26.8047 19.9844 26.6797 18.5859 26.4375 18.0859C26.1562 17.5078 25.625 17.4375 25.2969 17.9297C25.1719 18.1172 25.1719 18.164 25.3125 18.6562C25.5391 19.4531 25.5078 20.7031 25.2422 21.5234C24.6953 23.1797 23.4453 24.375 21.7891 24.8047C21.1641 24.9687 19.8281 24.9687 19.2109 24.8047C18.3125 24.5625 17.6172 24.164 16.9766 23.5234C15.0391 21.5781 15.0234 18.4453 16.9453 16.5234C18.2344 15.2344 19.9141 14.7422 21.6328 15.1484C22.4375 15.3437 22.6875 15.2969 22.8437 14.914C22.9219 14.7344 22.9219 14.6328 22.8359 14.4453C22.7031 14.125 22.2891 13.9375 21.4375 13.8359C20.6016 13.7265 20.1406 13.7344 19.3828 13.875Z" fill="#4169E1"/>
</g>
</g>
</svg>
