<svg width="13" height="20" viewBox="0 0 13 20" fill="none" xmlns="http://www.w3.org/2000/svg">
<path d="M6.93512 7.66639C6.87981 7.07473 6.92056 5.46306 8.46734 3.21732C8.58379 3.04807 8.56297 2.81981 8.41786 2.6747C7.78915 2.046 7.39956 1.64891 7.12638 1.37075C6.76549 1.00317 6.6008 0.835584 6.36049 0.617286C6.19997 0.473031 5.95714 0.470945 5.79501 0.611495C3.10185 2.95495 0.110145 7.79655 0.542143 13.7305C0.796632 17.2136 3.33799 19.7425 6.585 19.7425C9.91725 19.7425 12.6283 17.0319 12.6283 13.6997C12.6283 10.4847 10.1052 7.84812 6.93512 7.66639ZM6.585 18.891C3.79707 18.891 1.61243 16.6947 1.39124 13.6685C0.905589 6.99447 4.87191 2.6618 6.07023 1.51462C6.18749 1.62979 6.3214 1.76617 6.51849 1.96701C6.75506 2.20818 7.07899 2.5379 7.56881 3.02938C5.69312 5.91962 6.04698 7.97824 6.20205 8.27305C6.27567 8.41317 6.42699 8.50799 6.585 8.50799C9.44783 8.50799 11.7767 10.8369 11.7767 13.6997C11.7767 16.5621 9.44783 18.891 6.585 18.891Z" fill="#E2E0E0"/>
</svg>
