<svg width="61" height="61" viewBox="0 0 61 61" fill="none" xmlns="http://www.w3.org/2000/svg">
<g id="4918929_comment_message_quotation_quote_icon 1">
<g id="Page-1">
<g id="Artboard-Copy">
<path id="quote2" fill-rule="evenodd" clip-rule="evenodd" d="M52.5264 35.706C52.2114 34.736 51.6651 33.8472 50.9051 33.0435C50.1089 32.2035 49.0626 31.5535 47.7651 31.0835C46.4664 30.6172 44.7989 30.381 42.7439 30.381H39.9551C40.2876 26.9485 41.5101 24.0272 43.6251 21.6122C45.7364 19.2047 48.6639 17.086 52.4064 15.2685L50.1364 11.751C45.2089 13.8497 40.9926 16.9197 37.4901 20.9747C33.9889 25.0335 32.2451 29.0547 32.2451 33.0435C32.2451 37.3285 33.2564 40.6897 35.2951 43.116C37.3339 45.5422 40.2539 46.751 44.0501 46.751C46.4589 46.751 48.5514 45.9472 50.3314 44.341C52.1089 42.7372 53.0001 40.8585 53.0001 38.716C53.0001 37.6822 52.8439 36.676 52.5264 35.706ZM27.0314 35.706C26.7139 34.736 26.1689 33.8472 25.4076 33.0435C24.6139 32.2035 23.5664 31.5535 22.2676 31.0835C20.9714 30.6172 19.3039 30.381 17.2476 30.381H14.4576C14.7914 26.9485 16.0126 24.0272 18.1264 21.6122C20.2389 19.2047 23.1689 17.086 26.9089 15.2685L24.6401 11.751C19.7114 13.8497 15.4976 16.9197 11.9939 20.9747C8.49263 25.0335 6.75012 29.0547 6.75012 33.0435C6.75012 37.3285 7.75887 40.6897 9.79887 43.116C11.8351 45.5422 14.7552 46.751 18.5539 46.751C20.9614 46.751 23.0564 45.9472 24.8364 44.341C26.6139 42.7372 27.5039 40.8585 27.5039 38.716C27.5039 37.6822 27.3451 36.676 27.0314 35.706Z" fill="#4169E1"/>
</g>
</g>
</g>
</svg>
