<svg width="52" height="51" viewBox="0 0 52 51" fill="none" xmlns="http://www.w3.org/2000/svg">
<path d="M42.9993 25.5684C42.903 16.1689 35.2255 8.64716 25.826 8.74345C16.4265 8.83975 8.90476 16.5172 9.00105 25.9167C9.09735 35.3162 16.7748 42.838 26.1743 42.7417C35.5738 42.6454 43.0956 34.9679 42.9993 25.5684ZM11.0009 25.8962C10.9159 17.5967 17.5469 10.8284 25.8465 10.7433C34.1461 10.6583 40.9143 17.2893 40.9994 25.5889C41.0844 33.8885 34.4534 40.6567 26.1538 40.7418C17.8543 40.8268 11.086 34.1958 11.0009 25.8962Z" fill="#545454"/>
<path d="M27.785 34.0247L19.4004 25.8102L27.615 17.4256L26.2007 16.04L16.6006 25.8389L26.3994 35.439L27.785 34.0247Z" fill="#545454"/>
<path d="M17.9902 24.8246L18.0107 26.8245L35.0098 26.6503L34.9893 24.6504L17.9902 24.8246Z" fill="#545454"/>
</svg>
