<svg width="41" height="40" viewBox="0 0 41 40" fill="none" xmlns="http://www.w3.org/2000/svg">
<g id="value-proposition 1" clip-path="url(#clip0_174_2172)">
<g id="Group">
<path id="Vector" d="M30.1875 0.101562C30.1172 0.15625 29.9297 0.414062 29.7734 0.671875C29.4453 1.21875 29.0547 1.60156 28.5 1.92188C28.0234 2.19531 27.9297 2.32031 27.9219 2.63281C27.9219 2.90625 27.9219 2.89844 28.7734 3.46094C29.1406 3.70312 29.375 3.92969 29.6172 4.29688C29.8047 4.57812 30.0078 4.88281 30.0703 4.97656C30.1641 5.10938 30.2734 5.15625 30.5 5.15625C30.7266 5.15625 30.8359 5.10938 30.9297 4.97656C30.9922 4.88281 31.1953 4.57812 31.3828 4.29688C31.6328 3.92969 31.8516 3.71094 32.2266 3.46875C32.9219 3.01562 33.0781 2.85938 33.0781 2.59375C33.0781 2.34375 32.9219 2.17969 32.3203 1.80469C31.8437 1.50781 31.4609 1.10938 31.1562 0.578125C30.8906 0.117188 30.7578 0.0078125 30.5 0.0078125C30.3906 0.0078125 30.25 0.046875 30.1875 0.101562ZM30.9375 2.19531L31.3359 2.59375L30.9219 3.00781L30.5 3.42969L30.0859 3.00781L29.6641 2.59375L30.0625 2.19531C30.2812 1.97656 30.4766 1.79688 30.5 1.79688C30.5156 1.79688 30.7187 1.97656 30.9375 2.19531Z" fill="#4169E1"/>
<path id="Vector_2" d="M13.3281 4.89078C13.0859 5.05484 10.2656 8.27359 10.1641 8.49234C9.98438 8.89859 10.4688 9.39078 10.8984 9.23453C11 9.19547 11.6484 8.50797 12.3359 7.71109C13.0234 6.91422 13.6016 6.25797 13.625 6.25797C13.6484 6.25797 14.8828 7.82828 16.375 9.75015L19.0938 13.2423L16.2031 13.2658C14.6094 13.2736 12.0078 13.2736 10.4141 13.2658L7.51562 13.2423L8.5 12.1173C9.32812 11.1642 9.48438 10.9533 9.48438 10.7345C9.48438 10.4455 9.19531 10.1564 8.89062 10.1564C8.63281 10.1564 8.59375 10.2033 6.49219 12.633C5.75781 13.4845 5.73438 13.5236 5.73438 13.8986C5.73438 14.1955 5.78125 14.3361 5.95312 14.5392C6.07031 14.6877 7.75781 16.6642 9.71094 18.9298C12.0547 21.6564 13.3203 23.0627 13.4453 23.0939C13.8516 23.1955 14.25 22.8048 14.1484 22.4064C14.1172 22.3048 12.625 20.508 10.8125 18.4142C9.00781 16.3127 7.53125 14.5627 7.53125 14.5236C7.53125 14.4767 9.89844 14.4611 13.7266 14.4689L19.9141 14.4923L19.9375 21.7033C19.9453 26.1798 19.9297 28.9064 19.8828 28.8908C19.8438 28.883 18.9922 27.9142 18 26.758C15.6641 24.0392 15.6875 24.0627 15.3672 24.0627C15.0469 24.0627 14.7969 24.297 14.7969 24.6095C14.7969 24.797 15.1172 25.2111 16.5312 26.8517C17.4844 27.9611 18.6328 29.297 19.0859 29.8205C19.9609 30.8439 20.1875 31.0002 20.7031 30.9064C20.8516 30.8752 21.0781 30.7423 21.2266 30.5939C21.3594 30.4533 23.1094 28.4377 25.1094 26.1173L28.7344 21.8908L28.8828 22.133C29.0859 22.4689 29.2344 22.5783 29.5234 22.5783C29.8047 22.5783 29.8906 22.4923 30.2891 21.8283C30.6016 21.3048 31.1875 20.7189 31.6016 20.508C32.1562 20.2267 32.375 20.008 32.375 19.7345C32.375 19.422 32.2812 19.297 31.8125 19.0314C31.6016 18.9142 31.4375 18.8048 31.4375 18.7814C31.4375 18.758 32.2344 17.8205 33.2031 16.6955C34.1797 15.5705 35.0391 14.5392 35.1172 14.4142C35.2031 14.2814 35.2656 14.0314 35.2656 13.8439C35.2656 13.5236 35.1719 13.4064 31.7578 9.31265C29.8281 7.00015 28.1562 5.0314 28.0391 4.93765L27.8203 4.76578H20.6641C14.2266 4.76578 13.4844 4.7814 13.3281 4.89078ZM26.3594 5.9689C26.3594 6.01578 20.5703 13.0861 20.5156 13.1017C20.4844 13.1095 20.1016 12.6564 19.6719 12.0861C19.2344 11.5158 17.9766 9.9064 16.875 8.49234L14.8828 5.93765H20.6172C23.7734 5.93765 26.3594 5.95328 26.3594 5.9689ZM30.6094 9.75797L33.5469 13.2736L31.1562 13.297L28.7656 13.3205L28.5781 13.5392C28.3516 13.8048 28.3438 13.9767 28.5547 14.2502L28.7109 14.4533H31.1016C33.1094 14.4533 33.4766 14.4689 33.4453 14.5627C33.3984 14.672 30.5859 17.9689 30.5312 17.9689C30.5156 17.9689 30.3672 17.7267 30.1875 17.422C29.6875 16.5627 29.3203 16.5861 28.7656 17.5002C28.375 18.1408 27.9375 18.5783 27.2969 18.9689C26.3906 19.5158 26.3672 19.9064 27.2031 20.3986C28.1562 20.9455 28.4297 20.4611 24.7812 24.6877C23.0234 26.7267 21.4844 28.5236 21.3594 28.672L21.1328 28.9455L21.125 21.6955V14.4533H23.8203C26.4141 14.4533 26.5234 14.4455 26.6719 14.297C26.8672 14.1017 26.875 13.7423 26.6797 13.508L26.5312 13.3205L24.25 13.297C23 13.2814 21.9844 13.2423 22 13.2111C22.0234 13.1564 27.6328 6.25797 27.6641 6.25015C27.6719 6.25015 28.9922 7.82828 30.6094 9.75797ZM30.0469 19.1642L30.6172 19.7345L30.3047 19.9923C30.1328 20.133 29.8906 20.383 29.7578 20.5392L29.5312 20.8283L28.9688 20.2658L28.4062 19.6955L28.9297 19.1564C29.2109 18.8595 29.4531 18.6095 29.4609 18.6017C29.4688 18.6017 29.7344 18.8517 30.0469 19.1642Z" fill="#4169E1"/>
<path id="Vector_3" d="M4.46875 5.00012C4.39844 5.04699 4.21094 5.3048 4.05469 5.58605C3.67188 6.27355 2.96875 7.01574 2.375 7.34387C1.58594 7.79699 1.51562 7.8673 1.51562 8.20324C1.51562 8.53918 1.58594 8.60949 2.375 9.06262C2.96875 9.39074 3.65625 10.1173 4.0625 10.8282C4.39062 11.3986 4.60938 11.547 4.96875 11.4611C5.10938 11.422 5.26562 11.2267 5.53906 10.7657C6 9.96887 6.61719 9.35949 7.38281 8.93762C8.33594 8.40637 8.33594 8.00012 7.38281 7.46887C6.63281 7.0548 6.00781 6.44543 5.57812 5.70324C5.39062 5.38293 5.1875 5.07043 5.11719 5.01574C4.97656 4.90637 4.65625 4.89855 4.46875 5.00012ZM5.14844 7.13293C5.32031 7.35168 5.64844 7.6798 5.86719 7.85168C6.08594 8.02355 6.27344 8.1798 6.27344 8.20324C6.27344 8.22668 6.08594 8.38293 5.86719 8.5548C5.64844 8.72668 5.32031 9.0548 5.14844 9.27355C4.97656 9.4923 4.82031 9.6798 4.79688 9.6798C4.77344 9.68762 4.61719 9.50793 4.45312 9.28918C4.28125 9.07824 3.96094 8.75012 3.72656 8.57043C3.5 8.39074 3.3125 8.22668 3.3125 8.20324C3.3125 8.1798 3.49219 8.02355 3.71094 7.85949C3.92188 7.68762 4.25 7.3673 4.42969 7.13293C4.60938 6.90637 4.77344 6.71887 4.79688 6.72668C4.82031 6.72668 4.97656 6.91418 5.14844 7.13293Z" fill="#4169E1"/>
<path id="Vector_4" d="M1.47656 13.6875C1.07812 13.836 0.835934 14.0469 0.664059 14.4063C0.492184 14.7422 0.492184 14.7813 0.515621 20.5547L0.539059 26.3672L0.773434 26.8516C0.929684 27.1719 2.125 28.7422 4.29687 31.4688C6.10937 33.7344 7.65625 35.7188 7.73437 35.8672C7.86718 36.1016 7.88281 36.3516 7.90625 37.9063L7.9375 39.6875L8.13281 39.8438C8.46093 40.1016 8.79687 40.0391 8.97656 39.6797C9.07031 39.5078 9.09375 39.125 9.09375 37.9375C9.09375 36.375 9.02343 35.7969 8.78125 35.3125C8.70312 35.1563 7.14062 33.1563 5.3125 30.8594C3.48437 28.5625 1.92187 26.5547 1.85156 26.4063C1.71875 26.1563 1.71093 25.7188 1.71093 20.5157C1.71093 14.2344 1.67187 14.6719 2.26562 14.836C2.73437 14.961 3.09375 15.2344 3.3125 15.625L3.50781 15.9766L3.54687 20.4297L3.58593 24.8828L3.79687 25.2344C4.07812 25.7032 8.67968 30.7032 8.84375 30.7188C9.3125 30.7578 9.5625 30.5703 9.5625 30.1641C9.55468 29.9063 9.375 29.6875 7.28906 27.4219C6.03906 26.0703 4.94531 24.8516 4.86718 24.7266C4.54687 24.2188 4.79687 23.5078 5.36718 23.2891C5.96093 23.0703 5.9375 23.0469 9.77343 26.8516C14.5 31.5547 14.1094 30.7344 14.1562 35.9922L14.1797 39.6875L14.3828 39.8438C14.75 40.1328 15.1953 39.9688 15.3047 39.5078C15.3359 39.4063 15.3437 37.7266 15.3203 35.7735C15.2891 31.8985 15.2734 31.7891 14.7969 30.7344C14.6719 30.4532 14.4062 30 14.2187 29.7422C14.0312 29.4766 12.3359 27.7266 10.4453 25.8516C6.875 22.2969 6.73437 22.1797 5.96875 22.0703C5.64843 22.0235 5.1875 22.086 4.85937 22.2266C4.73437 22.2735 4.72656 22.0469 4.70312 19.0078L4.67968 15.7422L4.42187 15.2188C3.97656 14.3047 3.13281 13.7266 2.11718 13.6328C1.89843 13.6172 1.60937 13.6328 1.47656 13.6875Z" fill="#4169E1"/>
<path id="Vector_5" d="M38.3906 13.7187C37.5312 13.9531 36.9062 14.4843 36.5234 15.3046L36.3203 15.7421L36.2969 19.0078C36.2734 22.0468 36.2656 22.2734 36.1406 22.2265C35.5625 21.9843 34.9219 22.0078 34.3281 22.2812C33.8906 22.4843 27.2187 29.0859 26.7344 29.7968C26.3437 30.3593 26.0078 31.0937 25.8359 31.7421C25.7266 32.1484 25.7031 32.7968 25.6797 35.7734C25.6562 37.7265 25.6641 39.4062 25.6953 39.5078C25.8047 39.9687 26.25 40.1328 26.6172 39.8437L26.8203 39.6875L26.8437 35.9921C26.8828 31.9062 26.8672 32.0234 27.4297 30.8984C27.6797 30.3984 28.0234 30.0312 31.2266 26.8515C35.0625 23.0468 35.0391 23.0703 35.6328 23.289C36.2031 23.5078 36.4531 24.2187 36.1328 24.7265C36.0547 24.8515 34.9609 26.0703 33.7109 27.4218C31.625 29.6875 31.4453 29.9062 31.4375 30.164C31.4375 30.5703 31.6875 30.7578 32.1562 30.7187C32.3203 30.7031 36.9219 25.7031 37.2031 25.2343L37.4141 24.8828L37.4531 20.4296L37.4922 15.9765L37.6719 15.6406C37.875 15.2656 38.3906 14.8906 38.8281 14.8046C39.3672 14.7109 39.3359 14.3437 39.3125 20.539C39.2891 25.7031 39.2812 26.1562 39.1484 26.4062C39.0781 26.5546 38.2734 27.6093 37.3672 28.75C36.4609 29.8906 35.6875 30.9062 35.6484 31C35.5 31.3984 35.9297 31.8046 36.3672 31.6953C36.625 31.6328 39.9609 27.4375 40.25 26.8203L40.4609 26.3671V20.4609V14.5625L40.25 14.2421C39.8906 13.6953 39.1875 13.4921 38.3906 13.7187Z" fill="#4169E1"/>
<path id="Vector_6" d="M34.1094 32.8672C33.8984 33.0547 32.4766 34.8672 32.2812 35.211C31.9844 35.7032 31.9062 36.2735 31.9062 37.9141C31.9062 39.1172 31.9297 39.5078 32.0234 39.6797C32.2031 40.0391 32.5391 40.1016 32.8672 39.8438L33.0625 39.6875L33.0937 37.9063C33.125 35.8282 33.0469 36.0469 34.1562 34.6563C34.5625 34.1407 34.9531 33.625 35.0078 33.5078C35.2734 32.9766 34.5625 32.4766 34.1094 32.8672Z" fill="#4169E1"/>
</g>
</g>
<defs>
<clipPath id="clip0_174_2172">
<rect width="40" height="40" fill="white" transform="translate(0.5)"/>
</clipPath>
</defs>
</svg>
