<svg width="25" height="25" viewBox="0 0 25 25" fill="none" xmlns="http://www.w3.org/2000/svg">
<g id="svg">
<g id="mail">
<path id="Vector" d="M22.21 5.22017H2.70996H2.64996C2.5977 5.21307 2.54472 5.21307 2.49246 5.22017L2.36496 5.27267C2.32416 5.29232 2.2863 5.31756 2.25246 5.34767C2.20979 5.37668 2.17185 5.4121 2.13996 5.45267L2.09496 5.49767C2.09214 5.52008 2.09214 5.54276 2.09496 5.56517C2.07046 5.61065 2.05037 5.65836 2.03496 5.70767C2.00349 5.76738 1.97835 5.83022 1.95996 5.89517V5.97017V19.4702C1.95996 19.6691 2.03898 19.8598 2.17963 20.0005C2.32028 20.1411 2.51105 20.2202 2.70996 20.2202H22.21C22.4089 20.2202 22.5996 20.1411 22.7403 20.0005C22.8809 19.8598 22.96 19.6691 22.96 19.4702V5.97017C22.96 5.77126 22.8809 5.58049 22.7403 5.43984C22.5996 5.29919 22.4089 5.22017 22.21 5.22017ZM12.46 11.8277L5.10996 6.72017H20.7775L12.46 11.8277ZM3.45996 18.7202V7.40267L12.0325 13.3352C12.0759 13.3606 12.121 13.3832 12.1675 13.4027H12.2275C12.3012 13.4366 12.3795 13.4593 12.46 13.4702C12.5666 13.4673 12.6715 13.4418 12.7675 13.3952H12.82L21.46 8.06267V18.7202H3.45996Z" fill="#4169E1"/>
</g>
</g>
</svg>
