<svg width="21" height="21" viewBox="0 0 21 21" fill="none" xmlns="http://www.w3.org/2000/svg">
<path id="Vector" d="M0.459961 3.71973L7.45996 0.719727L13.46 3.71973L19.763 1.01873C19.839 0.98611 19.922 0.972896 20.0045 0.980269C20.0869 0.987642 20.1663 1.01537 20.2354 1.06097C20.3045 1.10657 20.3612 1.16861 20.4004 1.24152C20.4396 1.31444 20.46 1.39594 20.46 1.47873V17.7197L13.46 20.7197L7.45996 17.7197L1.15696 20.4207C1.08087 20.4533 0.99788 20.4666 0.915427 20.4592C0.832973 20.4518 0.75364 20.4241 0.684548 20.3785C0.615456 20.3329 0.558767 20.2708 0.519568 20.1979C0.480369 20.125 0.459887 20.0435 0.459961 19.9607V3.71973ZM14.46 18.1147L18.46 16.4007V3.75273L14.46 5.46673V18.1147ZM12.46 17.9837V5.45573L8.45996 3.45573V15.9837L12.46 17.9837ZM6.45996 15.9727V3.32473L2.45996 5.03873V17.6867L6.45996 15.9727Z" fill="#4169E1"/>
</svg>
