<svg width="25" height="25" viewBox="0 0 25 25" fill="none" xmlns="http://www.w3.org/2000/svg">
<g id="SVG" clip-path="url(#clip0_59_4895)">
<path id="Vector" d="M9.82596 11.4017C10.7643 13.0502 12.1295 14.4154 13.778 15.3537L14.662 14.1157C14.8041 13.9167 15.0143 13.7766 15.2528 13.7221C15.4912 13.6675 15.7414 13.7023 15.956 13.8197C17.3703 14.5927 18.9322 15.0575 20.539 15.1837C20.7897 15.2036 21.0238 15.3173 21.1945 15.502C21.3652 15.6868 21.46 15.9292 21.46 16.1807V20.6427C21.46 20.8903 21.3682 21.1291 21.2023 21.3129C21.0364 21.4967 20.8083 21.6125 20.562 21.6377C20.032 21.6927 19.498 21.7197 18.96 21.7197C10.4 21.7197 3.45996 14.7797 3.45996 6.21973C3.45996 5.68173 3.48696 5.14773 3.54196 4.61773C3.56722 4.37142 3.68295 4.14325 3.86675 3.97736C4.05056 3.81147 4.28937 3.71967 4.53696 3.71973H8.99896C9.25052 3.7197 9.49286 3.81448 9.67764 3.98518C9.86243 4.15588 9.97609 4.38995 9.99596 4.64073C10.1222 6.24752 10.587 7.80941 11.36 9.22373C11.4774 9.43829 11.5122 9.68847 11.4576 9.92692C11.4031 10.1654 11.263 10.3756 11.064 10.5177L9.82596 11.4017ZM7.30396 10.7447L9.20396 9.38773C8.66474 8.22382 8.29531 6.98857 8.10696 5.71973H5.46996C5.46396 5.88573 5.46096 6.05273 5.46096 6.21973C5.45996 13.6757 11.504 19.7197 18.96 19.7197C19.127 19.7197 19.294 19.7167 19.46 19.7097V17.0727C18.1911 16.8844 16.9559 16.5149 15.792 15.9757L14.435 17.8757C13.8886 17.6634 13.358 17.4128 12.847 17.1257L12.789 17.0927C10.8275 15.9764 9.20324 14.3521 8.08696 12.3907L8.05396 12.3327C7.76687 11.8217 7.51624 11.2911 7.30396 10.7447Z" fill="#4169E1"/>
</g>
<defs>
<clipPath id="clip0_59_4895">
<rect width="24" height="24" fill="white" transform="translate(0.459961 0.719727)"/>
</clipPath>
</defs>
</svg>
