<svg width="41" height="41" viewBox="0 0 41 41" fill="none" xmlns="http://www.w3.org/2000/svg">
<path d="M13.625 5.4375C13.625 7.9375 13.3125 9.375 12.6875 9.875C11.25 11.0625 11.5625 11.75 13.5625 11.75C14.5625 11.75 15.5 12.125 15.75 12.6875C16 13.4375 17.3125 13.625 21.75 13.625H27.375V10.0625C27.375 7.6875 27.6875 6.1875 28.4375 5.375C29.375 4.3125 29.375 4.25 27.5625 4.25C26.1875 4.25 25.5625 3.875 25.3125 3C25 1.875 24.4375 1.75 19.3125 1.75H13.625V5.4375ZM24.25 6.75V10.5H19.1875C14.8125 10.5 14.1875 10.375 14.5 9.5C14.6875 8.9375 14.875 7.25 14.875 5.75V3H19.5625H24.25V6.75ZM26.5 5.875C26.3125 6.4375 26.125 8.125 26.125 9.625V12.375L21.3125 12.25L16.4375 12.125L20.8125 11.8125L25.1875 11.4375L25.375 8.125C25.5 6.375 25.875 4.875 26.25 4.875C26.5625 4.875 26.6875 5.3125 26.5 5.875Z" fill="#FBFBFB"/>
<path d="M16.125 5.5C16.125 5.8125 17.5625 6.125 19.25 6.125C21 6.125 22.375 5.8125 22.375 5.5C22.375 5.125 21 4.875 19.25 4.875C17.5625 4.875 16.125 5.125 16.125 5.5Z" fill="#FBFBFB"/>
<path d="M16.4375 8C16.1875 8.375 17.25 8.625 19.1875 8.625C20.9375 8.625 22.375 8.3125 22.375 8C22.375 7.625 21.125 7.375 19.625 7.375C18.0625 7.375 16.625 7.625 16.4375 8Z" fill="#FBFBFB"/>
<path d="M3.00001 5.3125C2.06251 6.5 1.81251 7.5 2.06251 8.625C2.56251 10.5625 3.50001 11.75 4.62501 11.75C5.81251 11.75 5.75001 12.75 4.56251 13.25C3.81251 13.5 3.62501 14.9375 3.62501 20.375C3.62501 24.8125 3.87501 27.375 4.37501 27.875C4.81251 28.3125 6.50001 28.625 8.12501 28.625H11.125V32.6875C11.125 35.9375 11.375 37 12.375 38C13.9375 39.5625 14.5625 39.5625 16.125 38C17.1875 36.9375 17.375 35.9375 17.375 31.25C17.375 24.1875 16.6875 23 12.3125 23H9.25001V18.6875C9.25001 15.0625 9.06251 14.1875 8.00001 13.4375C6.81251 12.625 6.81251 12.5625 8.62501 11.1875C10 10.25 10.5 9.3125 10.5 8C10.5 3.875 5.56251 2.125 3.00001 5.3125ZM8.50001 5.625C9.87501 7 9.37501 9.8125 7.62501 10.625C4.81251 11.9375 2.18751 9.3125 3.50001 6.5C4.31251 4.75 7.12501 4.25 8.50001 5.625ZM7.18751 14.125C7.62501 14.375 8.00001 16.5 8.12501 19.25L8.31251 23.9375L12.0625 24.25L15.8125 24.5625L16 30.5625C16.125 35.3125 16 36.75 15.1875 37.375C13.25 39 12.4375 37.6875 12.25 32.5625L12.0625 27.6875L8.62501 27.5C6.75001 27.375 5.00001 26.9375 4.75001 26.5625C3.93751 25.3125 4.18751 15.1875 5.00001 14.375C5.87501 13.5 6.18751 13.5 7.18751 14.125Z" fill="#FBFBFB"/>
<path d="M31.8125 4.81248C30.25 6.37498 30.125 8.43748 31.4375 10.3125C33.3125 13 38.125 12.0625 38.875 8.87498C39.875 4.99998 34.625 1.99998 31.8125 4.81248ZM37.625 6.87498C38.6875 9.99998 35 12.4375 32.75 10.125C31.5625 8.93748 31.4375 6.68748 32.5 5.62498C32.9375 5.18748 34.125 4.87498 35.1875 4.99998C36.5625 5.12498 37.1875 5.62498 37.625 6.87498Z" fill="#FBFBFB"/>
<path d="M33.0625 13.375C31.9375 14.1875 31.75 14.9375 31.75 18.6875V23H28.6875C24.3125 23 23.625 24.1875 23.625 31.25C23.625 35.9375 23.8125 36.9375 24.875 38C25.5625 38.6875 26.4375 39.25 26.75 39.25C27.125 39.25 27.9375 38.6875 28.625 38C29.625 37 29.875 35.9375 29.875 32.6875V28.625H32.9375C34.75 28.625 36.25 28.25 36.6875 27.75C37.1875 27.1875 37.375 24.5625 37.25 20.1875C37.0625 13.9375 36.9375 13.4375 35.75 12.9375C34.875 12.625 33.9375 12.8125 33.0625 13.375ZM36 14.375C36.8125 15.1875 37.0625 25.3125 36.25 26.5625C36 26.9375 34.25 27.375 32.375 27.5L28.9375 27.6875L28.625 32.6875C28.3125 37.25 28.1875 37.6875 26.9375 37.875C25.125 38.125 24.75 36.6875 25 29.875L25.1875 24.5625L28.9375 24.25L32.6875 23.9375L32.875 19.25C33.0625 14.0625 34.125 12.5 36 14.375Z" fill="#FBFBFB"/>
<path d="M12 17C11.8125 17.5 11.75 18.4375 11.875 19.0625C12.0625 20.0625 12.875 20.1875 20.5 20.1875H28.9375V18.3125V16.4375L20.625 16.25C13.8125 16.125 12.3125 16.25 12 17ZM28 18.3125C28 19.0625 26.75 19.25 20.5 19.25C14.25 19.25 13 19.0625 13 18.3125C13 17.5 14.25 17.375 20.5 17.375C26.75 17.375 28 17.5 28 18.3125Z" fill="#FBFBFB"/>
</svg>
