<svg width="41" height="41" viewBox="0 0 41 41" fill="none" xmlns="http://www.w3.org/2000/svg">
<path d="M14.25 5.56245C9.18752 7.87495 6.00002 11.9999 5.12502 17.3749C4.87502 18.8124 4.31252 20.3124 3.87502 20.6874C3.43752 21.1249 2.62502 21.8124 2.06252 22.2499C-0.749977 24.6249 2.93752 30.4999 7.31252 30.4999H9.43752L9.12502 23.4374C8.87502 17.4999 9.00002 16.1249 9.93752 14.1249C13.1875 7.74995 22 5.81245 27.8125 10.2499C31.4375 12.9999 32 14.8749 31.8125 23.1249C31.6875 29.4999 31.8125 30.4999 32.625 30.4999C34.125 30.4999 33.8125 31.6249 31.8125 33.6874C30.5625 34.8749 29.3125 35.4999 28.0625 35.4999C26.4375 35.4999 25.9375 35.1249 25.0625 33.1249C23.875 30.7499 22.25 30.0624 21.875 31.8124C21.5 33.7499 24.375 36.2499 27.4375 36.5624C29.8125 36.8124 30.5625 36.6249 32.1875 35.2499C33.25 34.3749 34.25 32.9999 34.5 32.2499C34.6875 31.4374 35.8125 30.1249 37.0625 29.3124C38.25 28.4999 39.4375 27.1874 39.625 26.3749C40.1875 24.1874 39.4375 21.8749 38 21.4374C37.1875 21.1874 36.5625 20.1249 36.125 18.4374C34.8125 13.3124 34.25 11.9999 32.375 9.74995C28.1875 4.68745 20.25 2.81245 14.25 5.56245ZM25.6875 6.31245C28.5625 7.56245 31.625 10.3124 32.9375 12.9374C34.375 15.8124 35.1875 19.2499 34.375 19.2499C34.0625 19.2499 33.5625 18.3124 33.375 17.1874C32.6875 13.6249 29.6875 9.56245 26.625 8.06245C22.4375 6.06245 17.1875 6.24995 13.5625 8.56245C10.3125 10.5624 8.12502 13.7499 7.56252 17.0624C7.25002 19.0624 6.12502 20.2499 6.12502 18.5624C6.12502 14.5624 10.375 8.56245 14.5 6.68745C17.5 5.31245 22.8125 5.12495 25.6875 6.31245ZM8.00002 24.8749C8.00002 28.8124 7.87502 29.2499 6.75002 29.2499C5.62502 29.2499 5.50002 28.8124 5.50002 24.8749C5.50002 20.9374 5.62502 20.4999 6.75002 20.4999C7.87502 20.4999 8.00002 20.9374 8.00002 24.8749ZM35.5 24.8749C35.5 28.8124 35.375 29.2499 34.25 29.2499C33.125 29.2499 33 28.8124 33 24.8749C33 20.9374 33.125 20.4999 34.25 20.4999C35.375 20.4999 35.5 20.9374 35.5 24.8749ZM4.25002 24.9374C4.25002 26.6874 4.00002 27.3749 3.50002 27.2499C2.00002 26.7499 2.12502 22.3749 3.62502 22.3749C3.93752 22.3749 4.25002 23.4999 4.25002 24.9374ZM38.3125 24.8749C38.3125 25.9999 37.9375 27.0624 37.5625 27.1874C37 27.3749 36.75 26.6874 36.75 24.8749C36.75 23.0624 37 22.3749 37.5625 22.4999C37.9375 22.6874 38.3125 23.7499 38.3125 24.8749Z" fill="white"/>
<path d="M14.375 15.125C12.25 17.0625 12.0625 17.5625 12.0625 20.5C12.0625 23.4375 12.25 23.9375 14.375 25.875C16 27.375 17.3125 28 18.6875 28C20.6875 28 28.6875 26.6875 29.1875 26.3125C29.375 26.1875 28.9375 25.6875 28.25 25.25C27.3125 24.5625 27.0625 23.5625 27.0625 20.8125C27.0625 17.5625 26.875 17.125 24.75 15.125C22.8125 13.375 21.9375 13 19.5625 13C17.1875 13 16.3125 13.375 14.375 15.125ZM23.9375 15.75C25.875 17.6875 26.5 20.25 25.625 22.625C25.0625 24 25.0625 24.625 25.5625 24.9375C26.6875 25.625 25.25 26.125 20.875 26.5625C17.125 26.875 16.75 26.8125 15.25 25.3125C12.375 22.4375 12.375 18.5625 15.1875 15.75C17.3125 13.625 21.8125 13.625 23.9375 15.75Z" fill="white"/>
<path d="M16.4375 18C16.1875 18.375 17.375 18.625 19.5625 18.625C21.75 18.625 22.9375 18.375 22.6875 18C22.5 17.625 21.0625 17.375 19.5625 17.375C18.0625 17.375 16.625 17.625 16.4375 18Z" fill="white"/>
<path d="M16.75 20.5C16.75 20.8125 18.1875 21.125 19.875 21.125C21.625 21.125 23 20.8125 23 20.5C23 20.125 21.625 19.875 19.875 19.875C18.1875 19.875 16.75 20.125 16.75 20.5Z" fill="white"/>
<path d="M16.4375 23C16.625 23.3125 18.0625 23.625 19.5625 23.625C21.0625 23.625 22.5 23.3125 22.6875 23C22.9375 22.625 21.75 22.375 19.5625 22.375C17.375 22.375 16.1875 22.625 16.4375 23Z" fill="white"/>
</svg>
