<svg width="41" height="41" viewBox="0 0 41 41" fill="none" xmlns="http://www.w3.org/2000/svg">
<g clip-path="url(#clip0_35_255)">
<path d="M25.625 2.37497L24.125 3.62497L26.0625 5.24997C27.125 6.12497 28 7.37497 28 8.06247C28 9.49997 28.125 9.49997 24.8125 7.99997C17.6875 4.74997 9.31247 8.18747 6.12497 15.625C2.68747 23.6875 7.24997 32.5625 16.0625 34.875C24.25 37.0625 32.5 31 33.4375 22.1875C33.75 19.375 33.5 18.125 32.1875 15.3125C30.4375 11.4375 30.75 9.43747 32.875 11.3125C33.6875 12.0625 34 12.9375 33.75 14C33.5625 15.1875 33.75 15.625 34.75 15.9375C35.5 16.125 36.25 16.8125 36.4375 17.4375C36.6875 18.0625 37.125 18.625 37.4375 18.625C38.3125 18.625 38.125 17.5625 37.0625 16.5C36.3125 15.75 36.1875 15.25 36.75 14.25C37.125 13.5625 37.625 13 37.875 13C38.125 13 38.875 12.5625 39.5 12.0625C40.4375 11.375 40.5625 11 39.9375 10.25C39.5625 9.74997 38.625 9.49997 38 9.68747C36.75 9.99997 34.875 8.93747 34.875 7.93747C34.875 7.62497 36 6.74997 37.375 5.99997C40.1875 4.37497 40.3125 4.12497 38.875 2.99997C38.125 2.31247 37.375 2.31247 34.75 3.18747C31.5625 4.18747 31.5625 4.18747 29.75 2.68747C27.5625 0.812466 27.5 0.812466 25.625 2.37497ZM29.3125 3.99997L31 5.62497L34.25 4.56247C38.25 3.24997 38.8125 3.62497 35.6875 5.56247C34.375 6.31247 33.1875 7.06247 33.0625 7.12497C32.5 7.56247 35.9375 11.0625 37.0625 11.125C38.1875 11.1875 38.1875 11.25 37.3125 11.9375C36.8125 12.375 36 13.25 35.5625 13.9375C34.8125 15.1875 34.8125 15.125 35.0625 13.8125C35.25 12.875 34.75 11.875 33.25 10.4375L31.1875 8.43747L29.8125 11.3125C28.125 14.8125 27.0625 14.625 28.375 11C29.5625 7.62497 29.5 6.56247 28 5.18747C26.8125 4.12497 26.3125 2.37497 27.1875 2.37497C27.4375 2.37497 28.375 3.12497 29.3125 3.99997ZM21.0625 9.37497C21.875 11.5625 21.3125 12.625 17.3125 16.4375C15.3125 18.375 13.625 20.5625 13.625 21.1875C13.625 21.9375 14.5 22.9375 15.8125 23.6875C17 24.4375 18 25.125 18 25.25C18 25.375 17.0625 25.5 15.9375 25.5C14.5 25.5 12.8125 24.75 10.5625 23C8.68747 21.6875 6.93747 20.4375 6.62497 20.375C5.49997 20 7.31247 14.9375 9.43747 12.5625C13.125 8.37497 20 6.49997 21.0625 9.37497ZM25.5 9.56247C27.125 10.4375 27.25 10.6875 26.6875 12.125C26.3125 13.3125 26.3125 14.0625 26.8125 14.625C27.8125 15.8125 29.0625 15.6875 29.5625 14.375C29.9375 13.4375 30.0625 13.5 30.8125 14.875C32.0625 17.0625 31.9375 18.1875 30.5 19.4375C29.8125 20 29.25 21.0625 29.25 21.75C29.25 22.4375 27.6875 24.6875 25.8125 26.75C23.625 29.125 22.375 31.0625 22.375 32C22.375 36.0625 12.6875 33.9375 9.06247 29.125C7.43747 26.9375 5.74997 22.5 6.31247 21.9375C6.49997 21.75 7.99997 22.625 9.62497 23.875C12.875 26.375 14.4375 26.9375 17.125 26.625C19.75 26.3125 19.75 24.6875 17.0625 23.125C15.875 22.375 14.875 21.4375 14.875 21C14.875 20.625 16.375 18.8125 18.25 17.125C22.0625 13.5 23.25 11.625 22.6875 9.87497C22.1875 8.37497 23.0625 8.31247 25.5 9.56247ZM32.375 21.25C32.375 24.4375 30.9375 27.625 28.3125 30.25C26.75 31.75 25.125 33 24.5625 33C22.8125 33 23.625 30.75 26.375 28.0625C28.9375 25.5625 29.625 24.375 30.75 20.9375C31.25 19.375 32.375 19.625 32.375 21.25Z" fill="white"/>
<path d="M15.5 3C15.5 3.3125 16.0625 3.625 16.75 3.625C17.4375 3.625 18 3.3125 18 3C18 2.625 17.4375 2.375 16.75 2.375C16.0625 2.375 15.5 2.625 15.5 3Z" fill="white"/>
<path d="M19.875 3C19.875 3.3125 20.4375 3.625 21.125 3.625C21.8125 3.625 22.375 3.3125 22.375 3C22.375 2.625 21.8125 2.375 21.125 2.375C20.4375 2.375 19.875 2.625 19.875 3Z" fill="white"/>
<path d="M11.125 4.25C11.125 4.5625 11.5 4.875 12 4.875C12.5 4.875 13.125 4.5625 13.3125 4.25C13.5 3.875 13.125 3.625 12.4375 3.625C11.6875 3.625 11.125 3.875 11.125 4.25Z" fill="white"/>
<path d="M7.68751 6.18747C7.43751 6.56247 7.37501 6.99997 7.56251 7.18747C8.00001 7.62497 9.25001 6.81247 9.25001 6.06247C9.25001 5.31247 8.18751 5.31247 7.68751 6.18747Z" fill="white"/>
<path d="M4.6875 9.06253C4.4375 9.25003 4.25 9.87503 4.25 10.375C4.25 11.125 4.4375 11.125 5.1875 10.5C5.6875 10.0625 6.125 9.50003 6.125 9.18753C6.125 8.50003 5.25 8.43753 4.6875 9.06253Z" fill="white"/>
<path d="M2.12499 13.375C1.56249 14.75 2.31249 15.375 2.99999 14.25C3.74999 13.0625 3.74999 12.375 3.06249 12.375C2.74999 12.375 2.31249 12.8125 2.12499 13.375Z" fill="white"/>
<path d="M0.937518 17.1875C0.312518 17.75 0.437518 19.25 1.06252 19.25C1.37502 19.25 1.75002 18.6875 1.93752 18C2.25002 16.75 1.75002 16.375 0.937518 17.1875Z" fill="white"/>
<path d="M36.75 21.75C36.75 22.4375 37.0625 23 37.375 23C37.75 23 38 22.4375 38 21.75C38 21.0625 37.75 20.5 37.375 20.5C37.0625 20.5 36.75 21.0625 36.75 21.75Z" fill="white"/>
<path d="M0.5 22.375C0.5 23.0625 0.8125 23.625 1.125 23.625C1.5 23.625 1.75 23.0625 1.75 22.375C1.75 21.6875 1.5 21.125 1.125 21.125C0.8125 21.125 0.5 21.6875 0.5 22.375Z" fill="white"/>
<path d="M36.4375 25.6875C36.1875 26.3125 36.125 27 36.375 27.1875C37 27.8125 37.5 26.9375 37.1875 25.6875C36.9375 24.625 36.9375 24.625 36.4375 25.6875Z" fill="white"/>
<path d="M1.125 25.9375C1.125 26.8125 2.3125 28.3125 2.6875 27.9375C3.1875 27.4375 2.375 25.5 1.6875 25.5C1.375 25.5 1.125 25.6875 1.125 25.9375Z" fill="white"/>
<path d="M34.3125 30.125C33.8125 30.6875 33.625 31.3125 33.875 31.5625C34.4375 32.125 35.6875 30.75 35.375 29.875C35.25 29.375 34.875 29.4375 34.3125 30.125Z" fill="white"/>
<path d="M3 30.375C3 30.6875 3.4375 31.375 4 31.8125C4.875 32.5625 5 32.5 4.8125 31.5C4.5625 30.25 3 29.3125 3 30.375Z" fill="white"/>
<path d="M31.4375 33.6875C31.1875 34.0625 31.125 34.5 31.3125 34.6875C31.75 35.125 33 34.3125 33 33.5625C33 32.8125 31.9375 32.8125 31.4375 33.6875Z" fill="white"/>
<path d="M6.25 34.3125C6.375 34.75 6.875 35.25 7.3125 35.375C7.8125 35.5625 8.0625 35.3125 7.875 34.8125C7.75 34.375 7.25 33.875 6.8125 33.75C6.3125 33.5625 6.0625 33.8125 6.25 34.3125Z" fill="white"/>
<path d="M28.0625 36.125C27.625 36.375 27.3125 36.9375 27.4375 37.3125C27.625 37.8125 28.0625 37.8125 28.875 37.1875C30.1875 36.25 29.4375 35.25 28.0625 36.125Z" fill="white"/>
<path d="M10 36.8125C10.125 37.25 10.625 37.75 11.0625 37.875C11.5625 38.0625 11.8125 37.8125 11.625 37.3125C11.5 36.875 11 36.375 10.5625 36.25C10.0625 36.0625 9.8125 36.3125 10 36.8125Z" fill="white"/>
<path d="M13.9375 38.625C14.125 38.9375 14.875 39.25 15.5625 39.25C16.25 39.25 16.625 38.9375 16.4375 38.625C16.25 38.25 15.5 38 14.8125 38C14.125 38 13.75 38.25 13.9375 38.625Z" fill="white"/>
<path d="M23 38.625C23 39.4375 24.6875 39.4375 25.1875 38.625C25.375 38.25 25 38 24.3125 38C23.5625 38 23 38.25 23 38.625Z" fill="white"/>
<path d="M18.3125 39.25C18.8125 40.0625 20.3125 40.0625 20.8125 39.25C21.0625 38.875 20.5 38.625 19.5625 38.625C18.625 38.625 18.0625 38.875 18.3125 39.25Z" fill="white"/>
</g>
<defs>
<clipPath id="clip0_35_255">
<rect width="40" height="40" fill="white" transform="translate(0.5 0.5)"/>
</clipPath>
</defs>
</svg>
