<svg width="41" height="41" viewBox="0 0 41 41" fill="none" xmlns="http://www.w3.org/2000/svg">
<g clip-path="url(#clip0_36_454)">
<path d="M10.9375 2.75006C10.25 3.43756 10.4375 9.87506 11.125 9.87506C11.5 9.87506 11.75 8.43756 11.75 6.75006V3.62506H25.5H39.25V12.3751V21.1251H35.9375C32.5 21.1251 31.125 21.8751 31.125 23.7501C31.125 24.6251 30.625 24.8751 28.625 24.8751C26.625 24.8751 26.125 24.6251 26.125 23.7501C26.125 23.1251 25.8125 22.3126 25.4375 21.9376C24.9375 21.4376 25.0625 20.2501 26 17.4376C26.6875 15.3751 27.0625 13.5001 26.75 13.3126C26.4375 13.1251 25.625 14.8126 24.875 17.0626C24.125 19.3126 23.1875 21.1251 22.75 21.1251C22.3125 21.1251 21.3125 21.8126 20.5 22.6876C19.125 24.1251 18.625 24.2501 12.875 24.2501C6.43752 24.2501 3.62502 25.0626 2.43752 27.2501C1.62502 28.8126 0.312522 37.1876 0.812522 38.0001C1.37502 38.9376 14.4375 38.8126 15.375 37.8751C15.8125 37.4376 16.125 35.6251 16.125 33.8126V30.5001H18.5C20.3125 30.5001 21.5 30.0001 23.4375 28.3751L25.9375 26.1876H32.6875C36.4375 26.1876 39.6875 25.9376 40 25.6251C40.3125 25.3126 40.4375 20.0626 40.375 13.8751L40.1875 2.68756L25.75 2.50006C17.8125 2.43756 11.1875 2.56256 10.9375 2.75006ZM23.875 22.7501C26.9375 23.9376 22.6875 28.6876 18.125 29.2501L15.1875 29.5626L15 33.5001C14.8125 37.0626 14.6875 37.3751 13.375 37.3751C12.25 37.3751 11.8125 36.9376 11.5625 35.5001C11.1875 33.8751 10.875 33.6251 9.00002 33.6251C7.18752 33.6251 6.93752 33.4376 7.18752 32.3751C7.37502 31.6876 7.18752 31.1251 6.81252 31.1251C6.43752 31.1251 6.00002 31.8126 5.81252 32.6876C5.62502 33.5626 5.37502 34.9376 5.18752 35.8126C4.93752 37.0001 4.43752 37.3751 3.25002 37.3751C1.75002 37.3751 1.68752 37.3126 2.12502 34.4376C2.81252 29.5626 3.81252 27.1251 5.50002 26.3126C6.43752 25.8126 9.56252 25.5001 13.375 25.5001C19.25 25.5001 19.75 25.3751 21.125 23.9376C22.8125 22.1876 22.5625 22.2501 23.875 22.7501ZM39.25 23.6251C39.25 24.7501 38.8125 24.8751 35.8125 24.8751C33.375 24.8751 32.375 24.6251 32.375 24.0626C32.375 22.6876 33.0625 22.3751 36.25 22.3751C38.8125 22.3751 39.25 22.5626 39.25 23.6251ZM10.5 36.1251C10.5 37.1251 10.0625 37.3751 8.37502 37.3751C6.56252 37.3751 6.31252 37.1876 6.56252 36.1251C6.81252 35.2501 7.43752 34.8751 8.68752 34.8751C10.0625 34.8751 10.5 35.1876 10.5 36.1251Z" fill="white"/>
<path d="M14.875 7.375C14.875 7.75 16.875 8 19.5625 8C22.25 8 24.25 7.75 24.25 7.375C24.25 7 22.25 6.75 19.5625 6.75C16.875 6.75 14.875 7 14.875 7.375Z" fill="white"/>
<path d="M14.875 10.5C14.875 10.875 18.9375 11.125 25.8125 11.125C32.6875 11.125 36.75 10.875 36.75 10.5C36.75 10.125 32.6875 9.875 25.8125 9.875C18.9375 9.875 14.875 10.125 14.875 10.5Z" fill="white"/>
<path d="M6.5 13.0626C5.5625 14.1251 4.875 15.7501 4.875 16.7501C4.875 17.7501 5.5625 19.3751 6.5 20.4376C8.625 23.0001 12.25 23.1876 14.5625 20.8126C16.75 18.6876 16.75 14.8126 14.5625 12.6876C12.25 10.3126 8.625 10.5001 6.5 13.0626ZM13.625 13.6251C16.3125 16.3126 14.3125 21.1251 10.5 21.1251C8.125 21.1251 6.125 19.1251 6.125 16.7501C6.125 14.3751 8.125 12.3751 10.5 12.3751C11.5625 12.3751 12.9375 12.9376 13.625 13.6251Z" fill="white"/>
<path d="M18.625 13.625C18.625 13.9375 19.75 14.25 21.125 14.25C22.5 14.25 23.625 13.9375 23.625 13.625C23.625 13.25 22.5 13 21.125 13C19.75 13 18.625 13.25 18.625 13.625Z" fill="white"/>
<path d="M30.5 13.625C30.5 13.9375 31.9375 14.25 33.6875 14.25C35.625 14.25 36.6875 14 36.4375 13.625C36.25 13.25 34.8125 13 33.25 13C31.75 13 30.5 13.25 30.5 13.625Z" fill="white"/>
<path d="M28.625 18C28.625 18.375 30.3125 18.625 32.375 18.625C34.4375 18.625 36.125 18.375 36.125 18C36.125 17.625 34.4375 17.375 32.375 17.375C30.3125 17.375 28.625 17.625 28.625 18Z" fill="white"/>
<path d="M24.875 33.625C24.875 36.5625 25.125 38.625 25.5 38.625C25.875 38.625 26.125 36.5625 26.125 33.625C26.125 30.6875 25.875 28.625 25.5 28.625C25.125 28.625 24.875 30.6875 24.875 33.625Z" fill="white"/>
</g>
<defs>
<clipPath id="clip0_36_454">
<rect width="40" height="40" fill="white" transform="translate(0.5 0.5)"/>
</clipPath>
</defs>
</svg>
