<svg width="80" height="80" viewBox="0 0 80 80" fill="none" xmlns="http://www.w3.org/2000/svg">
<path d="M26.2497 9.875C26.2497 14.875 25.6247 17.75 24.3747 18.75C21.4997 21.125 22.1247 22.5 26.1247 22.5C28.1247 22.5 29.9997 23.25 30.4997 24.375C30.9997 25.875 33.6247 26.25 42.4997 26.25H53.7497V19.125C53.7497 14.375 54.3747 11.375 55.8747 9.75C57.7497 7.625 57.7497 7.5 54.1247 7.5C51.3747 7.5 50.1247 6.75 49.6247 5C48.9997 2.75 47.8747 2.5 37.6247 2.5H26.2497V9.875ZM47.4997 12.5V20H37.3747C28.6247 20 27.3747 19.75 27.9997 18C28.3747 16.875 28.7497 13.5 28.7497 10.5V5H38.1247H47.4997V12.5ZM51.9997 10.75C51.6247 11.875 51.2497 15.25 51.2497 18.25V23.75L41.6247 23.5L31.8747 23.25L40.6247 22.625L49.3747 21.875L49.7497 15.25C49.9997 11.75 50.7497 8.75 51.4997 8.75C52.1247 8.75 52.3747 9.625 51.9997 10.75Z" fill="#080D41"/>
<path d="M31.25 10C31.25 10.625 34.125 11.25 37.5 11.25C41 11.25 43.75 10.625 43.75 10C43.75 9.25 41 8.75 37.5 8.75C34.125 8.75 31.25 9.25 31.25 10Z" fill="#080D41"/>
<path d="M31.8749 15C31.3749 15.75 33.4999 16.25 37.3749 16.25C40.8749 16.25 43.7499 15.625 43.7499 15C43.7499 14.25 41.2499 13.75 38.2499 13.75C35.1249 13.75 32.2499 14.25 31.8749 15Z" fill="#080D41"/>
<path d="M4.99989 9.625C3.12489 12 2.62489 14 3.12489 16.25C4.12489 20.125 5.99989 22.5 8.24989 22.5C10.6249 22.5 10.4999 24.5 8.12489 25.5C6.62489 26 6.24989 28.875 6.24989 39.75C6.24989 48.625 6.74989 53.75 7.74989 54.75C8.62489 55.625 11.9999 56.25 15.2499 56.25H21.2499V64.375C21.2499 70.875 21.7499 73 23.7499 75C26.8749 78.125 28.1249 78.125 31.2499 75C33.3749 72.875 33.7499 70.875 33.7499 61.5C33.7499 47.375 32.3749 45 23.6249 45H17.4999V36.375C17.4999 29.125 17.1249 27.375 14.9999 25.875C12.6249 24.25 12.6249 24.125 16.2499 21.375C18.9999 19.5 19.9999 17.625 19.9999 15C19.9999 6.75 10.1249 3.25 4.99989 9.625ZM15.9999 10.25C18.7499 13 17.7499 18.625 14.2499 20.25C8.62489 22.875 3.37489 17.625 5.99989 12C7.62489 8.5 13.2499 7.5 15.9999 10.25ZM13.3749 27.25C14.2499 27.75 14.9999 32 15.2499 37.5L15.6249 46.875L23.1249 47.5L30.6249 48.125L30.9999 60.125C31.2499 69.625 30.9999 72.5 29.3749 73.75C25.4999 77 23.8749 74.375 23.4999 64.125L23.1249 54.375L16.2499 54C12.4999 53.75 8.99989 52.875 8.49989 52.125C6.87489 49.625 7.37489 29.375 8.99989 27.75C10.7499 26 11.3749 26 13.3749 27.25Z" fill="#080D41"/>
<path d="M62.6247 8.625C59.4997 11.75 59.2497 15.875 61.8747 19.625C65.6247 25 75.2497 23.125 76.7497 16.75C78.7497 9 68.2497 3 62.6247 8.625ZM74.2497 12.75C76.3747 19 68.9997 23.875 64.4997 19.25C62.1247 16.875 61.8747 12.375 63.9997 10.25C64.8747 9.375 67.2497 8.75 69.3747 9C72.1247 9.25 73.3747 10.25 74.2497 12.75Z" fill="#080D41"/>
<path d="M65.125 25.75C62.875 27.375 62.5 28.875 62.5 36.375V45H56.375C47.625 45 46.25 47.375 46.25 61.5C46.25 70.875 46.625 72.875 48.75 75C50.125 76.375 51.875 77.5 52.5 77.5C53.25 77.5 54.875 76.375 56.25 75C58.25 73 58.75 70.875 58.75 64.375V56.25H64.875C68.5 56.25 71.5 55.5 72.375 54.5C73.375 53.375 73.75 48.125 73.5 39.375C73.125 26.875 72.875 25.875 70.5 24.875C68.75 24.25 66.875 24.625 65.125 25.75ZM71 27.75C72.625 29.375 73.125 49.625 71.5 52.125C71 52.875 67.5 53.75 63.75 54L56.875 54.375L56.25 64.375C55.625 73.5 55.375 74.375 52.875 74.75C49.25 75.25 48.5 72.375 49 58.75L49.375 48.125L56.875 47.5L64.375 46.875L64.75 37.5C65.125 27.125 67.25 24 71 27.75Z" fill="#080D41"/>
<path d="M22.9997 33C22.6247 34 22.4997 35.875 22.7497 37.125C23.1247 39.125 24.7497 39.375 39.9997 39.375H56.8747V35.625V31.875L40.2497 31.5C26.6247 31.25 23.6247 31.5 22.9997 33ZM54.9997 35.625C54.9997 37.125 52.4997 37.5 39.9997 37.5C27.4997 37.5 24.9997 37.125 24.9997 35.625C24.9997 34 27.4997 33.75 39.9997 33.75C52.4997 33.75 54.9997 34 54.9997 35.625Z" fill="#080D41"/>
</svg>
