<svg width="80" height="81" viewBox="0 0 80 81" fill="none" xmlns="http://www.w3.org/2000/svg">
<path d="M27.5002 10.625C17.3752 15.25 11.0002 23.5 9.25017 34.25C8.75017 37.125 7.62517 40.125 6.75017 40.875C5.87517 41.75 4.25017 43.125 3.12517 44C-2.49983 48.75 4.87517 60.5 13.6252 60.5H17.8752L17.2502 46.375C16.7502 34.5 17.0002 31.75 18.8752 27.75C25.3752 15 43.0002 11.125 54.6252 20C61.8752 25.5 63.0002 29.25 62.6252 45.75C62.3752 58.5 62.6252 60.5 64.2502 60.5C67.2502 60.5 66.6252 62.75 62.6252 66.875C60.1252 69.25 57.6252 70.5 55.1252 70.5C51.8752 70.5 50.8752 69.75 49.1252 65.75C46.7502 61 43.5002 59.625 42.7502 63.125C42.0002 67 47.7502 72 53.8752 72.625C58.6252 73.125 60.1252 72.75 63.3752 70C65.5002 68.25 67.5002 65.5 68.0002 64C68.3752 62.375 70.6252 59.75 73.1252 58.125C75.5002 56.5 77.8752 53.875 78.2502 52.25C79.3752 47.875 77.8752 43.25 75.0002 42.375C73.3752 41.875 72.1252 39.75 71.2502 36.375C68.6252 26.125 67.5002 23.5 63.7502 19C55.3752 8.87502 39.5002 5.12502 27.5002 10.625ZM50.3752 12.125C56.1252 14.625 62.2502 20.125 64.8752 25.375C67.7502 31.125 69.3752 38 67.7502 38C67.1252 38 66.1252 36.125 65.7502 33.875C64.3752 26.75 58.3752 18.625 52.2502 15.625C43.8752 11.625 33.3752 12 26.1252 16.625C19.6252 20.625 15.2502 27 14.1252 33.625C13.5002 37.625 11.2502 40 11.2502 36.625C11.2502 28.625 19.7502 16.625 28.0002 12.875C34.0002 10.125 44.6252 9.75002 50.3752 12.125ZM15.0002 49.25C15.0002 57.125 14.7502 58 12.5002 58C10.2502 58 10.0002 57.125 10.0002 49.25C10.0002 41.375 10.2502 40.5 12.5002 40.5C14.7502 40.5 15.0002 41.375 15.0002 49.25ZM70.0002 49.25C70.0002 57.125 69.7502 58 67.5002 58C65.2502 58 65.0002 57.125 65.0002 49.25C65.0002 41.375 65.2502 40.5 67.5002 40.5C69.7502 40.5 70.0002 41.375 70.0002 49.25ZM7.50017 49.375C7.50017 52.875 7.00017 54.25 6.00017 54C3.00017 53 3.25017 44.25 6.25017 44.25C6.87517 44.25 7.50017 46.5 7.50017 49.375ZM75.6252 49.25C75.6252 51.5 74.8752 53.625 74.1252 53.875C73.0002 54.25 72.5002 52.875 72.5002 49.25C72.5002 45.625 73.0002 44.25 74.1252 44.5C74.8752 44.875 75.6252 47 75.6252 49.25Z" fill="#080D41"/>
<path d="M27.75 29.75C23.5 33.625 23.125 34.625 23.125 40.5C23.125 46.375 23.5 47.375 27.75 51.25C31 54.25 33.625 55.5 36.375 55.5C40.375 55.5 56.375 52.875 57.375 52.125C57.75 51.875 56.875 50.875 55.5 50C53.625 48.625 53.125 46.625 53.125 41.125C53.125 34.625 52.75 33.75 48.5 29.75C44.625 26.25 42.875 25.5 38.125 25.5C33.375 25.5 31.625 26.25 27.75 29.75ZM46.875 31C50.75 34.875 52 40 50.25 44.75C49.125 47.5 49.125 48.75 50.125 49.375C52.375 50.75 49.5 51.75 40.75 52.625C33.25 53.25 32.5 53.125 29.5 50.125C23.75 44.375 23.75 36.625 29.375 31C33.625 26.75 42.625 26.75 46.875 31Z" fill="#080D41"/>
<path d="M31.8754 35.5C31.3754 36.25 33.7504 36.75 38.1254 36.75C42.5004 36.75 44.8754 36.25 44.3754 35.5C44.0004 34.75 41.1254 34.25 38.1254 34.25C35.1254 34.25 32.2504 34.75 31.8754 35.5Z" fill="#080D41"/>
<path d="M32.5 40.5C32.5 41.125 35.375 41.75 38.75 41.75C42.25 41.75 45 41.125 45 40.5C45 39.75 42.25 39.25 38.75 39.25C35.375 39.25 32.5 39.75 32.5 40.5Z" fill="#080D41"/>
<path d="M31.8754 45.5C32.2504 46.125 35.1254 46.75 38.1254 46.75C41.1254 46.75 44.0004 46.125 44.3754 45.5C44.8754 44.75 42.5004 44.25 38.1254 44.25C33.7504 44.25 31.3754 44.75 31.8754 45.5Z" fill="#080D41"/>
</svg>
