<svg width="80" height="80" viewBox="0 0 80 80" fill="none" xmlns="http://www.w3.org/2000/svg">
<g clip-path="url(#clip0_231_743)">
<path d="M50.2498 3.74999L47.2498 6.25L51.1248 9.5C53.2498 11.25 54.9998 13.75 54.9998 15.125C54.9998 18 55.2498 18 48.6248 15C34.3748 8.5 17.6248 15.375 11.2498 30.25C4.37482 46.375 13.4998 64.125 31.1248 68.75C47.4998 73.125 63.9998 61 65.8748 43.375C66.4998 37.75 65.9998 35.25 63.3748 29.625C59.8748 21.875 60.4998 17.875 64.7498 21.625C66.3748 23.125 66.9998 24.875 66.4998 27C66.1248 29.375 66.4998 30.25 68.4998 30.875C69.9998 31.25 71.4998 32.625 71.8748 33.875C72.3748 35.125 73.2498 36.25 73.8748 36.25C75.6248 36.25 75.2498 34.125 73.1248 32C71.6248 30.5 71.3748 29.5 72.4998 27.5C73.2498 26.125 74.2498 25 74.7498 25C75.2498 25 76.7498 24.125 77.9998 23.125C79.8748 21.75 80.1248 21 78.8748 19.5C78.1248 18.5 76.2498 18 74.9998 18.375C72.4998 19 68.7498 16.875 68.7498 14.875C68.7498 14.25 70.9998 12.5 73.7498 11C79.3748 7.75 79.6248 7.24999 76.7498 4.99999C75.2498 3.62499 73.7498 3.62499 68.4998 5.37499C62.1248 7.37499 62.1248 7.37499 58.4998 4.37499C54.1248 0.624992 53.9998 0.624992 50.2498 3.74999ZM57.6248 7L60.9998 10.25L67.4998 8.125C75.4998 5.5 76.6248 6.25 70.3748 10.125C67.7498 11.625 65.3748 13.125 65.1248 13.25C63.9998 14.125 70.8748 21.125 73.1248 21.25C75.3748 21.375 75.3748 21.5 73.6248 22.875C72.6248 23.75 70.9998 25.5 70.1248 26.875C68.6248 29.375 68.6248 29.25 69.1248 26.625C69.4998 24.75 68.4998 22.75 65.4998 19.875L61.3748 15.875L58.6248 21.625C55.2498 28.625 53.1248 28.25 55.7498 21C58.1248 14.25 57.9998 12.125 54.9998 9.375C52.6248 7.25 51.6248 3.74999 53.3748 3.74999C53.8748 3.74999 55.7498 5.25 57.6248 7ZM41.1248 17.75C42.7498 22.125 41.6248 24.25 33.6248 31.875C29.6248 35.75 26.2498 40.125 26.2498 41.375C26.2498 42.875 27.9998 44.875 30.6248 46.375C32.9998 47.875 34.9998 49.25 34.9998 49.5C34.9998 49.75 33.1248 50 30.8748 50C27.9998 50 24.6248 48.5 20.1248 45C16.3748 42.375 12.8748 39.875 12.2498 39.75C9.99982 39 13.6248 28.875 17.8748 24.125C25.2498 15.75 38.9998 12 41.1248 17.75ZM49.9998 18.125C53.2498 19.875 53.4998 20.375 52.3748 23.25C51.6248 25.625 51.6248 27.125 52.6248 28.25C54.6248 30.625 57.1248 30.375 58.1248 27.75C58.8748 25.875 59.1248 26 60.6248 28.75C63.1248 33.125 62.8748 35.375 59.9998 37.875C58.6248 39 57.4998 41.125 57.4998 42.5C57.4998 43.875 54.3748 48.375 50.6248 52.5C46.2498 57.25 43.7498 61.125 43.7498 63C43.7498 71.125 24.3748 66.875 17.1248 57.25C13.8748 52.875 10.4998 44 11.6248 42.875C11.9998 42.5 14.9998 44.25 18.2498 46.75C24.7498 51.75 27.8748 52.875 33.2498 52.25C38.4998 51.625 38.4998 48.375 33.1248 45.25C30.7498 43.75 28.7498 41.875 28.7498 41C28.7498 40.25 31.7498 36.625 35.4998 33.25C43.1248 26 45.4998 22.25 44.3748 18.75C43.3748 15.75 45.1248 15.625 49.9998 18.125ZM63.7498 41.5C63.7498 47.875 60.8748 54.25 55.6248 59.5C52.4998 62.5 49.2498 65 48.1248 65C44.6248 65 46.2498 60.5 51.7498 55.125C56.8748 50.125 58.2498 47.75 60.4998 40.875C61.4998 37.75 63.7498 38.25 63.7498 41.5Z" fill="#080D41"/>
<path d="M30 5C30 5.625 31.125 6.25 32.5 6.25C33.875 6.25 35 5.625 35 5C35 4.25 33.875 3.75 32.5 3.75C31.125 3.75 30 4.25 30 5Z" fill="#080D41"/>
<path d="M38.75 5C38.75 5.625 39.875 6.25 41.25 6.25C42.625 6.25 43.75 5.625 43.75 5C43.75 4.25 42.625 3.75 41.25 3.75C39.875 3.75 38.75 4.25 38.75 5Z" fill="#080D41"/>
<path d="M21.25 7.5C21.25 8.125 22 8.75 23 8.75C24 8.75 25.25 8.125 25.625 7.5C26 6.75 25.25 6.25 23.875 6.25C22.375 6.25 21.25 6.75 21.25 7.5Z" fill="#080D41"/>
<path d="M14.3748 11.375C13.8748 12.125 13.7498 13 14.1248 13.375C14.9998 14.25 17.4998 12.625 17.4998 11.125C17.4998 9.625 15.3748 9.625 14.3748 11.375Z" fill="#080D41"/>
<path d="M8.375 17.125C7.875 17.5 7.5 18.75 7.5 19.75C7.5 21.25 7.875 21.25 9.375 20C10.375 19.125 11.25 18 11.25 17.375C11.25 16 9.5 15.875 8.375 17.125Z" fill="#080D41"/>
<path d="M3.25009 25.75C2.12509 28.5 3.62509 29.75 5.00009 27.5C6.50009 25.125 6.50009 23.75 5.12509 23.75C4.50009 23.75 3.62509 24.625 3.25009 25.75Z" fill="#080D41"/>
<path d="M0.875036 33.375C-0.374964 34.5 -0.124964 37.5 1.12504 37.5C1.75004 37.5 2.50004 36.375 2.87504 35C3.50004 32.5 2.50004 31.75 0.875036 33.375Z" fill="#080D41"/>
<path d="M72.5 42.5C72.5 43.875 73.125 45 73.75 45C74.5 45 75 43.875 75 42.5C75 41.125 74.5 40 73.75 40C73.125 40 72.5 41.125 72.5 42.5Z" fill="#080D41"/>
<path d="M0 43.75C0 45.125 0.625 46.25 1.25 46.25C2 46.25 2.5 45.125 2.5 43.75C2.5 42.375 2 41.25 1.25 41.25C0.625 41.25 0 42.375 0 43.75Z" fill="#080D41"/>
<path d="M71.8749 50.375C71.3749 51.625 71.2499 53 71.7499 53.375C72.9999 54.625 73.9999 52.875 73.3749 50.375C72.8749 48.25 72.8749 48.25 71.8749 50.375Z" fill="#080D41"/>
<path d="M1.25 50.875C1.25 52.625 3.625 55.625 4.375 54.875C5.375 53.875 3.75 50 2.375 50C1.75 50 1.25 50.375 1.25 50.875Z" fill="#080D41"/>
<path d="M67.6248 59.25C66.6248 60.375 66.2498 61.625 66.7498 62.125C67.8748 63.25 70.3748 60.5 69.7498 58.75C69.4998 57.75 68.7498 57.875 67.6248 59.25Z" fill="#080D41"/>
<path d="M5 59.75C5 60.375 5.875 61.75 7 62.625C8.75 64.125 9 64 8.625 62C8.125 59.5 5 57.625 5 59.75Z" fill="#080D41"/>
<path d="M61.8748 66.375C61.3748 67.125 61.2498 68 61.6248 68.375C62.4998 69.25 64.9998 67.625 64.9998 66.125C64.9998 64.625 62.8748 64.625 61.8748 66.375Z" fill="#080D41"/>
<path d="M11.5 67.625C11.75 68.5 12.75 69.5 13.625 69.75C14.625 70.125 15.125 69.625 14.75 68.625C14.5 67.75 13.5 66.75 12.625 66.5C11.625 66.125 11.125 66.625 11.5 67.625Z" fill="#080D41"/>
<path d="M55.1249 71.25C54.2499 71.75 53.6249 72.875 53.8749 73.625C54.2499 74.625 55.1249 74.625 56.7499 73.375C59.3749 71.5 57.8749 69.5 55.1249 71.25Z" fill="#080D41"/>
<path d="M19 72.625C19.25 73.5 20.25 74.5 21.125 74.75C22.125 75.125 22.625 74.625 22.25 73.625C22 72.75 21 71.75 20.125 71.5C19.125 71.125 18.625 71.625 19 72.625Z" fill="#080D41"/>
<path d="M26.875 76.25C27.25 76.875 28.75 77.5 30.125 77.5C31.5 77.5 32.25 76.875 31.875 76.25C31.5 75.5 30 75 28.625 75C27.25 75 26.5 75.5 26.875 76.25Z" fill="#080D41"/>
<path d="M45 76.25C45 77.875 48.375 77.875 49.375 76.25C49.75 75.5 49 75 47.625 75C46.125 75 45 75.5 45 76.25Z" fill="#080D41"/>
<path d="M35.6251 77.5C36.6251 79.125 39.6251 79.125 40.6251 77.5C41.1251 76.75 40.0001 76.25 38.1251 76.25C36.2501 76.25 35.1251 76.75 35.6251 77.5Z" fill="#080D41"/>
</g>
<defs>
<clipPath id="clip0_231_743">
<rect width="80" height="80" fill="white"/>
</clipPath>
</defs>
</svg>
