<svg width="80" height="80" viewBox="0 0 80 80" fill="none" xmlns="http://www.w3.org/2000/svg">
<path d="M20.8748 4.49999C19.4998 5.87499 19.8748 18.75 21.2498 18.75C21.9998 18.75 22.4998 15.875 22.4998 12.5V6.24999H49.9998H77.4998V23.75V41.25H70.8748C63.9998 41.25 61.2498 42.75 61.2498 46.5C61.2498 48.25 60.2498 48.75 56.2498 48.75C52.2498 48.75 51.2498 48.25 51.2498 46.5C51.2498 45.25 50.6248 43.625 49.8748 42.875C48.8748 41.875 49.1248 39.5 50.9998 33.875C52.3748 29.75 53.1248 26 52.4998 25.625C51.8748 25.25 50.2498 28.625 48.7498 33.125C47.2498 37.625 45.3748 41.25 44.4998 41.25C43.6248 41.25 41.6248 42.625 39.9998 44.375C37.2498 47.25 36.2498 47.5 24.7498 47.5C11.8748 47.5 6.2498 49.125 3.8748 53.5C2.2498 56.625 -0.375199 73.375 0.624801 75C1.7498 76.875 27.8748 76.625 29.7498 74.75C30.6248 73.875 31.2498 70.25 31.2498 66.625V60H35.9998C39.6248 60 41.9998 59 45.8748 55.75L50.8748 51.375H64.3748C71.8748 51.375 78.3748 50.875 78.9998 50.25C79.6248 49.625 79.8748 39.125 79.7498 26.75L79.3748 4.37499L50.4998 3.99999C34.6248 3.87499 21.3748 4.12499 20.8748 4.49999ZM46.7498 44.5C52.8748 46.875 44.3748 56.375 35.2498 57.5L29.3748 58.125L28.9998 66C28.6248 73.125 28.3748 73.75 25.7498 73.75C23.4998 73.75 22.6248 72.875 22.1248 70C21.3748 66.75 20.7498 66.25 16.9998 66.25C13.3748 66.25 12.8748 65.875 13.3748 63.75C13.7498 62.375 13.3748 61.25 12.6248 61.25C11.8748 61.25 10.9998 62.625 10.6248 64.375C10.2498 66.125 9.7498 68.875 9.3748 70.625C8.8748 73 7.8748 73.75 5.4998 73.75C2.4998 73.75 2.3748 73.625 3.2498 67.875C4.6248 58.125 6.6248 53.25 9.9998 51.625C11.8748 50.625 18.1248 50 25.7498 50C37.4998 50 38.4998 49.75 41.2498 46.875C44.6248 43.375 44.1248 43.5 46.7498 44.5ZM77.4998 46.25C77.4998 48.5 76.6248 48.75 70.6248 48.75C65.7498 48.75 63.7498 48.25 63.7498 47.125C63.7498 44.375 65.1248 43.75 71.4998 43.75C76.6248 43.75 77.4998 44.125 77.4998 46.25ZM19.9998 71.25C19.9998 73.25 19.1248 73.75 15.7498 73.75C12.1248 73.75 11.6248 73.375 12.1248 71.25C12.6248 69.5 13.8748 68.75 16.3748 68.75C19.1248 68.75 19.9998 69.375 19.9998 71.25Z" fill="#080D41"/>
<path d="M28.75 13.75C28.75 14.5 32.75 15 38.125 15C43.5 15 47.5 14.5 47.5 13.75C47.5 13 43.5 12.5 38.125 12.5C32.75 12.5 28.75 13 28.75 13.75Z" fill="#080D41"/>
<path d="M28.75 20C28.75 20.75 36.875 21.25 50.625 21.25C64.375 21.25 72.5 20.75 72.5 20C72.5 19.25 64.375 18.75 50.625 18.75C36.875 18.75 28.75 19.25 28.75 20Z" fill="#080D41"/>
<path d="M12 25.125C10.125 27.25 8.75 30.5 8.75 32.5C8.75 34.5 10.125 37.75 12 39.875C16.25 45 23.5 45.375 28.125 40.625C32.5 36.375 32.5 28.625 28.125 24.375C23.5 19.625 16.25 20 12 25.125ZM26.25 26.25C31.625 31.625 27.625 41.25 20 41.25C15.25 41.25 11.25 37.25 11.25 32.5C11.25 27.75 15.25 23.75 20 23.75C22.125 23.75 24.875 24.875 26.25 26.25Z" fill="#080D41"/>
<path d="M36.25 26.25C36.25 26.875 38.5 27.5 41.25 27.5C44 27.5 46.25 26.875 46.25 26.25C46.25 25.5 44 25 41.25 25C38.5 25 36.25 25.5 36.25 26.25Z" fill="#080D41"/>
<path d="M60 26.25C60 26.875 62.875 27.5 66.375 27.5C70.25 27.5 72.375 27 71.875 26.25C71.5 25.5 68.625 25 65.5 25C62.5 25 60 25.5 60 26.25Z" fill="#080D41"/>
<path d="M56.25 35C56.25 35.75 59.625 36.25 63.75 36.25C67.875 36.25 71.25 35.75 71.25 35C71.25 34.25 67.875 33.75 63.75 33.75C59.625 33.75 56.25 34.25 56.25 35Z" fill="#080D41"/>
<path d="M48.75 66.25C48.75 72.125 49.25 76.25 50 76.25C50.75 76.25 51.25 72.125 51.25 66.25C51.25 60.375 50.75 56.25 50 56.25C49.25 56.25 48.75 60.375 48.75 66.25Z" fill="#080D41"/>
</svg>
