<svg width="24" height="34" viewBox="0 0 24 34" fill="none" xmlns="http://www.w3.org/2000/svg">
<path d="M11.9999 16.1668C10.8949 16.1668 9.83504 15.7278 9.05364 14.9464C8.27224 14.165 7.83325 13.1052 7.83325 12.0002C7.83325 10.8951 8.27224 9.83529 9.05364 9.05388C9.83504 8.27248 10.8949 7.8335 11.9999 7.8335C13.105 7.8335 14.1648 8.27248 14.9462 9.05388C15.7276 9.83529 16.1666 10.8951 16.1666 12.0002C16.1666 12.5473 16.0588 13.0892 15.8494 13.5947C15.64 14.1002 15.3331 14.5595 14.9462 14.9464C14.5593 15.3334 14.1 15.6403 13.5944 15.8497C13.0889 16.0591 12.5471 16.1668 11.9999 16.1668ZM11.9999 0.333496C8.90573 0.333496 5.93826 1.56266 3.75034 3.75058C1.56242 5.93851 0.333252 8.90597 0.333252 12.0002C0.333252 20.7502 11.9999 33.6668 11.9999 33.6668C11.9999 33.6668 23.6666 20.7502 23.6666 12.0002C23.6666 8.90597 22.4374 5.93851 20.2495 3.75058C18.0616 1.56266 15.0941 0.333496 11.9999 0.333496Z" fill="#F67D00"/>
</svg>
